M48
; DRILL file {KiCad 9.0.2} date 2025-06-13T16:41:43+0200
; FORMAT={-:-/ absolute / metric / decimal}
; #@! TF.CreationDate,2025-06-13T16:41:43+02:00
; #@! TF.GenerationSoftware,Kicad,Pcbnew,9.0.2
; #@! TF.FileFunction,Plated,1,2,PTH
FMAT,2
METRIC
; #@! TA.AperFunction,Plated,PTH,ViaDrill
T1C0.300
; #@! TA.AperFunction,Plated,PTH,ComponentDrill
T2C0.750
; #@! TA.AperFunction,Plated,PTH,ComponentDrill
T3C0.800
; #@! TA.AperFunction,Plated,PTH,ComponentDrill
T4C0.813
; #@! TA.AperFunction,Plated,PTH,ComponentDrill
T5C0.914
; #@! TA.AperFunction,Plated,PTH,ComponentDrill
T6C1.000
; #@! TA.AperFunction,Plated,PTH,ComponentDrill
T7C1.499
%
G90
G05
T1
X88.4Y-70.03
X89.42Y-67.51
X90.89Y-102.48
X92.986Y-96.816
X93.0Y-67.5
X93.5Y-70.0
X94.34Y-49.05
X110.5Y-56.0
T2
X88.9Y-104.9
X89.5Y-63.5
X89.5Y-64.77
X89.5Y-66.04
X90.5Y-95.46
X90.5Y-96.73
X90.5Y-98.0
X90.9Y-104.9
X113.5Y-55.95
X115.5Y-55.95
T3
X82.19Y-91.5
X89.81Y-91.5
T4
X84.4Y-96.2
X84.4Y-98.2
X84.4Y-100.2
T5
X88.0Y-52.4
X88.0Y-57.4
T6
X83.0Y-76.5
X83.0Y-79.04
X83.0Y-81.58
X83.0Y-84.12
X95.394Y-67.317
X95.394Y-69.857
X95.394Y-72.397
X95.394Y-74.937
X95.394Y-77.477
X95.394Y-80.017
X95.394Y-82.557
X95.394Y-85.097
X95.394Y-87.637
X95.394Y-90.177
X95.394Y-92.717
X95.394Y-95.257
X115.714Y-67.317
X115.714Y-69.857
X115.714Y-72.397
X115.714Y-74.937
X115.714Y-77.477
X115.714Y-80.017
X115.714Y-82.557
X115.714Y-85.097
X115.714Y-87.637
X115.714Y-90.177
X115.714Y-92.717
X115.714Y-95.257
X115.714Y-97.797
X115.714Y-100.337
X115.714Y-102.877
X115.714Y-105.417
T7
X84.4Y-94.1
X84.4Y-102.3
M30
