G04 #@! TF.GenerationSoftware,KiCad,Pcbnew,9.0.2*
G04 #@! TF.CreationDate,2025-06-24T11:01:01+02:00*
G04 #@! TF.ProjectId,SenseMatePCB,53656e73-654d-4617-9465-5043422e6b69,rev?*
G04 #@! TF.SameCoordinates,Original*
G04 #@! TF.FileFunction,Legend,Bot*
G04 #@! TF.FilePolarity,Positive*
%FSLAX46Y46*%
G04 Gerber Fmt 4.6, Leading zero omitted, Abs format (unit mm)*
G04 Created by KiCad (PCBNEW 9.0.2) date 2025-06-24 11:01:01*
%MOMM*%
%LPD*%
G01*
G04 APERTURE LIST*
%ADD10C,0.150000*%
%ADD11C,0.254000*%
%ADD12C,0.152400*%
%ADD13C,0.120000*%
%ADD14C,0.200000*%
G04 APERTURE END LIST*
D10*
X102379166Y-90804819D02*
X102712499Y-90328628D01*
X102950594Y-90804819D02*
X102950594Y-89804819D01*
X102950594Y-89804819D02*
X102569642Y-89804819D01*
X102569642Y-89804819D02*
X102474404Y-89852438D01*
X102474404Y-89852438D02*
X102426785Y-89900057D01*
X102426785Y-89900057D02*
X102379166Y-89995295D01*
X102379166Y-89995295D02*
X102379166Y-90138152D01*
X102379166Y-90138152D02*
X102426785Y-90233390D01*
X102426785Y-90233390D02*
X102474404Y-90281009D01*
X102474404Y-90281009D02*
X102569642Y-90328628D01*
X102569642Y-90328628D02*
X102950594Y-90328628D01*
X101426785Y-90804819D02*
X101998213Y-90804819D01*
X101712499Y-90804819D02*
X101712499Y-89804819D01*
X101712499Y-89804819D02*
X101807737Y-89947676D01*
X101807737Y-89947676D02*
X101902975Y-90042914D01*
X101902975Y-90042914D02*
X101998213Y-90090533D01*
X95712557Y-99904761D02*
X95664938Y-99809523D01*
X95664938Y-99809523D02*
X95569700Y-99714285D01*
X95569700Y-99714285D02*
X95426842Y-99571428D01*
X95426842Y-99571428D02*
X95379223Y-99476190D01*
X95379223Y-99476190D02*
X95379223Y-99380952D01*
X95617319Y-99428571D02*
X95569700Y-99333333D01*
X95569700Y-99333333D02*
X95474461Y-99238095D01*
X95474461Y-99238095D02*
X95283985Y-99190476D01*
X95283985Y-99190476D02*
X94950652Y-99190476D01*
X94950652Y-99190476D02*
X94760176Y-99238095D01*
X94760176Y-99238095D02*
X94664938Y-99333333D01*
X94664938Y-99333333D02*
X94617319Y-99428571D01*
X94617319Y-99428571D02*
X94617319Y-99619047D01*
X94617319Y-99619047D02*
X94664938Y-99714285D01*
X94664938Y-99714285D02*
X94760176Y-99809523D01*
X94760176Y-99809523D02*
X94950652Y-99857142D01*
X94950652Y-99857142D02*
X95283985Y-99857142D01*
X95283985Y-99857142D02*
X95474461Y-99809523D01*
X95474461Y-99809523D02*
X95569700Y-99714285D01*
X95569700Y-99714285D02*
X95617319Y-99619047D01*
X95617319Y-99619047D02*
X95617319Y-99428571D01*
X94712557Y-100238095D02*
X94664938Y-100285714D01*
X94664938Y-100285714D02*
X94617319Y-100380952D01*
X94617319Y-100380952D02*
X94617319Y-100619047D01*
X94617319Y-100619047D02*
X94664938Y-100714285D01*
X94664938Y-100714285D02*
X94712557Y-100761904D01*
X94712557Y-100761904D02*
X94807795Y-100809523D01*
X94807795Y-100809523D02*
X94903033Y-100809523D01*
X94903033Y-100809523D02*
X95045890Y-100761904D01*
X95045890Y-100761904D02*
X95617319Y-100190476D01*
X95617319Y-100190476D02*
X95617319Y-100809523D01*
X97285714Y-102931009D02*
X97142857Y-102978628D01*
X97142857Y-102978628D02*
X97095238Y-103026247D01*
X97095238Y-103026247D02*
X97047619Y-103121485D01*
X97047619Y-103121485D02*
X97047619Y-103264342D01*
X97047619Y-103264342D02*
X97095238Y-103359580D01*
X97095238Y-103359580D02*
X97142857Y-103407200D01*
X97142857Y-103407200D02*
X97238095Y-103454819D01*
X97238095Y-103454819D02*
X97619047Y-103454819D01*
X97619047Y-103454819D02*
X97619047Y-102454819D01*
X97619047Y-102454819D02*
X97285714Y-102454819D01*
X97285714Y-102454819D02*
X97190476Y-102502438D01*
X97190476Y-102502438D02*
X97142857Y-102550057D01*
X97142857Y-102550057D02*
X97095238Y-102645295D01*
X97095238Y-102645295D02*
X97095238Y-102740533D01*
X97095238Y-102740533D02*
X97142857Y-102835771D01*
X97142857Y-102835771D02*
X97190476Y-102883390D01*
X97190476Y-102883390D02*
X97285714Y-102931009D01*
X97285714Y-102931009D02*
X97619047Y-102931009D01*
X96761904Y-102454819D02*
X96190476Y-102454819D01*
X96476190Y-103454819D02*
X96476190Y-102454819D01*
X95333333Y-103454819D02*
X95904761Y-103454819D01*
X95619047Y-103454819D02*
X95619047Y-102454819D01*
X95619047Y-102454819D02*
X95714285Y-102597676D01*
X95714285Y-102597676D02*
X95809523Y-102692914D01*
X95809523Y-102692914D02*
X95904761Y-102740533D01*
X99291666Y-91104819D02*
X99624999Y-90628628D01*
X99863094Y-91104819D02*
X99863094Y-90104819D01*
X99863094Y-90104819D02*
X99482142Y-90104819D01*
X99482142Y-90104819D02*
X99386904Y-90152438D01*
X99386904Y-90152438D02*
X99339285Y-90200057D01*
X99339285Y-90200057D02*
X99291666Y-90295295D01*
X99291666Y-90295295D02*
X99291666Y-90438152D01*
X99291666Y-90438152D02*
X99339285Y-90533390D01*
X99339285Y-90533390D02*
X99386904Y-90581009D01*
X99386904Y-90581009D02*
X99482142Y-90628628D01*
X99482142Y-90628628D02*
X99863094Y-90628628D01*
X98958332Y-90104819D02*
X98339285Y-90104819D01*
X98339285Y-90104819D02*
X98672618Y-90485771D01*
X98672618Y-90485771D02*
X98529761Y-90485771D01*
X98529761Y-90485771D02*
X98434523Y-90533390D01*
X98434523Y-90533390D02*
X98386904Y-90581009D01*
X98386904Y-90581009D02*
X98339285Y-90676247D01*
X98339285Y-90676247D02*
X98339285Y-90914342D01*
X98339285Y-90914342D02*
X98386904Y-91009580D01*
X98386904Y-91009580D02*
X98434523Y-91057200D01*
X98434523Y-91057200D02*
X98529761Y-91104819D01*
X98529761Y-91104819D02*
X98815475Y-91104819D01*
X98815475Y-91104819D02*
X98910713Y-91057200D01*
X98910713Y-91057200D02*
X98958332Y-91009580D01*
D11*
X102467619Y-60013842D02*
X102286190Y-60074318D01*
X102286190Y-60074318D02*
X101983809Y-60074318D01*
X101983809Y-60074318D02*
X101862857Y-60013842D01*
X101862857Y-60013842D02*
X101802381Y-59953365D01*
X101802381Y-59953365D02*
X101741904Y-59832413D01*
X101741904Y-59832413D02*
X101741904Y-59711461D01*
X101741904Y-59711461D02*
X101802381Y-59590508D01*
X101802381Y-59590508D02*
X101862857Y-59530032D01*
X101862857Y-59530032D02*
X101983809Y-59469556D01*
X101983809Y-59469556D02*
X102225714Y-59409080D01*
X102225714Y-59409080D02*
X102346666Y-59348603D01*
X102346666Y-59348603D02*
X102407143Y-59288127D01*
X102407143Y-59288127D02*
X102467619Y-59167175D01*
X102467619Y-59167175D02*
X102467619Y-59046222D01*
X102467619Y-59046222D02*
X102407143Y-58925270D01*
X102407143Y-58925270D02*
X102346666Y-58864794D01*
X102346666Y-58864794D02*
X102225714Y-58804318D01*
X102225714Y-58804318D02*
X101923333Y-58804318D01*
X101923333Y-58804318D02*
X101741904Y-58864794D01*
X100532380Y-60074318D02*
X101258095Y-60074318D01*
X100895238Y-60074318D02*
X100895238Y-58804318D01*
X100895238Y-58804318D02*
X101016190Y-58985746D01*
X101016190Y-58985746D02*
X101137142Y-59106699D01*
X101137142Y-59106699D02*
X101258095Y-59167175D01*
D10*
X107238094Y-82304819D02*
X107238094Y-81304819D01*
X107238094Y-81304819D02*
X106999999Y-81304819D01*
X106999999Y-81304819D02*
X106857142Y-81352438D01*
X106857142Y-81352438D02*
X106761904Y-81447676D01*
X106761904Y-81447676D02*
X106714285Y-81542914D01*
X106714285Y-81542914D02*
X106666666Y-81733390D01*
X106666666Y-81733390D02*
X106666666Y-81876247D01*
X106666666Y-81876247D02*
X106714285Y-82066723D01*
X106714285Y-82066723D02*
X106761904Y-82161961D01*
X106761904Y-82161961D02*
X106857142Y-82257200D01*
X106857142Y-82257200D02*
X106999999Y-82304819D01*
X106999999Y-82304819D02*
X107238094Y-82304819D01*
X105714285Y-82304819D02*
X106285713Y-82304819D01*
X105999999Y-82304819D02*
X105999999Y-81304819D01*
X105999999Y-81304819D02*
X106095237Y-81447676D01*
X106095237Y-81447676D02*
X106190475Y-81542914D01*
X106190475Y-81542914D02*
X106285713Y-81590533D01*
X103291666Y-85304819D02*
X103624999Y-84828628D01*
X103863094Y-85304819D02*
X103863094Y-84304819D01*
X103863094Y-84304819D02*
X103482142Y-84304819D01*
X103482142Y-84304819D02*
X103386904Y-84352438D01*
X103386904Y-84352438D02*
X103339285Y-84400057D01*
X103339285Y-84400057D02*
X103291666Y-84495295D01*
X103291666Y-84495295D02*
X103291666Y-84638152D01*
X103291666Y-84638152D02*
X103339285Y-84733390D01*
X103339285Y-84733390D02*
X103386904Y-84781009D01*
X103386904Y-84781009D02*
X103482142Y-84828628D01*
X103482142Y-84828628D02*
X103863094Y-84828628D01*
X102910713Y-84400057D02*
X102863094Y-84352438D01*
X102863094Y-84352438D02*
X102767856Y-84304819D01*
X102767856Y-84304819D02*
X102529761Y-84304819D01*
X102529761Y-84304819D02*
X102434523Y-84352438D01*
X102434523Y-84352438D02*
X102386904Y-84400057D01*
X102386904Y-84400057D02*
X102339285Y-84495295D01*
X102339285Y-84495295D02*
X102339285Y-84590533D01*
X102339285Y-84590533D02*
X102386904Y-84733390D01*
X102386904Y-84733390D02*
X102958332Y-85304819D01*
X102958332Y-85304819D02*
X102339285Y-85304819D01*
X106657738Y-87650057D02*
X106752976Y-87602438D01*
X106752976Y-87602438D02*
X106848214Y-87507200D01*
X106848214Y-87507200D02*
X106991071Y-87364342D01*
X106991071Y-87364342D02*
X107086309Y-87316723D01*
X107086309Y-87316723D02*
X107181547Y-87316723D01*
X107133928Y-87554819D02*
X107229166Y-87507200D01*
X107229166Y-87507200D02*
X107324404Y-87411961D01*
X107324404Y-87411961D02*
X107372023Y-87221485D01*
X107372023Y-87221485D02*
X107372023Y-86888152D01*
X107372023Y-86888152D02*
X107324404Y-86697676D01*
X107324404Y-86697676D02*
X107229166Y-86602438D01*
X107229166Y-86602438D02*
X107133928Y-86554819D01*
X107133928Y-86554819D02*
X106943452Y-86554819D01*
X106943452Y-86554819D02*
X106848214Y-86602438D01*
X106848214Y-86602438D02*
X106752976Y-86697676D01*
X106752976Y-86697676D02*
X106705357Y-86888152D01*
X106705357Y-86888152D02*
X106705357Y-87221485D01*
X106705357Y-87221485D02*
X106752976Y-87411961D01*
X106752976Y-87411961D02*
X106848214Y-87507200D01*
X106848214Y-87507200D02*
X106943452Y-87554819D01*
X106943452Y-87554819D02*
X107133928Y-87554819D01*
X105752976Y-87554819D02*
X106324404Y-87554819D01*
X106038690Y-87554819D02*
X106038690Y-86554819D01*
X106038690Y-86554819D02*
X106133928Y-86697676D01*
X106133928Y-86697676D02*
X106229166Y-86792914D01*
X106229166Y-86792914D02*
X106324404Y-86840533D01*
X102879819Y-98176190D02*
X103879819Y-98842856D01*
X102879819Y-98842856D02*
X103879819Y-98176190D01*
X102879819Y-99080952D02*
X102879819Y-99652380D01*
X103879819Y-99366666D02*
X102879819Y-99366666D01*
X103594104Y-99938095D02*
X103594104Y-100414285D01*
X103879819Y-99842857D02*
X102879819Y-100176190D01*
X102879819Y-100176190D02*
X103879819Y-100509523D01*
X103879819Y-101319047D02*
X103879819Y-100842857D01*
X103879819Y-100842857D02*
X102879819Y-100842857D01*
X103879819Y-102176190D02*
X103879819Y-101604762D01*
X103879819Y-101890476D02*
X102879819Y-101890476D01*
X102879819Y-101890476D02*
X103022676Y-101795238D01*
X103022676Y-101795238D02*
X103117914Y-101700000D01*
X103117914Y-101700000D02*
X103165533Y-101604762D01*
X110684580Y-96866666D02*
X110732200Y-96819047D01*
X110732200Y-96819047D02*
X110779819Y-96676190D01*
X110779819Y-96676190D02*
X110779819Y-96580952D01*
X110779819Y-96580952D02*
X110732200Y-96438095D01*
X110732200Y-96438095D02*
X110636961Y-96342857D01*
X110636961Y-96342857D02*
X110541723Y-96295238D01*
X110541723Y-96295238D02*
X110351247Y-96247619D01*
X110351247Y-96247619D02*
X110208390Y-96247619D01*
X110208390Y-96247619D02*
X110017914Y-96295238D01*
X110017914Y-96295238D02*
X109922676Y-96342857D01*
X109922676Y-96342857D02*
X109827438Y-96438095D01*
X109827438Y-96438095D02*
X109779819Y-96580952D01*
X109779819Y-96580952D02*
X109779819Y-96676190D01*
X109779819Y-96676190D02*
X109827438Y-96819047D01*
X109827438Y-96819047D02*
X109875057Y-96866666D01*
X110779819Y-97866666D02*
X110303628Y-97533333D01*
X110779819Y-97295238D02*
X109779819Y-97295238D01*
X109779819Y-97295238D02*
X109779819Y-97676190D01*
X109779819Y-97676190D02*
X109827438Y-97771428D01*
X109827438Y-97771428D02*
X109875057Y-97819047D01*
X109875057Y-97819047D02*
X109970295Y-97866666D01*
X109970295Y-97866666D02*
X110113152Y-97866666D01*
X110113152Y-97866666D02*
X110208390Y-97819047D01*
X110208390Y-97819047D02*
X110256009Y-97771428D01*
X110256009Y-97771428D02*
X110303628Y-97676190D01*
X110303628Y-97676190D02*
X110303628Y-97295238D01*
X110303628Y-98485714D02*
X110779819Y-98485714D01*
X109779819Y-98152381D02*
X110303628Y-98485714D01*
X110303628Y-98485714D02*
X109779819Y-98819047D01*
X110732200Y-99104762D02*
X110779819Y-99247619D01*
X110779819Y-99247619D02*
X110779819Y-99485714D01*
X110779819Y-99485714D02*
X110732200Y-99580952D01*
X110732200Y-99580952D02*
X110684580Y-99628571D01*
X110684580Y-99628571D02*
X110589342Y-99676190D01*
X110589342Y-99676190D02*
X110494104Y-99676190D01*
X110494104Y-99676190D02*
X110398866Y-99628571D01*
X110398866Y-99628571D02*
X110351247Y-99580952D01*
X110351247Y-99580952D02*
X110303628Y-99485714D01*
X110303628Y-99485714D02*
X110256009Y-99295238D01*
X110256009Y-99295238D02*
X110208390Y-99200000D01*
X110208390Y-99200000D02*
X110160771Y-99152381D01*
X110160771Y-99152381D02*
X110065533Y-99104762D01*
X110065533Y-99104762D02*
X109970295Y-99104762D01*
X109970295Y-99104762D02*
X109875057Y-99152381D01*
X109875057Y-99152381D02*
X109827438Y-99200000D01*
X109827438Y-99200000D02*
X109779819Y-99295238D01*
X109779819Y-99295238D02*
X109779819Y-99533333D01*
X109779819Y-99533333D02*
X109827438Y-99676190D01*
X109779819Y-99961905D02*
X109779819Y-100533333D01*
X110779819Y-100247619D02*
X109779819Y-100247619D01*
X110494104Y-100819048D02*
X110494104Y-101295238D01*
X110779819Y-100723810D02*
X109779819Y-101057143D01*
X109779819Y-101057143D02*
X110779819Y-101390476D01*
X110779819Y-102200000D02*
X110779819Y-101723810D01*
X110779819Y-101723810D02*
X109779819Y-101723810D01*
X110779819Y-102533334D02*
X109779819Y-102533334D01*
X110256009Y-102533334D02*
X110256009Y-103104762D01*
X110779819Y-103104762D02*
X109779819Y-103104762D01*
D12*
X101070701Y-110500000D02*
G75*
G02*
X100308701Y-110500000I-381000J0D01*
G01*
X100308701Y-110500000D02*
G75*
G02*
X101070701Y-110500000I381000J0D01*
G01*
D13*
X102439564Y-91265000D02*
X101985436Y-91265000D01*
X102439564Y-92735000D02*
X101985436Y-92735000D01*
X96002500Y-100000000D02*
X96002500Y-99350000D01*
X96002500Y-100000000D02*
X96002500Y-100650000D01*
X99122500Y-100000000D02*
X99122500Y-99350000D01*
X99122500Y-100000000D02*
X99122500Y-100650000D01*
X96052500Y-98837500D02*
X95722500Y-99077500D01*
X95722500Y-98597500D01*
X96052500Y-98837500D01*
G36*
X96052500Y-98837500D02*
G01*
X95722500Y-99077500D01*
X95722500Y-98597500D01*
X96052500Y-98837500D01*
G37*
X93440000Y-104090000D02*
X94360000Y-104090000D01*
X93440000Y-105690000D02*
X94360000Y-105690000D01*
X93440000Y-111910000D02*
X93440000Y-104090000D01*
X94200000Y-108050000D02*
X94200000Y-109650000D01*
X94200000Y-109650000D02*
X95200000Y-109650000D01*
X94360000Y-104090000D02*
X94360000Y-105690000D01*
X94360000Y-105690000D02*
X94640000Y-105690000D01*
X95200000Y-108050000D02*
X94200000Y-108050000D01*
X95200000Y-109650000D02*
X95200000Y-108050000D01*
X96000000Y-107550000D02*
X96000000Y-111910000D01*
X97000000Y-107550000D02*
X96000000Y-107550000D01*
X97000000Y-111910000D02*
X97000000Y-107550000D01*
X97800000Y-108050000D02*
X98800000Y-108050000D01*
X97800000Y-109650000D02*
X97800000Y-108050000D01*
X97800000Y-109650000D02*
X97800000Y-111910000D01*
X98300000Y-109650000D02*
X98300000Y-111910000D01*
X98360000Y-105690000D02*
X98360000Y-104475000D01*
X98360000Y-105690000D02*
X98640000Y-105690000D01*
X98640000Y-104090000D02*
X99560000Y-104090000D01*
X98640000Y-105690000D02*
X98640000Y-104090000D01*
X98800000Y-108050000D02*
X98800000Y-109650000D01*
X98800000Y-109650000D02*
X97800000Y-109650000D01*
X99560000Y-104090000D02*
X99560000Y-111910000D01*
X99560000Y-105690000D02*
X98640000Y-105690000D01*
X99560000Y-111910000D02*
X93440000Y-111910000D01*
X98897936Y-88265000D02*
X99352064Y-88265000D01*
X98897936Y-89735000D02*
X99352064Y-89735000D01*
D14*
X104100000Y-65800000D02*
X104100000Y-65800000D01*
X104100000Y-65900000D02*
X104100000Y-65900000D01*
X104100000Y-65900000D02*
X104100000Y-65900000D01*
X104100000Y-65800000D02*
G75*
G02*
X104100000Y-65900000I0J-50000D01*
G01*
X104100000Y-65900000D02*
G75*
G02*
X104100000Y-65800000I0J50000D01*
G01*
X104100000Y-65900000D02*
G75*
G02*
X104100000Y-65800000I0J50000D01*
G01*
D13*
X104890000Y-79150000D02*
X107550000Y-79150000D01*
X104890000Y-80850000D02*
X104890000Y-79150000D01*
X104890000Y-80850000D02*
X107550000Y-80850000D01*
X103352064Y-85765000D02*
X102897936Y-85765000D01*
X103352064Y-87235000D02*
X102897936Y-87235000D01*
X106562500Y-87940000D02*
X105912500Y-87940000D01*
X106562500Y-87940000D02*
X107212500Y-87940000D01*
X106562500Y-91060000D02*
X105912500Y-91060000D01*
X106562500Y-91060000D02*
X107212500Y-91060000D01*
X107725000Y-87990000D02*
X107485000Y-87660000D01*
X107965000Y-87660000D01*
X107725000Y-87990000D01*
G36*
X107725000Y-87990000D02*
G01*
X107485000Y-87660000D01*
X107965000Y-87660000D01*
X107725000Y-87990000D01*
G37*
D12*
X107125000Y-107874000D02*
X107125000Y-106604000D01*
X107760000Y-107239000D02*
X106490000Y-107239000D01*
X113602000Y-100000000D02*
G75*
G02*
X100648000Y-100000000I-6477000J0D01*
G01*
X100648000Y-100000000D02*
G75*
G02*
X113602000Y-100000000I6477000J0D01*
G01*
D13*
X98120000Y-76960000D02*
X98120000Y-84690000D01*
X100880000Y-74310000D02*
X99500000Y-74310000D01*
X100880000Y-75690000D02*
X100880000Y-74310000D01*
X100880000Y-76960000D02*
X98120000Y-76960000D01*
X100880000Y-76960000D02*
X100880000Y-84690000D01*
X100880000Y-84690000D02*
X98120000Y-84690000D01*
M02*
