%TF.GenerationSoftware,KiCad,Pcbnew,9.0.2*%
%TF.CreationDate,2025-06-24T11:01:34+02:00*%
%TF.ProjectId,SenseMatePCB,53656e73-654d-4617-9465-5043422e6b69,rev?*%
%TF.SameCoordinates,Original*%
%TF.FileFunction,Drillmap*%
%TF.FilePolarity,Positive*%
%FSLAX45Y45*%
G04 Gerber Fmt 4.5, Leading zero omitted, Abs format (unit mm)*
G04 Created by KiCad (PCBNEW 9.0.2) date 2025-06-24 11:01:34*
%MOMM*%
%LPD*%
G01*
G04 APERTURE LIST*
%ADD10C,0.050000*%
%ADD11C,0.200000*%
%ADD12C,0.100000*%
%ADD13C,0.210000*%
G04 APERTURE END LIST*
D10*
X9300000Y-11250000D02*
X12125000Y-11250000D01*
X12125000Y-11250000D02*
X12125000Y-5500000D01*
X12125000Y-5500000D02*
X9300000Y-5500000D01*
X9300000Y-11250000D02*
X9300000Y-5500000D01*
D11*
D12*
X9850000Y-5900000D02*
X9950000Y-6000000D01*
X9950000Y-5900000D02*
X9850000Y-6000000D01*
X10350000Y-5900000D02*
X10450000Y-6000000D01*
X10450000Y-5900000D02*
X10350000Y-6000000D01*
D13*
X11005000Y-7150000D02*
G75*
G02*
X10795000Y-7150000I-105000J0D01*
G01*
X10795000Y-7150000D02*
G75*
G02*
X11005000Y-7150000I105000J0D01*
G01*
X11955000Y-5850000D02*
G75*
G02*
X11745000Y-5850000I-105000J0D01*
G01*
X11745000Y-5850000D02*
G75*
G02*
X11955000Y-5850000I105000J0D01*
G01*
X11955000Y-11000000D02*
G75*
G02*
X11745000Y-11000000I-105000J0D01*
G01*
X11745000Y-11000000D02*
G75*
G02*
X11955000Y-11000000I105000J0D01*
G01*
D11*
X9558277Y-11563984D02*
X9558277Y-11363984D01*
X9558277Y-11363984D02*
X9605896Y-11363984D01*
X9605896Y-11363984D02*
X9634467Y-11373508D01*
X9634467Y-11373508D02*
X9653515Y-11392555D01*
X9653515Y-11392555D02*
X9663039Y-11411603D01*
X9663039Y-11411603D02*
X9672563Y-11449698D01*
X9672563Y-11449698D02*
X9672563Y-11478269D01*
X9672563Y-11478269D02*
X9663039Y-11516365D01*
X9663039Y-11516365D02*
X9653515Y-11535412D01*
X9653515Y-11535412D02*
X9634467Y-11554460D01*
X9634467Y-11554460D02*
X9605896Y-11563984D01*
X9605896Y-11563984D02*
X9558277Y-11563984D01*
X9758277Y-11563984D02*
X9758277Y-11430650D01*
X9758277Y-11468746D02*
X9767801Y-11449698D01*
X9767801Y-11449698D02*
X9777324Y-11440174D01*
X9777324Y-11440174D02*
X9796372Y-11430650D01*
X9796372Y-11430650D02*
X9815420Y-11430650D01*
X9882086Y-11563984D02*
X9882086Y-11430650D01*
X9882086Y-11363984D02*
X9872563Y-11373508D01*
X9872563Y-11373508D02*
X9882086Y-11383031D01*
X9882086Y-11383031D02*
X9891610Y-11373508D01*
X9891610Y-11373508D02*
X9882086Y-11363984D01*
X9882086Y-11363984D02*
X9882086Y-11383031D01*
X10005896Y-11563984D02*
X9986848Y-11554460D01*
X9986848Y-11554460D02*
X9977324Y-11535412D01*
X9977324Y-11535412D02*
X9977324Y-11363984D01*
X10110658Y-11563984D02*
X10091610Y-11554460D01*
X10091610Y-11554460D02*
X10082086Y-11535412D01*
X10082086Y-11535412D02*
X10082086Y-11363984D01*
X10339229Y-11563984D02*
X10339229Y-11363984D01*
X10339229Y-11363984D02*
X10405896Y-11506841D01*
X10405896Y-11506841D02*
X10472563Y-11363984D01*
X10472563Y-11363984D02*
X10472563Y-11563984D01*
X10653515Y-11563984D02*
X10653515Y-11459222D01*
X10653515Y-11459222D02*
X10643991Y-11440174D01*
X10643991Y-11440174D02*
X10624944Y-11430650D01*
X10624944Y-11430650D02*
X10586848Y-11430650D01*
X10586848Y-11430650D02*
X10567801Y-11440174D01*
X10653515Y-11554460D02*
X10634467Y-11563984D01*
X10634467Y-11563984D02*
X10586848Y-11563984D01*
X10586848Y-11563984D02*
X10567801Y-11554460D01*
X10567801Y-11554460D02*
X10558277Y-11535412D01*
X10558277Y-11535412D02*
X10558277Y-11516365D01*
X10558277Y-11516365D02*
X10567801Y-11497317D01*
X10567801Y-11497317D02*
X10586848Y-11487793D01*
X10586848Y-11487793D02*
X10634467Y-11487793D01*
X10634467Y-11487793D02*
X10653515Y-11478269D01*
X10748753Y-11430650D02*
X10748753Y-11630650D01*
X10748753Y-11440174D02*
X10767801Y-11430650D01*
X10767801Y-11430650D02*
X10805896Y-11430650D01*
X10805896Y-11430650D02*
X10824944Y-11440174D01*
X10824944Y-11440174D02*
X10834467Y-11449698D01*
X10834467Y-11449698D02*
X10843991Y-11468746D01*
X10843991Y-11468746D02*
X10843991Y-11525888D01*
X10843991Y-11525888D02*
X10834467Y-11544936D01*
X10834467Y-11544936D02*
X10824944Y-11554460D01*
X10824944Y-11554460D02*
X10805896Y-11563984D01*
X10805896Y-11563984D02*
X10767801Y-11563984D01*
X10767801Y-11563984D02*
X10748753Y-11554460D01*
X10929705Y-11544936D02*
X10939229Y-11554460D01*
X10939229Y-11554460D02*
X10929705Y-11563984D01*
X10929705Y-11563984D02*
X10920182Y-11554460D01*
X10920182Y-11554460D02*
X10929705Y-11544936D01*
X10929705Y-11544936D02*
X10929705Y-11563984D01*
X10929705Y-11440174D02*
X10939229Y-11449698D01*
X10939229Y-11449698D02*
X10929705Y-11459222D01*
X10929705Y-11459222D02*
X10920182Y-11449698D01*
X10920182Y-11449698D02*
X10929705Y-11440174D01*
X10929705Y-11440174D02*
X10929705Y-11459222D01*
D12*
X9197500Y-11842500D02*
X9297500Y-11942500D01*
X9297500Y-11842500D02*
X9197500Y-11942500D01*
D11*
X9663039Y-11983984D02*
X9548753Y-11983984D01*
X9605896Y-11983984D02*
X9605896Y-11783984D01*
X9605896Y-11783984D02*
X9586848Y-11812555D01*
X9586848Y-11812555D02*
X9567801Y-11831603D01*
X9567801Y-11831603D02*
X9548753Y-11841127D01*
X9748753Y-11964936D02*
X9758277Y-11974460D01*
X9758277Y-11974460D02*
X9748753Y-11983984D01*
X9748753Y-11983984D02*
X9739229Y-11974460D01*
X9739229Y-11974460D02*
X9748753Y-11964936D01*
X9748753Y-11964936D02*
X9748753Y-11983984D01*
X9882086Y-11783984D02*
X9901134Y-11783984D01*
X9901134Y-11783984D02*
X9920182Y-11793508D01*
X9920182Y-11793508D02*
X9929705Y-11803031D01*
X9929705Y-11803031D02*
X9939229Y-11822079D01*
X9939229Y-11822079D02*
X9948753Y-11860174D01*
X9948753Y-11860174D02*
X9948753Y-11907793D01*
X9948753Y-11907793D02*
X9939229Y-11945888D01*
X9939229Y-11945888D02*
X9929705Y-11964936D01*
X9929705Y-11964936D02*
X9920182Y-11974460D01*
X9920182Y-11974460D02*
X9901134Y-11983984D01*
X9901134Y-11983984D02*
X9882086Y-11983984D01*
X9882086Y-11983984D02*
X9863039Y-11974460D01*
X9863039Y-11974460D02*
X9853515Y-11964936D01*
X9853515Y-11964936D02*
X9843991Y-11945888D01*
X9843991Y-11945888D02*
X9834467Y-11907793D01*
X9834467Y-11907793D02*
X9834467Y-11860174D01*
X9834467Y-11860174D02*
X9843991Y-11822079D01*
X9843991Y-11822079D02*
X9853515Y-11803031D01*
X9853515Y-11803031D02*
X9863039Y-11793508D01*
X9863039Y-11793508D02*
X9882086Y-11783984D01*
X10072563Y-11783984D02*
X10091610Y-11783984D01*
X10091610Y-11783984D02*
X10110658Y-11793508D01*
X10110658Y-11793508D02*
X10120182Y-11803031D01*
X10120182Y-11803031D02*
X10129705Y-11822079D01*
X10129705Y-11822079D02*
X10139229Y-11860174D01*
X10139229Y-11860174D02*
X10139229Y-11907793D01*
X10139229Y-11907793D02*
X10129705Y-11945888D01*
X10129705Y-11945888D02*
X10120182Y-11964936D01*
X10120182Y-11964936D02*
X10110658Y-11974460D01*
X10110658Y-11974460D02*
X10091610Y-11983984D01*
X10091610Y-11983984D02*
X10072563Y-11983984D01*
X10072563Y-11983984D02*
X10053515Y-11974460D01*
X10053515Y-11974460D02*
X10043991Y-11964936D01*
X10043991Y-11964936D02*
X10034467Y-11945888D01*
X10034467Y-11945888D02*
X10024944Y-11907793D01*
X10024944Y-11907793D02*
X10024944Y-11860174D01*
X10024944Y-11860174D02*
X10034467Y-11822079D01*
X10034467Y-11822079D02*
X10043991Y-11803031D01*
X10043991Y-11803031D02*
X10053515Y-11793508D01*
X10053515Y-11793508D02*
X10072563Y-11783984D01*
X10263039Y-11783984D02*
X10282086Y-11783984D01*
X10282086Y-11783984D02*
X10301134Y-11793508D01*
X10301134Y-11793508D02*
X10310658Y-11803031D01*
X10310658Y-11803031D02*
X10320182Y-11822079D01*
X10320182Y-11822079D02*
X10329705Y-11860174D01*
X10329705Y-11860174D02*
X10329705Y-11907793D01*
X10329705Y-11907793D02*
X10320182Y-11945888D01*
X10320182Y-11945888D02*
X10310658Y-11964936D01*
X10310658Y-11964936D02*
X10301134Y-11974460D01*
X10301134Y-11974460D02*
X10282086Y-11983984D01*
X10282086Y-11983984D02*
X10263039Y-11983984D01*
X10263039Y-11983984D02*
X10243991Y-11974460D01*
X10243991Y-11974460D02*
X10234467Y-11964936D01*
X10234467Y-11964936D02*
X10224944Y-11945888D01*
X10224944Y-11945888D02*
X10215420Y-11907793D01*
X10215420Y-11907793D02*
X10215420Y-11860174D01*
X10215420Y-11860174D02*
X10224944Y-11822079D01*
X10224944Y-11822079D02*
X10234467Y-11803031D01*
X10234467Y-11803031D02*
X10243991Y-11793508D01*
X10243991Y-11793508D02*
X10263039Y-11783984D01*
X10415420Y-11983984D02*
X10415420Y-11850650D01*
X10415420Y-11869698D02*
X10424944Y-11860174D01*
X10424944Y-11860174D02*
X10443991Y-11850650D01*
X10443991Y-11850650D02*
X10472563Y-11850650D01*
X10472563Y-11850650D02*
X10491610Y-11860174D01*
X10491610Y-11860174D02*
X10501134Y-11879222D01*
X10501134Y-11879222D02*
X10501134Y-11983984D01*
X10501134Y-11879222D02*
X10510658Y-11860174D01*
X10510658Y-11860174D02*
X10529705Y-11850650D01*
X10529705Y-11850650D02*
X10558277Y-11850650D01*
X10558277Y-11850650D02*
X10577325Y-11860174D01*
X10577325Y-11860174D02*
X10586848Y-11879222D01*
X10586848Y-11879222D02*
X10586848Y-11983984D01*
X10682086Y-11983984D02*
X10682086Y-11850650D01*
X10682086Y-11869698D02*
X10691610Y-11860174D01*
X10691610Y-11860174D02*
X10710658Y-11850650D01*
X10710658Y-11850650D02*
X10739229Y-11850650D01*
X10739229Y-11850650D02*
X10758277Y-11860174D01*
X10758277Y-11860174D02*
X10767801Y-11879222D01*
X10767801Y-11879222D02*
X10767801Y-11983984D01*
X10767801Y-11879222D02*
X10777325Y-11860174D01*
X10777325Y-11860174D02*
X10796372Y-11850650D01*
X10796372Y-11850650D02*
X10824944Y-11850650D01*
X10824944Y-11850650D02*
X10843991Y-11860174D01*
X10843991Y-11860174D02*
X10853515Y-11879222D01*
X10853515Y-11879222D02*
X10853515Y-11983984D01*
X11243991Y-11774460D02*
X11072563Y-12031603D01*
X11501134Y-11783984D02*
X11520182Y-11783984D01*
X11520182Y-11783984D02*
X11539229Y-11793508D01*
X11539229Y-11793508D02*
X11548753Y-11803031D01*
X11548753Y-11803031D02*
X11558277Y-11822079D01*
X11558277Y-11822079D02*
X11567801Y-11860174D01*
X11567801Y-11860174D02*
X11567801Y-11907793D01*
X11567801Y-11907793D02*
X11558277Y-11945888D01*
X11558277Y-11945888D02*
X11548753Y-11964936D01*
X11548753Y-11964936D02*
X11539229Y-11974460D01*
X11539229Y-11974460D02*
X11520182Y-11983984D01*
X11520182Y-11983984D02*
X11501134Y-11983984D01*
X11501134Y-11983984D02*
X11482086Y-11974460D01*
X11482086Y-11974460D02*
X11472563Y-11964936D01*
X11472563Y-11964936D02*
X11463039Y-11945888D01*
X11463039Y-11945888D02*
X11453515Y-11907793D01*
X11453515Y-11907793D02*
X11453515Y-11860174D01*
X11453515Y-11860174D02*
X11463039Y-11822079D01*
X11463039Y-11822079D02*
X11472563Y-11803031D01*
X11472563Y-11803031D02*
X11482086Y-11793508D01*
X11482086Y-11793508D02*
X11501134Y-11783984D01*
X11653515Y-11964936D02*
X11663039Y-11974460D01*
X11663039Y-11974460D02*
X11653515Y-11983984D01*
X11653515Y-11983984D02*
X11643991Y-11974460D01*
X11643991Y-11974460D02*
X11653515Y-11964936D01*
X11653515Y-11964936D02*
X11653515Y-11983984D01*
X11786848Y-11783984D02*
X11805896Y-11783984D01*
X11805896Y-11783984D02*
X11824944Y-11793508D01*
X11824944Y-11793508D02*
X11834467Y-11803031D01*
X11834467Y-11803031D02*
X11843991Y-11822079D01*
X11843991Y-11822079D02*
X11853515Y-11860174D01*
X11853515Y-11860174D02*
X11853515Y-11907793D01*
X11853515Y-11907793D02*
X11843991Y-11945888D01*
X11843991Y-11945888D02*
X11834467Y-11964936D01*
X11834467Y-11964936D02*
X11824944Y-11974460D01*
X11824944Y-11974460D02*
X11805896Y-11983984D01*
X11805896Y-11983984D02*
X11786848Y-11983984D01*
X11786848Y-11983984D02*
X11767801Y-11974460D01*
X11767801Y-11974460D02*
X11758277Y-11964936D01*
X11758277Y-11964936D02*
X11748753Y-11945888D01*
X11748753Y-11945888D02*
X11739229Y-11907793D01*
X11739229Y-11907793D02*
X11739229Y-11860174D01*
X11739229Y-11860174D02*
X11748753Y-11822079D01*
X11748753Y-11822079D02*
X11758277Y-11803031D01*
X11758277Y-11803031D02*
X11767801Y-11793508D01*
X11767801Y-11793508D02*
X11786848Y-11783984D01*
X11920182Y-11783984D02*
X12043991Y-11783984D01*
X12043991Y-11783984D02*
X11977325Y-11860174D01*
X11977325Y-11860174D02*
X12005896Y-11860174D01*
X12005896Y-11860174D02*
X12024944Y-11869698D01*
X12024944Y-11869698D02*
X12034467Y-11879222D01*
X12034467Y-11879222D02*
X12043991Y-11898269D01*
X12043991Y-11898269D02*
X12043991Y-11945888D01*
X12043991Y-11945888D02*
X12034467Y-11964936D01*
X12034467Y-11964936D02*
X12024944Y-11974460D01*
X12024944Y-11974460D02*
X12005896Y-11983984D01*
X12005896Y-11983984D02*
X11948753Y-11983984D01*
X11948753Y-11983984D02*
X11929706Y-11974460D01*
X11929706Y-11974460D02*
X11920182Y-11964936D01*
X12139229Y-11983984D02*
X12177325Y-11983984D01*
X12177325Y-11983984D02*
X12196372Y-11974460D01*
X12196372Y-11974460D02*
X12205896Y-11964936D01*
X12205896Y-11964936D02*
X12224944Y-11936365D01*
X12224944Y-11936365D02*
X12234467Y-11898269D01*
X12234467Y-11898269D02*
X12234467Y-11822079D01*
X12234467Y-11822079D02*
X12224944Y-11803031D01*
X12224944Y-11803031D02*
X12215420Y-11793508D01*
X12215420Y-11793508D02*
X12196372Y-11783984D01*
X12196372Y-11783984D02*
X12158277Y-11783984D01*
X12158277Y-11783984D02*
X12139229Y-11793508D01*
X12139229Y-11793508D02*
X12129706Y-11803031D01*
X12129706Y-11803031D02*
X12120182Y-11822079D01*
X12120182Y-11822079D02*
X12120182Y-11869698D01*
X12120182Y-11869698D02*
X12129706Y-11888746D01*
X12129706Y-11888746D02*
X12139229Y-11898269D01*
X12139229Y-11898269D02*
X12158277Y-11907793D01*
X12158277Y-11907793D02*
X12196372Y-11907793D01*
X12196372Y-11907793D02*
X12215420Y-11898269D01*
X12215420Y-11898269D02*
X12224944Y-11888746D01*
X12224944Y-11888746D02*
X12234467Y-11869698D01*
X12405896Y-11850650D02*
X12405896Y-11983984D01*
X12358277Y-11774460D02*
X12310658Y-11917317D01*
X12310658Y-11917317D02*
X12434467Y-11917317D01*
X12501134Y-11783984D02*
X12501134Y-11822079D01*
X12577325Y-11783984D02*
X12577325Y-11822079D01*
X12872563Y-12060174D02*
X12863039Y-12050650D01*
X12863039Y-12050650D02*
X12843991Y-12022079D01*
X12843991Y-12022079D02*
X12834468Y-12003031D01*
X12834468Y-12003031D02*
X12824944Y-11974460D01*
X12824944Y-11974460D02*
X12815420Y-11926841D01*
X12815420Y-11926841D02*
X12815420Y-11888746D01*
X12815420Y-11888746D02*
X12824944Y-11841127D01*
X12824944Y-11841127D02*
X12834468Y-11812555D01*
X12834468Y-11812555D02*
X12843991Y-11793508D01*
X12843991Y-11793508D02*
X12863039Y-11764936D01*
X12863039Y-11764936D02*
X12872563Y-11755412D01*
X12939229Y-11803031D02*
X12948753Y-11793508D01*
X12948753Y-11793508D02*
X12967801Y-11783984D01*
X12967801Y-11783984D02*
X13015420Y-11783984D01*
X13015420Y-11783984D02*
X13034468Y-11793508D01*
X13034468Y-11793508D02*
X13043991Y-11803031D01*
X13043991Y-11803031D02*
X13053515Y-11822079D01*
X13053515Y-11822079D02*
X13053515Y-11841127D01*
X13053515Y-11841127D02*
X13043991Y-11869698D01*
X13043991Y-11869698D02*
X12929706Y-11983984D01*
X12929706Y-11983984D02*
X13053515Y-11983984D01*
X13291610Y-11983984D02*
X13291610Y-11783984D01*
X13377325Y-11983984D02*
X13377325Y-11879222D01*
X13377325Y-11879222D02*
X13367801Y-11860174D01*
X13367801Y-11860174D02*
X13348753Y-11850650D01*
X13348753Y-11850650D02*
X13320182Y-11850650D01*
X13320182Y-11850650D02*
X13301134Y-11860174D01*
X13301134Y-11860174D02*
X13291610Y-11869698D01*
X13501134Y-11983984D02*
X13482087Y-11974460D01*
X13482087Y-11974460D02*
X13472563Y-11964936D01*
X13472563Y-11964936D02*
X13463039Y-11945888D01*
X13463039Y-11945888D02*
X13463039Y-11888746D01*
X13463039Y-11888746D02*
X13472563Y-11869698D01*
X13472563Y-11869698D02*
X13482087Y-11860174D01*
X13482087Y-11860174D02*
X13501134Y-11850650D01*
X13501134Y-11850650D02*
X13529706Y-11850650D01*
X13529706Y-11850650D02*
X13548753Y-11860174D01*
X13548753Y-11860174D02*
X13558277Y-11869698D01*
X13558277Y-11869698D02*
X13567801Y-11888746D01*
X13567801Y-11888746D02*
X13567801Y-11945888D01*
X13567801Y-11945888D02*
X13558277Y-11964936D01*
X13558277Y-11964936D02*
X13548753Y-11974460D01*
X13548753Y-11974460D02*
X13529706Y-11983984D01*
X13529706Y-11983984D02*
X13501134Y-11983984D01*
X13682087Y-11983984D02*
X13663039Y-11974460D01*
X13663039Y-11974460D02*
X13653515Y-11955412D01*
X13653515Y-11955412D02*
X13653515Y-11783984D01*
X13834468Y-11974460D02*
X13815420Y-11983984D01*
X13815420Y-11983984D02*
X13777325Y-11983984D01*
X13777325Y-11983984D02*
X13758277Y-11974460D01*
X13758277Y-11974460D02*
X13748753Y-11955412D01*
X13748753Y-11955412D02*
X13748753Y-11879222D01*
X13748753Y-11879222D02*
X13758277Y-11860174D01*
X13758277Y-11860174D02*
X13777325Y-11850650D01*
X13777325Y-11850650D02*
X13815420Y-11850650D01*
X13815420Y-11850650D02*
X13834468Y-11860174D01*
X13834468Y-11860174D02*
X13843991Y-11879222D01*
X13843991Y-11879222D02*
X13843991Y-11898269D01*
X13843991Y-11898269D02*
X13748753Y-11917317D01*
X13920182Y-11974460D02*
X13939230Y-11983984D01*
X13939230Y-11983984D02*
X13977325Y-11983984D01*
X13977325Y-11983984D02*
X13996372Y-11974460D01*
X13996372Y-11974460D02*
X14005896Y-11955412D01*
X14005896Y-11955412D02*
X14005896Y-11945888D01*
X14005896Y-11945888D02*
X13996372Y-11926841D01*
X13996372Y-11926841D02*
X13977325Y-11917317D01*
X13977325Y-11917317D02*
X13948753Y-11917317D01*
X13948753Y-11917317D02*
X13929706Y-11907793D01*
X13929706Y-11907793D02*
X13920182Y-11888746D01*
X13920182Y-11888746D02*
X13920182Y-11879222D01*
X13920182Y-11879222D02*
X13929706Y-11860174D01*
X13929706Y-11860174D02*
X13948753Y-11850650D01*
X13948753Y-11850650D02*
X13977325Y-11850650D01*
X13977325Y-11850650D02*
X13996372Y-11860174D01*
X14072563Y-12060174D02*
X14082087Y-12050650D01*
X14082087Y-12050650D02*
X14101134Y-12022079D01*
X14101134Y-12022079D02*
X14110658Y-12003031D01*
X14110658Y-12003031D02*
X14120182Y-11974460D01*
X14120182Y-11974460D02*
X14129706Y-11926841D01*
X14129706Y-11926841D02*
X14129706Y-11888746D01*
X14129706Y-11888746D02*
X14120182Y-11841127D01*
X14120182Y-11841127D02*
X14110658Y-11812555D01*
X14110658Y-11812555D02*
X14101134Y-11793508D01*
X14101134Y-11793508D02*
X14082087Y-11764936D01*
X14082087Y-11764936D02*
X14072563Y-11755412D01*
X14434468Y-12060174D02*
X14424944Y-12050650D01*
X14424944Y-12050650D02*
X14405896Y-12022079D01*
X14405896Y-12022079D02*
X14396372Y-12003031D01*
X14396372Y-12003031D02*
X14386849Y-11974460D01*
X14386849Y-11974460D02*
X14377325Y-11926841D01*
X14377325Y-11926841D02*
X14377325Y-11888746D01*
X14377325Y-11888746D02*
X14386849Y-11841127D01*
X14386849Y-11841127D02*
X14396372Y-11812555D01*
X14396372Y-11812555D02*
X14405896Y-11793508D01*
X14405896Y-11793508D02*
X14424944Y-11764936D01*
X14424944Y-11764936D02*
X14434468Y-11755412D01*
X14510658Y-11850650D02*
X14510658Y-11983984D01*
X14510658Y-11869698D02*
X14520182Y-11860174D01*
X14520182Y-11860174D02*
X14539230Y-11850650D01*
X14539230Y-11850650D02*
X14567801Y-11850650D01*
X14567801Y-11850650D02*
X14586849Y-11860174D01*
X14586849Y-11860174D02*
X14596372Y-11879222D01*
X14596372Y-11879222D02*
X14596372Y-11983984D01*
X14720182Y-11983984D02*
X14701134Y-11974460D01*
X14701134Y-11974460D02*
X14691611Y-11964936D01*
X14691611Y-11964936D02*
X14682087Y-11945888D01*
X14682087Y-11945888D02*
X14682087Y-11888746D01*
X14682087Y-11888746D02*
X14691611Y-11869698D01*
X14691611Y-11869698D02*
X14701134Y-11860174D01*
X14701134Y-11860174D02*
X14720182Y-11850650D01*
X14720182Y-11850650D02*
X14748753Y-11850650D01*
X14748753Y-11850650D02*
X14767801Y-11860174D01*
X14767801Y-11860174D02*
X14777325Y-11869698D01*
X14777325Y-11869698D02*
X14786849Y-11888746D01*
X14786849Y-11888746D02*
X14786849Y-11945888D01*
X14786849Y-11945888D02*
X14777325Y-11964936D01*
X14777325Y-11964936D02*
X14767801Y-11974460D01*
X14767801Y-11974460D02*
X14748753Y-11983984D01*
X14748753Y-11983984D02*
X14720182Y-11983984D01*
X14843992Y-11850650D02*
X14920182Y-11850650D01*
X14872563Y-11783984D02*
X14872563Y-11955412D01*
X14872563Y-11955412D02*
X14882087Y-11974460D01*
X14882087Y-11974460D02*
X14901134Y-11983984D01*
X14901134Y-11983984D02*
X14920182Y-11983984D01*
X15139230Y-11850650D02*
X15139230Y-12050650D01*
X15139230Y-11860174D02*
X15158277Y-11850650D01*
X15158277Y-11850650D02*
X15196373Y-11850650D01*
X15196373Y-11850650D02*
X15215420Y-11860174D01*
X15215420Y-11860174D02*
X15224944Y-11869698D01*
X15224944Y-11869698D02*
X15234468Y-11888746D01*
X15234468Y-11888746D02*
X15234468Y-11945888D01*
X15234468Y-11945888D02*
X15224944Y-11964936D01*
X15224944Y-11964936D02*
X15215420Y-11974460D01*
X15215420Y-11974460D02*
X15196373Y-11983984D01*
X15196373Y-11983984D02*
X15158277Y-11983984D01*
X15158277Y-11983984D02*
X15139230Y-11974460D01*
X15348753Y-11983984D02*
X15329706Y-11974460D01*
X15329706Y-11974460D02*
X15320182Y-11955412D01*
X15320182Y-11955412D02*
X15320182Y-11783984D01*
X15510658Y-11983984D02*
X15510658Y-11879222D01*
X15510658Y-11879222D02*
X15501134Y-11860174D01*
X15501134Y-11860174D02*
X15482087Y-11850650D01*
X15482087Y-11850650D02*
X15443992Y-11850650D01*
X15443992Y-11850650D02*
X15424944Y-11860174D01*
X15510658Y-11974460D02*
X15491611Y-11983984D01*
X15491611Y-11983984D02*
X15443992Y-11983984D01*
X15443992Y-11983984D02*
X15424944Y-11974460D01*
X15424944Y-11974460D02*
X15415420Y-11955412D01*
X15415420Y-11955412D02*
X15415420Y-11936365D01*
X15415420Y-11936365D02*
X15424944Y-11917317D01*
X15424944Y-11917317D02*
X15443992Y-11907793D01*
X15443992Y-11907793D02*
X15491611Y-11907793D01*
X15491611Y-11907793D02*
X15510658Y-11898269D01*
X15577325Y-11850650D02*
X15653515Y-11850650D01*
X15605896Y-11783984D02*
X15605896Y-11955412D01*
X15605896Y-11955412D02*
X15615420Y-11974460D01*
X15615420Y-11974460D02*
X15634468Y-11983984D01*
X15634468Y-11983984D02*
X15653515Y-11983984D01*
X15796373Y-11974460D02*
X15777325Y-11983984D01*
X15777325Y-11983984D02*
X15739230Y-11983984D01*
X15739230Y-11983984D02*
X15720182Y-11974460D01*
X15720182Y-11974460D02*
X15710658Y-11955412D01*
X15710658Y-11955412D02*
X15710658Y-11879222D01*
X15710658Y-11879222D02*
X15720182Y-11860174D01*
X15720182Y-11860174D02*
X15739230Y-11850650D01*
X15739230Y-11850650D02*
X15777325Y-11850650D01*
X15777325Y-11850650D02*
X15796373Y-11860174D01*
X15796373Y-11860174D02*
X15805896Y-11879222D01*
X15805896Y-11879222D02*
X15805896Y-11898269D01*
X15805896Y-11898269D02*
X15710658Y-11917317D01*
X15977325Y-11983984D02*
X15977325Y-11783984D01*
X15977325Y-11974460D02*
X15958277Y-11983984D01*
X15958277Y-11983984D02*
X15920182Y-11983984D01*
X15920182Y-11983984D02*
X15901134Y-11974460D01*
X15901134Y-11974460D02*
X15891611Y-11964936D01*
X15891611Y-11964936D02*
X15882087Y-11945888D01*
X15882087Y-11945888D02*
X15882087Y-11888746D01*
X15882087Y-11888746D02*
X15891611Y-11869698D01*
X15891611Y-11869698D02*
X15901134Y-11860174D01*
X15901134Y-11860174D02*
X15920182Y-11850650D01*
X15920182Y-11850650D02*
X15958277Y-11850650D01*
X15958277Y-11850650D02*
X15977325Y-11860174D01*
X16053515Y-12060174D02*
X16063039Y-12050650D01*
X16063039Y-12050650D02*
X16082087Y-12022079D01*
X16082087Y-12022079D02*
X16091611Y-12003031D01*
X16091611Y-12003031D02*
X16101134Y-11974460D01*
X16101134Y-11974460D02*
X16110658Y-11926841D01*
X16110658Y-11926841D02*
X16110658Y-11888746D01*
X16110658Y-11888746D02*
X16101134Y-11841127D01*
X16101134Y-11841127D02*
X16091611Y-11812555D01*
X16091611Y-11812555D02*
X16082087Y-11793508D01*
X16082087Y-11793508D02*
X16063039Y-11764936D01*
X16063039Y-11764936D02*
X16053515Y-11755412D01*
X9297500Y-12156500D02*
G75*
G02*
X9097500Y-12156500I-100000J0D01*
G01*
X9097500Y-12156500D02*
G75*
G02*
X9297500Y-12156500I100000J0D01*
G01*
X9548753Y-12067031D02*
X9558277Y-12057508D01*
X9558277Y-12057508D02*
X9577324Y-12047984D01*
X9577324Y-12047984D02*
X9624944Y-12047984D01*
X9624944Y-12047984D02*
X9643991Y-12057508D01*
X9643991Y-12057508D02*
X9653515Y-12067031D01*
X9653515Y-12067031D02*
X9663039Y-12086079D01*
X9663039Y-12086079D02*
X9663039Y-12105127D01*
X9663039Y-12105127D02*
X9653515Y-12133698D01*
X9653515Y-12133698D02*
X9539229Y-12247984D01*
X9539229Y-12247984D02*
X9663039Y-12247984D01*
X9748753Y-12228936D02*
X9758277Y-12238460D01*
X9758277Y-12238460D02*
X9748753Y-12247984D01*
X9748753Y-12247984D02*
X9739229Y-12238460D01*
X9739229Y-12238460D02*
X9748753Y-12228936D01*
X9748753Y-12228936D02*
X9748753Y-12247984D01*
X9948753Y-12247984D02*
X9834467Y-12247984D01*
X9891610Y-12247984D02*
X9891610Y-12047984D01*
X9891610Y-12047984D02*
X9872563Y-12076555D01*
X9872563Y-12076555D02*
X9853515Y-12095603D01*
X9853515Y-12095603D02*
X9834467Y-12105127D01*
X10072563Y-12047984D02*
X10091610Y-12047984D01*
X10091610Y-12047984D02*
X10110658Y-12057508D01*
X10110658Y-12057508D02*
X10120182Y-12067031D01*
X10120182Y-12067031D02*
X10129705Y-12086079D01*
X10129705Y-12086079D02*
X10139229Y-12124174D01*
X10139229Y-12124174D02*
X10139229Y-12171793D01*
X10139229Y-12171793D02*
X10129705Y-12209888D01*
X10129705Y-12209888D02*
X10120182Y-12228936D01*
X10120182Y-12228936D02*
X10110658Y-12238460D01*
X10110658Y-12238460D02*
X10091610Y-12247984D01*
X10091610Y-12247984D02*
X10072563Y-12247984D01*
X10072563Y-12247984D02*
X10053515Y-12238460D01*
X10053515Y-12238460D02*
X10043991Y-12228936D01*
X10043991Y-12228936D02*
X10034467Y-12209888D01*
X10034467Y-12209888D02*
X10024944Y-12171793D01*
X10024944Y-12171793D02*
X10024944Y-12124174D01*
X10024944Y-12124174D02*
X10034467Y-12086079D01*
X10034467Y-12086079D02*
X10043991Y-12067031D01*
X10043991Y-12067031D02*
X10053515Y-12057508D01*
X10053515Y-12057508D02*
X10072563Y-12047984D01*
X10263039Y-12047984D02*
X10282086Y-12047984D01*
X10282086Y-12047984D02*
X10301134Y-12057508D01*
X10301134Y-12057508D02*
X10310658Y-12067031D01*
X10310658Y-12067031D02*
X10320182Y-12086079D01*
X10320182Y-12086079D02*
X10329705Y-12124174D01*
X10329705Y-12124174D02*
X10329705Y-12171793D01*
X10329705Y-12171793D02*
X10320182Y-12209888D01*
X10320182Y-12209888D02*
X10310658Y-12228936D01*
X10310658Y-12228936D02*
X10301134Y-12238460D01*
X10301134Y-12238460D02*
X10282086Y-12247984D01*
X10282086Y-12247984D02*
X10263039Y-12247984D01*
X10263039Y-12247984D02*
X10243991Y-12238460D01*
X10243991Y-12238460D02*
X10234467Y-12228936D01*
X10234467Y-12228936D02*
X10224944Y-12209888D01*
X10224944Y-12209888D02*
X10215420Y-12171793D01*
X10215420Y-12171793D02*
X10215420Y-12124174D01*
X10215420Y-12124174D02*
X10224944Y-12086079D01*
X10224944Y-12086079D02*
X10234467Y-12067031D01*
X10234467Y-12067031D02*
X10243991Y-12057508D01*
X10243991Y-12057508D02*
X10263039Y-12047984D01*
X10415420Y-12247984D02*
X10415420Y-12114650D01*
X10415420Y-12133698D02*
X10424944Y-12124174D01*
X10424944Y-12124174D02*
X10443991Y-12114650D01*
X10443991Y-12114650D02*
X10472563Y-12114650D01*
X10472563Y-12114650D02*
X10491610Y-12124174D01*
X10491610Y-12124174D02*
X10501134Y-12143222D01*
X10501134Y-12143222D02*
X10501134Y-12247984D01*
X10501134Y-12143222D02*
X10510658Y-12124174D01*
X10510658Y-12124174D02*
X10529705Y-12114650D01*
X10529705Y-12114650D02*
X10558277Y-12114650D01*
X10558277Y-12114650D02*
X10577325Y-12124174D01*
X10577325Y-12124174D02*
X10586848Y-12143222D01*
X10586848Y-12143222D02*
X10586848Y-12247984D01*
X10682086Y-12247984D02*
X10682086Y-12114650D01*
X10682086Y-12133698D02*
X10691610Y-12124174D01*
X10691610Y-12124174D02*
X10710658Y-12114650D01*
X10710658Y-12114650D02*
X10739229Y-12114650D01*
X10739229Y-12114650D02*
X10758277Y-12124174D01*
X10758277Y-12124174D02*
X10767801Y-12143222D01*
X10767801Y-12143222D02*
X10767801Y-12247984D01*
X10767801Y-12143222D02*
X10777325Y-12124174D01*
X10777325Y-12124174D02*
X10796372Y-12114650D01*
X10796372Y-12114650D02*
X10824944Y-12114650D01*
X10824944Y-12114650D02*
X10843991Y-12124174D01*
X10843991Y-12124174D02*
X10853515Y-12143222D01*
X10853515Y-12143222D02*
X10853515Y-12247984D01*
X11243991Y-12038460D02*
X11072563Y-12295603D01*
X11501134Y-12047984D02*
X11520182Y-12047984D01*
X11520182Y-12047984D02*
X11539229Y-12057508D01*
X11539229Y-12057508D02*
X11548753Y-12067031D01*
X11548753Y-12067031D02*
X11558277Y-12086079D01*
X11558277Y-12086079D02*
X11567801Y-12124174D01*
X11567801Y-12124174D02*
X11567801Y-12171793D01*
X11567801Y-12171793D02*
X11558277Y-12209888D01*
X11558277Y-12209888D02*
X11548753Y-12228936D01*
X11548753Y-12228936D02*
X11539229Y-12238460D01*
X11539229Y-12238460D02*
X11520182Y-12247984D01*
X11520182Y-12247984D02*
X11501134Y-12247984D01*
X11501134Y-12247984D02*
X11482086Y-12238460D01*
X11482086Y-12238460D02*
X11472563Y-12228936D01*
X11472563Y-12228936D02*
X11463039Y-12209888D01*
X11463039Y-12209888D02*
X11453515Y-12171793D01*
X11453515Y-12171793D02*
X11453515Y-12124174D01*
X11453515Y-12124174D02*
X11463039Y-12086079D01*
X11463039Y-12086079D02*
X11472563Y-12067031D01*
X11472563Y-12067031D02*
X11482086Y-12057508D01*
X11482086Y-12057508D02*
X11501134Y-12047984D01*
X11653515Y-12228936D02*
X11663039Y-12238460D01*
X11663039Y-12238460D02*
X11653515Y-12247984D01*
X11653515Y-12247984D02*
X11643991Y-12238460D01*
X11643991Y-12238460D02*
X11653515Y-12228936D01*
X11653515Y-12228936D02*
X11653515Y-12247984D01*
X11786848Y-12047984D02*
X11805896Y-12047984D01*
X11805896Y-12047984D02*
X11824944Y-12057508D01*
X11824944Y-12057508D02*
X11834467Y-12067031D01*
X11834467Y-12067031D02*
X11843991Y-12086079D01*
X11843991Y-12086079D02*
X11853515Y-12124174D01*
X11853515Y-12124174D02*
X11853515Y-12171793D01*
X11853515Y-12171793D02*
X11843991Y-12209888D01*
X11843991Y-12209888D02*
X11834467Y-12228936D01*
X11834467Y-12228936D02*
X11824944Y-12238460D01*
X11824944Y-12238460D02*
X11805896Y-12247984D01*
X11805896Y-12247984D02*
X11786848Y-12247984D01*
X11786848Y-12247984D02*
X11767801Y-12238460D01*
X11767801Y-12238460D02*
X11758277Y-12228936D01*
X11758277Y-12228936D02*
X11748753Y-12209888D01*
X11748753Y-12209888D02*
X11739229Y-12171793D01*
X11739229Y-12171793D02*
X11739229Y-12124174D01*
X11739229Y-12124174D02*
X11748753Y-12086079D01*
X11748753Y-12086079D02*
X11758277Y-12067031D01*
X11758277Y-12067031D02*
X11767801Y-12057508D01*
X11767801Y-12057508D02*
X11786848Y-12047984D01*
X11967801Y-12133698D02*
X11948753Y-12124174D01*
X11948753Y-12124174D02*
X11939229Y-12114650D01*
X11939229Y-12114650D02*
X11929706Y-12095603D01*
X11929706Y-12095603D02*
X11929706Y-12086079D01*
X11929706Y-12086079D02*
X11939229Y-12067031D01*
X11939229Y-12067031D02*
X11948753Y-12057508D01*
X11948753Y-12057508D02*
X11967801Y-12047984D01*
X11967801Y-12047984D02*
X12005896Y-12047984D01*
X12005896Y-12047984D02*
X12024944Y-12057508D01*
X12024944Y-12057508D02*
X12034467Y-12067031D01*
X12034467Y-12067031D02*
X12043991Y-12086079D01*
X12043991Y-12086079D02*
X12043991Y-12095603D01*
X12043991Y-12095603D02*
X12034467Y-12114650D01*
X12034467Y-12114650D02*
X12024944Y-12124174D01*
X12024944Y-12124174D02*
X12005896Y-12133698D01*
X12005896Y-12133698D02*
X11967801Y-12133698D01*
X11967801Y-12133698D02*
X11948753Y-12143222D01*
X11948753Y-12143222D02*
X11939229Y-12152746D01*
X11939229Y-12152746D02*
X11929706Y-12171793D01*
X11929706Y-12171793D02*
X11929706Y-12209888D01*
X11929706Y-12209888D02*
X11939229Y-12228936D01*
X11939229Y-12228936D02*
X11948753Y-12238460D01*
X11948753Y-12238460D02*
X11967801Y-12247984D01*
X11967801Y-12247984D02*
X12005896Y-12247984D01*
X12005896Y-12247984D02*
X12024944Y-12238460D01*
X12024944Y-12238460D02*
X12034467Y-12228936D01*
X12034467Y-12228936D02*
X12043991Y-12209888D01*
X12043991Y-12209888D02*
X12043991Y-12171793D01*
X12043991Y-12171793D02*
X12034467Y-12152746D01*
X12034467Y-12152746D02*
X12024944Y-12143222D01*
X12024944Y-12143222D02*
X12005896Y-12133698D01*
X12120182Y-12067031D02*
X12129706Y-12057508D01*
X12129706Y-12057508D02*
X12148753Y-12047984D01*
X12148753Y-12047984D02*
X12196372Y-12047984D01*
X12196372Y-12047984D02*
X12215420Y-12057508D01*
X12215420Y-12057508D02*
X12224944Y-12067031D01*
X12224944Y-12067031D02*
X12234467Y-12086079D01*
X12234467Y-12086079D02*
X12234467Y-12105127D01*
X12234467Y-12105127D02*
X12224944Y-12133698D01*
X12224944Y-12133698D02*
X12110658Y-12247984D01*
X12110658Y-12247984D02*
X12234467Y-12247984D01*
X12301134Y-12047984D02*
X12434467Y-12047984D01*
X12434467Y-12047984D02*
X12348753Y-12247984D01*
X12501134Y-12047984D02*
X12501134Y-12086079D01*
X12577325Y-12047984D02*
X12577325Y-12086079D01*
X12872563Y-12324174D02*
X12863039Y-12314650D01*
X12863039Y-12314650D02*
X12843991Y-12286079D01*
X12843991Y-12286079D02*
X12834468Y-12267031D01*
X12834468Y-12267031D02*
X12824944Y-12238460D01*
X12824944Y-12238460D02*
X12815420Y-12190841D01*
X12815420Y-12190841D02*
X12815420Y-12152746D01*
X12815420Y-12152746D02*
X12824944Y-12105127D01*
X12824944Y-12105127D02*
X12834468Y-12076555D01*
X12834468Y-12076555D02*
X12843991Y-12057508D01*
X12843991Y-12057508D02*
X12863039Y-12028936D01*
X12863039Y-12028936D02*
X12872563Y-12019412D01*
X12929706Y-12047984D02*
X13053515Y-12047984D01*
X13053515Y-12047984D02*
X12986848Y-12124174D01*
X12986848Y-12124174D02*
X13015420Y-12124174D01*
X13015420Y-12124174D02*
X13034468Y-12133698D01*
X13034468Y-12133698D02*
X13043991Y-12143222D01*
X13043991Y-12143222D02*
X13053515Y-12162269D01*
X13053515Y-12162269D02*
X13053515Y-12209888D01*
X13053515Y-12209888D02*
X13043991Y-12228936D01*
X13043991Y-12228936D02*
X13034468Y-12238460D01*
X13034468Y-12238460D02*
X13015420Y-12247984D01*
X13015420Y-12247984D02*
X12958277Y-12247984D01*
X12958277Y-12247984D02*
X12939229Y-12238460D01*
X12939229Y-12238460D02*
X12929706Y-12228936D01*
X13291610Y-12247984D02*
X13291610Y-12047984D01*
X13377325Y-12247984D02*
X13377325Y-12143222D01*
X13377325Y-12143222D02*
X13367801Y-12124174D01*
X13367801Y-12124174D02*
X13348753Y-12114650D01*
X13348753Y-12114650D02*
X13320182Y-12114650D01*
X13320182Y-12114650D02*
X13301134Y-12124174D01*
X13301134Y-12124174D02*
X13291610Y-12133698D01*
X13501134Y-12247984D02*
X13482087Y-12238460D01*
X13482087Y-12238460D02*
X13472563Y-12228936D01*
X13472563Y-12228936D02*
X13463039Y-12209888D01*
X13463039Y-12209888D02*
X13463039Y-12152746D01*
X13463039Y-12152746D02*
X13472563Y-12133698D01*
X13472563Y-12133698D02*
X13482087Y-12124174D01*
X13482087Y-12124174D02*
X13501134Y-12114650D01*
X13501134Y-12114650D02*
X13529706Y-12114650D01*
X13529706Y-12114650D02*
X13548753Y-12124174D01*
X13548753Y-12124174D02*
X13558277Y-12133698D01*
X13558277Y-12133698D02*
X13567801Y-12152746D01*
X13567801Y-12152746D02*
X13567801Y-12209888D01*
X13567801Y-12209888D02*
X13558277Y-12228936D01*
X13558277Y-12228936D02*
X13548753Y-12238460D01*
X13548753Y-12238460D02*
X13529706Y-12247984D01*
X13529706Y-12247984D02*
X13501134Y-12247984D01*
X13682087Y-12247984D02*
X13663039Y-12238460D01*
X13663039Y-12238460D02*
X13653515Y-12219412D01*
X13653515Y-12219412D02*
X13653515Y-12047984D01*
X13834468Y-12238460D02*
X13815420Y-12247984D01*
X13815420Y-12247984D02*
X13777325Y-12247984D01*
X13777325Y-12247984D02*
X13758277Y-12238460D01*
X13758277Y-12238460D02*
X13748753Y-12219412D01*
X13748753Y-12219412D02*
X13748753Y-12143222D01*
X13748753Y-12143222D02*
X13758277Y-12124174D01*
X13758277Y-12124174D02*
X13777325Y-12114650D01*
X13777325Y-12114650D02*
X13815420Y-12114650D01*
X13815420Y-12114650D02*
X13834468Y-12124174D01*
X13834468Y-12124174D02*
X13843991Y-12143222D01*
X13843991Y-12143222D02*
X13843991Y-12162269D01*
X13843991Y-12162269D02*
X13748753Y-12181317D01*
X13920182Y-12238460D02*
X13939230Y-12247984D01*
X13939230Y-12247984D02*
X13977325Y-12247984D01*
X13977325Y-12247984D02*
X13996372Y-12238460D01*
X13996372Y-12238460D02*
X14005896Y-12219412D01*
X14005896Y-12219412D02*
X14005896Y-12209888D01*
X14005896Y-12209888D02*
X13996372Y-12190841D01*
X13996372Y-12190841D02*
X13977325Y-12181317D01*
X13977325Y-12181317D02*
X13948753Y-12181317D01*
X13948753Y-12181317D02*
X13929706Y-12171793D01*
X13929706Y-12171793D02*
X13920182Y-12152746D01*
X13920182Y-12152746D02*
X13920182Y-12143222D01*
X13920182Y-12143222D02*
X13929706Y-12124174D01*
X13929706Y-12124174D02*
X13948753Y-12114650D01*
X13948753Y-12114650D02*
X13977325Y-12114650D01*
X13977325Y-12114650D02*
X13996372Y-12124174D01*
X14072563Y-12324174D02*
X14082087Y-12314650D01*
X14082087Y-12314650D02*
X14101134Y-12286079D01*
X14101134Y-12286079D02*
X14110658Y-12267031D01*
X14110658Y-12267031D02*
X14120182Y-12238460D01*
X14120182Y-12238460D02*
X14129706Y-12190841D01*
X14129706Y-12190841D02*
X14129706Y-12152746D01*
X14129706Y-12152746D02*
X14120182Y-12105127D01*
X14120182Y-12105127D02*
X14110658Y-12076555D01*
X14110658Y-12076555D02*
X14101134Y-12057508D01*
X14101134Y-12057508D02*
X14082087Y-12028936D01*
X14082087Y-12028936D02*
X14072563Y-12019412D01*
X14434468Y-12324174D02*
X14424944Y-12314650D01*
X14424944Y-12314650D02*
X14405896Y-12286079D01*
X14405896Y-12286079D02*
X14396372Y-12267031D01*
X14396372Y-12267031D02*
X14386849Y-12238460D01*
X14386849Y-12238460D02*
X14377325Y-12190841D01*
X14377325Y-12190841D02*
X14377325Y-12152746D01*
X14377325Y-12152746D02*
X14386849Y-12105127D01*
X14386849Y-12105127D02*
X14396372Y-12076555D01*
X14396372Y-12076555D02*
X14405896Y-12057508D01*
X14405896Y-12057508D02*
X14424944Y-12028936D01*
X14424944Y-12028936D02*
X14434468Y-12019412D01*
X14510658Y-12114650D02*
X14510658Y-12247984D01*
X14510658Y-12133698D02*
X14520182Y-12124174D01*
X14520182Y-12124174D02*
X14539230Y-12114650D01*
X14539230Y-12114650D02*
X14567801Y-12114650D01*
X14567801Y-12114650D02*
X14586849Y-12124174D01*
X14586849Y-12124174D02*
X14596372Y-12143222D01*
X14596372Y-12143222D02*
X14596372Y-12247984D01*
X14720182Y-12247984D02*
X14701134Y-12238460D01*
X14701134Y-12238460D02*
X14691611Y-12228936D01*
X14691611Y-12228936D02*
X14682087Y-12209888D01*
X14682087Y-12209888D02*
X14682087Y-12152746D01*
X14682087Y-12152746D02*
X14691611Y-12133698D01*
X14691611Y-12133698D02*
X14701134Y-12124174D01*
X14701134Y-12124174D02*
X14720182Y-12114650D01*
X14720182Y-12114650D02*
X14748753Y-12114650D01*
X14748753Y-12114650D02*
X14767801Y-12124174D01*
X14767801Y-12124174D02*
X14777325Y-12133698D01*
X14777325Y-12133698D02*
X14786849Y-12152746D01*
X14786849Y-12152746D02*
X14786849Y-12209888D01*
X14786849Y-12209888D02*
X14777325Y-12228936D01*
X14777325Y-12228936D02*
X14767801Y-12238460D01*
X14767801Y-12238460D02*
X14748753Y-12247984D01*
X14748753Y-12247984D02*
X14720182Y-12247984D01*
X14843992Y-12114650D02*
X14920182Y-12114650D01*
X14872563Y-12047984D02*
X14872563Y-12219412D01*
X14872563Y-12219412D02*
X14882087Y-12238460D01*
X14882087Y-12238460D02*
X14901134Y-12247984D01*
X14901134Y-12247984D02*
X14920182Y-12247984D01*
X15139230Y-12114650D02*
X15139230Y-12314650D01*
X15139230Y-12124174D02*
X15158277Y-12114650D01*
X15158277Y-12114650D02*
X15196373Y-12114650D01*
X15196373Y-12114650D02*
X15215420Y-12124174D01*
X15215420Y-12124174D02*
X15224944Y-12133698D01*
X15224944Y-12133698D02*
X15234468Y-12152746D01*
X15234468Y-12152746D02*
X15234468Y-12209888D01*
X15234468Y-12209888D02*
X15224944Y-12228936D01*
X15224944Y-12228936D02*
X15215420Y-12238460D01*
X15215420Y-12238460D02*
X15196373Y-12247984D01*
X15196373Y-12247984D02*
X15158277Y-12247984D01*
X15158277Y-12247984D02*
X15139230Y-12238460D01*
X15348753Y-12247984D02*
X15329706Y-12238460D01*
X15329706Y-12238460D02*
X15320182Y-12219412D01*
X15320182Y-12219412D02*
X15320182Y-12047984D01*
X15510658Y-12247984D02*
X15510658Y-12143222D01*
X15510658Y-12143222D02*
X15501134Y-12124174D01*
X15501134Y-12124174D02*
X15482087Y-12114650D01*
X15482087Y-12114650D02*
X15443992Y-12114650D01*
X15443992Y-12114650D02*
X15424944Y-12124174D01*
X15510658Y-12238460D02*
X15491611Y-12247984D01*
X15491611Y-12247984D02*
X15443992Y-12247984D01*
X15443992Y-12247984D02*
X15424944Y-12238460D01*
X15424944Y-12238460D02*
X15415420Y-12219412D01*
X15415420Y-12219412D02*
X15415420Y-12200365D01*
X15415420Y-12200365D02*
X15424944Y-12181317D01*
X15424944Y-12181317D02*
X15443992Y-12171793D01*
X15443992Y-12171793D02*
X15491611Y-12171793D01*
X15491611Y-12171793D02*
X15510658Y-12162269D01*
X15577325Y-12114650D02*
X15653515Y-12114650D01*
X15605896Y-12047984D02*
X15605896Y-12219412D01*
X15605896Y-12219412D02*
X15615420Y-12238460D01*
X15615420Y-12238460D02*
X15634468Y-12247984D01*
X15634468Y-12247984D02*
X15653515Y-12247984D01*
X15796373Y-12238460D02*
X15777325Y-12247984D01*
X15777325Y-12247984D02*
X15739230Y-12247984D01*
X15739230Y-12247984D02*
X15720182Y-12238460D01*
X15720182Y-12238460D02*
X15710658Y-12219412D01*
X15710658Y-12219412D02*
X15710658Y-12143222D01*
X15710658Y-12143222D02*
X15720182Y-12124174D01*
X15720182Y-12124174D02*
X15739230Y-12114650D01*
X15739230Y-12114650D02*
X15777325Y-12114650D01*
X15777325Y-12114650D02*
X15796373Y-12124174D01*
X15796373Y-12124174D02*
X15805896Y-12143222D01*
X15805896Y-12143222D02*
X15805896Y-12162269D01*
X15805896Y-12162269D02*
X15710658Y-12181317D01*
X15977325Y-12247984D02*
X15977325Y-12047984D01*
X15977325Y-12238460D02*
X15958277Y-12247984D01*
X15958277Y-12247984D02*
X15920182Y-12247984D01*
X15920182Y-12247984D02*
X15901134Y-12238460D01*
X15901134Y-12238460D02*
X15891611Y-12228936D01*
X15891611Y-12228936D02*
X15882087Y-12209888D01*
X15882087Y-12209888D02*
X15882087Y-12152746D01*
X15882087Y-12152746D02*
X15891611Y-12133698D01*
X15891611Y-12133698D02*
X15901134Y-12124174D01*
X15901134Y-12124174D02*
X15920182Y-12114650D01*
X15920182Y-12114650D02*
X15958277Y-12114650D01*
X15958277Y-12114650D02*
X15977325Y-12124174D01*
X16053515Y-12324174D02*
X16063039Y-12314650D01*
X16063039Y-12314650D02*
X16082087Y-12286079D01*
X16082087Y-12286079D02*
X16091611Y-12267031D01*
X16091611Y-12267031D02*
X16101134Y-12238460D01*
X16101134Y-12238460D02*
X16110658Y-12190841D01*
X16110658Y-12190841D02*
X16110658Y-12152746D01*
X16110658Y-12152746D02*
X16101134Y-12105127D01*
X16101134Y-12105127D02*
X16091611Y-12076555D01*
X16091611Y-12076555D02*
X16082087Y-12057508D01*
X16082087Y-12057508D02*
X16063039Y-12028936D01*
X16063039Y-12028936D02*
X16053515Y-12019412D01*
M02*
