G04 #@! TF.GenerationSoftware,KiCad,Pcbnew,9.0.2*
G04 #@! TF.CreationDate,2025-06-24T11:01:01+02:00*
G04 #@! TF.ProjectId,SenseMatePCB,53656e73-654d-4617-9465-5043422e6b69,rev?*
G04 #@! TF.SameCoordinates,Original*
G04 #@! TF.FileFunction,Copper,L2,Bot*
G04 #@! TF.FilePolarity,Positive*
%FSLAX46Y46*%
G04 Gerber Fmt 4.6, Leading zero omitted, Abs format (unit mm)*
G04 Created by KiCad (PCBNEW 9.0.2) date 2025-06-24 11:01:01*
%MOMM*%
%LPD*%
G01*
G04 APERTURE LIST*
G04 Aperture macros list*
%AMRoundRect*
0 Rectangle with rounded corners*
0 $1 Rounding radius*
0 $2 $3 $4 $5 $6 $7 $8 $9 X,Y pos of 4 corners*
0 Add a 4 corners polygon primitive as box body*
4,1,4,$2,$3,$4,$5,$6,$7,$8,$9,$2,$3,0*
0 Add four circle primitives for the rounded corners*
1,1,$1+$1,$2,$3*
1,1,$1+$1,$4,$5*
1,1,$1+$1,$6,$7*
1,1,$1+$1,$8,$9*
0 Add four rect primitives between the rounded corners*
20,1,$1+$1,$2,$3,$4,$5,0*
20,1,$1+$1,$4,$5,$6,$7,0*
20,1,$1+$1,$6,$7,$8,$9,0*
20,1,$1+$1,$8,$9,$2,$3,0*%
G04 Aperture macros list end*
G04 #@! TA.AperFunction,ComponentPad*
%ADD10C,1.320800*%
G04 #@! TD*
G04 #@! TA.AperFunction,ComponentPad*
%ADD11C,2.006600*%
G04 #@! TD*
G04 #@! TA.AperFunction,ComponentPad*
%ADD12RoundRect,0.250000X1.050000X0.550000X-1.050000X0.550000X-1.050000X-0.550000X1.050000X-0.550000X0*%
G04 #@! TD*
G04 #@! TA.AperFunction,ComponentPad*
%ADD13O,2.600000X1.600000*%
G04 #@! TD*
G04 #@! TA.AperFunction,ComponentPad*
%ADD14R,1.700000X1.700000*%
G04 #@! TD*
G04 #@! TA.AperFunction,ComponentPad*
%ADD15C,1.700000*%
G04 #@! TD*
G04 #@! TA.AperFunction,SMDPad,CuDef*
%ADD16RoundRect,0.250000X0.262500X0.450000X-0.262500X0.450000X-0.262500X-0.450000X0.262500X-0.450000X0*%
G04 #@! TD*
G04 #@! TA.AperFunction,SMDPad,CuDef*
%ADD17RoundRect,0.150000X-0.150000X0.587500X-0.150000X-0.587500X0.150000X-0.587500X0.150000X0.587500X0*%
G04 #@! TD*
G04 #@! TA.AperFunction,ComponentPad*
%ADD18RoundRect,0.250000X0.350000X0.625000X-0.350000X0.625000X-0.350000X-0.625000X0.350000X-0.625000X0*%
G04 #@! TD*
G04 #@! TA.AperFunction,ComponentPad*
%ADD19O,1.200000X1.750000*%
G04 #@! TD*
G04 #@! TA.AperFunction,SMDPad,CuDef*
%ADD20RoundRect,0.250000X-0.262500X-0.450000X0.262500X-0.450000X0.262500X0.450000X-0.262500X0.450000X0*%
G04 #@! TD*
G04 #@! TA.AperFunction,SMDPad,CuDef*
%ADD21R,1.950000X2.600000*%
G04 #@! TD*
G04 #@! TA.AperFunction,SMDPad,CuDef*
%ADD22R,1.900000X2.600000*%
G04 #@! TD*
G04 #@! TA.AperFunction,SMDPad,CuDef*
%ADD23R,2.400000X1.700000*%
G04 #@! TD*
G04 #@! TA.AperFunction,SMDPad,CuDef*
%ADD24RoundRect,0.112500X-0.187500X-0.112500X0.187500X-0.112500X0.187500X0.112500X-0.187500X0.112500X0*%
G04 #@! TD*
G04 #@! TA.AperFunction,SMDPad,CuDef*
%ADD25RoundRect,0.150000X0.587500X0.150000X-0.587500X0.150000X-0.587500X-0.150000X0.587500X-0.150000X0*%
G04 #@! TD*
G04 #@! TA.AperFunction,ComponentPad*
%ADD26R,1.422400X1.422400*%
G04 #@! TD*
G04 #@! TA.AperFunction,ComponentPad*
%ADD27C,1.422400*%
G04 #@! TD*
G04 #@! TA.AperFunction,ViaPad*
%ADD28C,0.600000*%
G04 #@! TD*
G04 #@! TA.AperFunction,Conductor*
%ADD29C,0.200000*%
G04 #@! TD*
G04 APERTURE END LIST*
D10*
X104900001Y-110500000D03*
X106900001Y-110500000D03*
X108900002Y-110500000D03*
D11*
X102800002Y-110500000D03*
X111000000Y-110500000D03*
D12*
X115413900Y-105417001D03*
D13*
X115413900Y-102877001D03*
X115413900Y-100337001D03*
X115413900Y-97797001D03*
X115413900Y-95257001D03*
X115413900Y-92717001D03*
X115413900Y-90177001D03*
X115413900Y-87637001D03*
X115413900Y-85097001D03*
X115413900Y-82557001D03*
X115413900Y-80017001D03*
X115413900Y-77477001D03*
X115413900Y-74937001D03*
X115413900Y-72397001D03*
X115413900Y-69857001D03*
X115413900Y-67317001D03*
X95693900Y-67317001D03*
X95693900Y-69857001D03*
X95693900Y-72397001D03*
X95693900Y-74937001D03*
X95693900Y-77477001D03*
X95693900Y-80017001D03*
X95693900Y-82557001D03*
X95693900Y-85097001D03*
X95693900Y-87637001D03*
X95693900Y-90177001D03*
X95693900Y-92717001D03*
X95693900Y-95257001D03*
D14*
X111225000Y-58500000D03*
D15*
X113765000Y-58500000D03*
D16*
X103125000Y-92000000D03*
X101300000Y-92000000D03*
D17*
X96612500Y-99062500D03*
X98512500Y-99062500D03*
X97562500Y-100937500D03*
D18*
X97500000Y-105550000D03*
D19*
X95500000Y-105550000D03*
D20*
X98212500Y-89000000D03*
X100037500Y-89000000D03*
D21*
X104025000Y-63700000D03*
D22*
X99000000Y-63700000D03*
D23*
X107300000Y-58650000D03*
X95700000Y-58650000D03*
D22*
X101500000Y-63700000D03*
D24*
X105450000Y-80000000D03*
X107550000Y-80000000D03*
D16*
X104037500Y-86500000D03*
X102212500Y-86500000D03*
D25*
X107500000Y-88550000D03*
X107500000Y-90450000D03*
X105625000Y-89500000D03*
D26*
X107125000Y-102500000D03*
D27*
X107125000Y-97500000D03*
D14*
X99500000Y-75690000D03*
D15*
X99500000Y-78230000D03*
X99500000Y-80770000D03*
X99500000Y-83310000D03*
D28*
X103500000Y-68000000D03*
X101500000Y-67500000D03*
X99000000Y-67500000D03*
X111975000Y-63475000D03*
X99000000Y-97500000D03*
X108000000Y-82500000D03*
X113975000Y-63475000D03*
D29*
X96796899Y-86500000D02*
X95393900Y-85097001D01*
X102212500Y-86500000D02*
X96796899Y-86500000D01*
X95393900Y-87637001D02*
X98674501Y-87637001D01*
X98674501Y-87637001D02*
X100037500Y-89000000D01*
X95393900Y-100993899D02*
X104900001Y-110500000D01*
X95393900Y-95257001D02*
X95393900Y-100993899D01*
X104025000Y-67475000D02*
X104025000Y-63700000D01*
X103500000Y-68000000D02*
X104025000Y-67475000D01*
X101500000Y-67500000D02*
X101500000Y-63700000D01*
X99000000Y-67500000D02*
X98975000Y-67475000D01*
X99000000Y-63700000D02*
X99000000Y-67500000D01*
X109051000Y-96214101D02*
X109051000Y-86861000D01*
X115713900Y-102877001D02*
X109051000Y-96214101D01*
X101270000Y-80000000D02*
X105450000Y-80000000D01*
X107125000Y-102500000D02*
X115336899Y-102500000D01*
X115336899Y-102500000D02*
X115713900Y-102877001D01*
X105450000Y-70000000D02*
X111975000Y-63475000D01*
X111975000Y-63475000D02*
X112000000Y-63450000D01*
X105450000Y-80000000D02*
X105450000Y-70000000D01*
X105450000Y-83260000D02*
X105450000Y-80000000D01*
X101300000Y-96675000D02*
X101300000Y-92000000D01*
X109051000Y-86861000D02*
X105450000Y-83260000D01*
X107125000Y-102500000D02*
X101300000Y-96675000D01*
X99500000Y-78230000D02*
X101270000Y-80000000D01*
X98512500Y-99062500D02*
X99000000Y-98575000D01*
X99000000Y-98575000D02*
X99000000Y-97500000D01*
X107550000Y-80000000D02*
X112401000Y-75149000D01*
X108000000Y-82500000D02*
X107550000Y-82050000D01*
X107550000Y-82050000D02*
X107550000Y-80000000D01*
X112401000Y-65049000D02*
X113975000Y-63475000D01*
X112401000Y-75149000D02*
X112401000Y-65049000D01*
X113975000Y-63475000D02*
X114000000Y-63450000D01*
X105625000Y-89500000D02*
X104037500Y-87912500D01*
X104037500Y-87912500D02*
X104037500Y-86500000D01*
X103125000Y-93500000D02*
X107125000Y-97500000D01*
X103125000Y-92000000D02*
X104000000Y-92000000D01*
X103125000Y-92000000D02*
X103125000Y-93500000D01*
X105550000Y-90450000D02*
X107500000Y-90450000D01*
X104000000Y-92000000D02*
X105550000Y-90450000D01*
X98212500Y-89000000D02*
X97562500Y-89650000D01*
X97562500Y-89650000D02*
X97562500Y-100937500D01*
X98349000Y-72812101D02*
X95393900Y-69857001D01*
X98349000Y-79619000D02*
X98349000Y-72812101D01*
X99500000Y-80770000D02*
X98349000Y-79619000D01*
X97294900Y-81104900D02*
X97294900Y-74142952D01*
X99500000Y-83310000D02*
X97294900Y-81104900D01*
X94092900Y-68618001D02*
X95393900Y-67317001D01*
X94092900Y-72853050D02*
X94092900Y-68618001D01*
X96649949Y-73498001D02*
X94737851Y-73498001D01*
X97294900Y-74142952D02*
X96649949Y-73498001D01*
X94737851Y-73498001D02*
X94092900Y-72853050D01*
G04 #@! TA.AperFunction,Conductor*
G36*
X99034075Y-75497007D02*
G01*
X99000000Y-75624174D01*
X99000000Y-75755826D01*
X99034075Y-75882993D01*
X99066988Y-75940000D01*
X98773500Y-75940000D01*
X98706461Y-75920315D01*
X98660706Y-75867511D01*
X98649500Y-75816000D01*
X98649500Y-75564000D01*
X98669185Y-75496961D01*
X98721989Y-75451206D01*
X98773500Y-75440000D01*
X99066988Y-75440000D01*
X99034075Y-75497007D01*
G37*
G04 #@! TD.AperFunction*
G04 #@! TA.AperFunction,Conductor*
G36*
X120692539Y-55520185D02*
G01*
X120738294Y-55572989D01*
X120749500Y-55624500D01*
X120749500Y-111875500D01*
X120729815Y-111942539D01*
X120677011Y-111988294D01*
X120625500Y-111999500D01*
X93624500Y-111999500D01*
X93557461Y-111979815D01*
X93511706Y-111927011D01*
X93500500Y-111875500D01*
X93500500Y-105188428D01*
X94400000Y-105188428D01*
X94400000Y-105300000D01*
X95219670Y-105300000D01*
X95199925Y-105319745D01*
X95150556Y-105405255D01*
X95125000Y-105500630D01*
X95125000Y-105599370D01*
X95150556Y-105694745D01*
X95199925Y-105780255D01*
X95219670Y-105800000D01*
X94400000Y-105800000D01*
X94400000Y-105911571D01*
X94427085Y-106082584D01*
X94480591Y-106247257D01*
X94559195Y-106401524D01*
X94660967Y-106541602D01*
X94783397Y-106664032D01*
X94923475Y-106765804D01*
X95077744Y-106844408D01*
X95242415Y-106897914D01*
X95242414Y-106897914D01*
X95249999Y-106899115D01*
X95250000Y-106899114D01*
X95250000Y-105830330D01*
X95269745Y-105850075D01*
X95355255Y-105899444D01*
X95450630Y-105925000D01*
X95549370Y-105925000D01*
X95644745Y-105899444D01*
X95730255Y-105850075D01*
X95750000Y-105830330D01*
X95750000Y-106899115D01*
X95757584Y-106897914D01*
X95922255Y-106844408D01*
X96076524Y-106765804D01*
X96216602Y-106664032D01*
X96339032Y-106541602D01*
X96440804Y-106401524D01*
X96493579Y-106297948D01*
X96541554Y-106247152D01*
X96609375Y-106230357D01*
X96675509Y-106252894D01*
X96718961Y-106307609D01*
X96721105Y-106313288D01*
X96747206Y-106387880D01*
X96747207Y-106387882D01*
X96827850Y-106497150D01*
X96937118Y-106577793D01*
X96979845Y-106592744D01*
X97065299Y-106622646D01*
X97095730Y-106625500D01*
X97095734Y-106625500D01*
X97904270Y-106625500D01*
X97934699Y-106622646D01*
X97934701Y-106622646D01*
X97998790Y-106600219D01*
X98062882Y-106577793D01*
X98172150Y-106497150D01*
X98252793Y-106387882D01*
X98275219Y-106323790D01*
X98297646Y-106259701D01*
X98297646Y-106259699D01*
X98300500Y-106229269D01*
X98300500Y-104870730D01*
X98297646Y-104840300D01*
X98297646Y-104840298D01*
X98252793Y-104712119D01*
X98252792Y-104712117D01*
X98242724Y-104698475D01*
X98172150Y-104602850D01*
X98062882Y-104522207D01*
X98062880Y-104522206D01*
X97934700Y-104477353D01*
X97904270Y-104474500D01*
X97904266Y-104474500D01*
X97095734Y-104474500D01*
X97095730Y-104474500D01*
X97065300Y-104477353D01*
X97065298Y-104477353D01*
X96937119Y-104522206D01*
X96937117Y-104522207D01*
X96827850Y-104602850D01*
X96747207Y-104712117D01*
X96721105Y-104786712D01*
X96680383Y-104843487D01*
X96615430Y-104869234D01*
X96546868Y-104855777D01*
X96496466Y-104807389D01*
X96493579Y-104802051D01*
X96440804Y-104698475D01*
X96339032Y-104558397D01*
X96216602Y-104435967D01*
X96076524Y-104334195D01*
X95922257Y-104255591D01*
X95757589Y-104202087D01*
X95757581Y-104202085D01*
X95750000Y-104200884D01*
X95750000Y-105269670D01*
X95730255Y-105249925D01*
X95644745Y-105200556D01*
X95549370Y-105175000D01*
X95450630Y-105175000D01*
X95355255Y-105200556D01*
X95269745Y-105249925D01*
X95250000Y-105269670D01*
X95250000Y-104200884D01*
X95249999Y-104200884D01*
X95242418Y-104202085D01*
X95242410Y-104202087D01*
X95077742Y-104255591D01*
X94923475Y-104334195D01*
X94783397Y-104435967D01*
X94660967Y-104558397D01*
X94559195Y-104698475D01*
X94480591Y-104852742D01*
X94427085Y-105017415D01*
X94400000Y-105188428D01*
X93500500Y-105188428D01*
X93500500Y-85195544D01*
X94193399Y-85195544D01*
X94231847Y-85388830D01*
X94231850Y-85388840D01*
X94307264Y-85570908D01*
X94307271Y-85570921D01*
X94416760Y-85734782D01*
X94416763Y-85734786D01*
X94556114Y-85874137D01*
X94556118Y-85874140D01*
X94719979Y-85983629D01*
X94719992Y-85983636D01*
X94902060Y-86059050D01*
X94902065Y-86059052D01*
X94902069Y-86059052D01*
X94902070Y-86059053D01*
X95095356Y-86097501D01*
X95095359Y-86097501D01*
X95918067Y-86097501D01*
X95985106Y-86117186D01*
X96005748Y-86133820D01*
X96296748Y-86424820D01*
X96330233Y-86486143D01*
X96325249Y-86555835D01*
X96283377Y-86611768D01*
X96217913Y-86636185D01*
X96209067Y-86636501D01*
X95095357Y-86636501D01*
X94902070Y-86674948D01*
X94902060Y-86674951D01*
X94719992Y-86750365D01*
X94719979Y-86750372D01*
X94556118Y-86859861D01*
X94556114Y-86859864D01*
X94416763Y-86999215D01*
X94416760Y-86999219D01*
X94307271Y-87163080D01*
X94307264Y-87163093D01*
X94231850Y-87345161D01*
X94231847Y-87345171D01*
X94193400Y-87538457D01*
X94193400Y-87538460D01*
X94193400Y-87735542D01*
X94193400Y-87735544D01*
X94193399Y-87735544D01*
X94231847Y-87928830D01*
X94231850Y-87928840D01*
X94307264Y-88110908D01*
X94307271Y-88110921D01*
X94416760Y-88274782D01*
X94416763Y-88274786D01*
X94556114Y-88414137D01*
X94556118Y-88414140D01*
X94719979Y-88523629D01*
X94719992Y-88523636D01*
X94902060Y-88599050D01*
X94902065Y-88599052D01*
X94902069Y-88599052D01*
X94902070Y-88599053D01*
X95095356Y-88637501D01*
X95095359Y-88637501D01*
X96292443Y-88637501D01*
X96422482Y-88611633D01*
X96485735Y-88599052D01*
X96667814Y-88523633D01*
X96831682Y-88414140D01*
X96971039Y-88274783D01*
X97080532Y-88110915D01*
X97084079Y-88102353D01*
X97120655Y-88014049D01*
X97164495Y-87959645D01*
X97230789Y-87937580D01*
X97235216Y-87937501D01*
X97644428Y-87937501D01*
X97711467Y-87957186D01*
X97757222Y-88009990D01*
X97767166Y-88079148D01*
X97738141Y-88142704D01*
X97718062Y-88161271D01*
X97627850Y-88227850D01*
X97547207Y-88337117D01*
X97547206Y-88337119D01*
X97502353Y-88465298D01*
X97502353Y-88465300D01*
X97499500Y-88495730D01*
X97499500Y-89236667D01*
X97479815Y-89303706D01*
X97463181Y-89324348D01*
X97322041Y-89465487D01*
X97322035Y-89465495D01*
X97282482Y-89534004D01*
X97282477Y-89534015D01*
X97263170Y-89606069D01*
X97226805Y-89665729D01*
X97163958Y-89696257D01*
X97094582Y-89687962D01*
X97040705Y-89643476D01*
X97040294Y-89642865D01*
X96971039Y-89539219D01*
X96971036Y-89539215D01*
X96831685Y-89399864D01*
X96831681Y-89399861D01*
X96667820Y-89290372D01*
X96667807Y-89290365D01*
X96485739Y-89214951D01*
X96485729Y-89214948D01*
X96292443Y-89176501D01*
X96292441Y-89176501D01*
X95095359Y-89176501D01*
X95095357Y-89176501D01*
X94902070Y-89214948D01*
X94902060Y-89214951D01*
X94719992Y-89290365D01*
X94719979Y-89290372D01*
X94556118Y-89399861D01*
X94556114Y-89399864D01*
X94416763Y-89539215D01*
X94416760Y-89539219D01*
X94307271Y-89703080D01*
X94307264Y-89703093D01*
X94231850Y-89885161D01*
X94231847Y-89885171D01*
X94193400Y-90078457D01*
X94193400Y-90078460D01*
X94193400Y-90275542D01*
X94193400Y-90275544D01*
X94193399Y-90275544D01*
X94231847Y-90468830D01*
X94231850Y-90468840D01*
X94307264Y-90650908D01*
X94307271Y-90650921D01*
X94416760Y-90814782D01*
X94416763Y-90814786D01*
X94556114Y-90954137D01*
X94556118Y-90954140D01*
X94719979Y-91063629D01*
X94719992Y-91063636D01*
X94813467Y-91102354D01*
X94902065Y-91139052D01*
X94902069Y-91139052D01*
X94902070Y-91139053D01*
X95095356Y-91177501D01*
X95095359Y-91177501D01*
X96292443Y-91177501D01*
X96422482Y-91151633D01*
X96485735Y-91139052D01*
X96667814Y-91063633D01*
X96831682Y-90954140D01*
X96971039Y-90814783D01*
X97012098Y-90753334D01*
X97034898Y-90719212D01*
X97088510Y-90674406D01*
X97157835Y-90665699D01*
X97220862Y-90695853D01*
X97257582Y-90755296D01*
X97262000Y-90788102D01*
X97262000Y-92105899D01*
X97242315Y-92172938D01*
X97189511Y-92218693D01*
X97120353Y-92228637D01*
X97056797Y-92199612D01*
X97034898Y-92174790D01*
X96971039Y-92079219D01*
X96971036Y-92079215D01*
X96831685Y-91939864D01*
X96831681Y-91939861D01*
X96667820Y-91830372D01*
X96667807Y-91830365D01*
X96485739Y-91754951D01*
X96485729Y-91754948D01*
X96292443Y-91716501D01*
X96292441Y-91716501D01*
X95095359Y-91716501D01*
X95095357Y-91716501D01*
X94902070Y-91754948D01*
X94902060Y-91754951D01*
X94719992Y-91830365D01*
X94719979Y-91830372D01*
X94556118Y-91939861D01*
X94556114Y-91939864D01*
X94416763Y-92079215D01*
X94416760Y-92079219D01*
X94307271Y-92243080D01*
X94307264Y-92243093D01*
X94231850Y-92425161D01*
X94231847Y-92425171D01*
X94193400Y-92618457D01*
X94193400Y-92618460D01*
X94193400Y-92815542D01*
X94193400Y-92815544D01*
X94193399Y-92815544D01*
X94231847Y-93008830D01*
X94231850Y-93008840D01*
X94307264Y-93190908D01*
X94307271Y-93190921D01*
X94416760Y-93354782D01*
X94416763Y-93354786D01*
X94556114Y-93494137D01*
X94556118Y-93494140D01*
X94719979Y-93603629D01*
X94719992Y-93603636D01*
X94902060Y-93679050D01*
X94902065Y-93679052D01*
X94902069Y-93679052D01*
X94902070Y-93679053D01*
X95095356Y-93717501D01*
X95095359Y-93717501D01*
X96292443Y-93717501D01*
X96422482Y-93691633D01*
X96485735Y-93679052D01*
X96667814Y-93603633D01*
X96831682Y-93494140D01*
X96971039Y-93354783D01*
X97010787Y-93295296D01*
X97034898Y-93259212D01*
X97088510Y-93214406D01*
X97157835Y-93205699D01*
X97220862Y-93235853D01*
X97257582Y-93295296D01*
X97262000Y-93328102D01*
X97262000Y-94645899D01*
X97242315Y-94712938D01*
X97189511Y-94758693D01*
X97120353Y-94768637D01*
X97056797Y-94739612D01*
X97034898Y-94714790D01*
X96971039Y-94619219D01*
X96971036Y-94619215D01*
X96831685Y-94479864D01*
X96831681Y-94479861D01*
X96667820Y-94370372D01*
X96667807Y-94370365D01*
X96485739Y-94294951D01*
X96485729Y-94294948D01*
X96292443Y-94256501D01*
X96292441Y-94256501D01*
X95095359Y-94256501D01*
X95095357Y-94256501D01*
X94902070Y-94294948D01*
X94902060Y-94294951D01*
X94719992Y-94370365D01*
X94719979Y-94370372D01*
X94556118Y-94479861D01*
X94556114Y-94479864D01*
X94416763Y-94619215D01*
X94416760Y-94619219D01*
X94307271Y-94783080D01*
X94307264Y-94783093D01*
X94231850Y-94965161D01*
X94231847Y-94965171D01*
X94193400Y-95158457D01*
X94193400Y-95158460D01*
X94193400Y-95355542D01*
X94193400Y-95355544D01*
X94193399Y-95355544D01*
X94231847Y-95548830D01*
X94231850Y-95548840D01*
X94307264Y-95730908D01*
X94307271Y-95730921D01*
X94416760Y-95894782D01*
X94416763Y-95894786D01*
X94556114Y-96034137D01*
X94556118Y-96034140D01*
X94719979Y-96143629D01*
X94719992Y-96143636D01*
X94856545Y-96200197D01*
X94902065Y-96219052D01*
X94993594Y-96237258D01*
X95055501Y-96269641D01*
X95090076Y-96330356D01*
X95093400Y-96358874D01*
X95093400Y-101033461D01*
X95107052Y-101084412D01*
X95113879Y-101109889D01*
X95113880Y-101109890D01*
X95153170Y-101177943D01*
X95153438Y-101178407D01*
X95153441Y-101178411D01*
X103072227Y-109097197D01*
X103105712Y-109158520D01*
X103100728Y-109228212D01*
X103058856Y-109284145D01*
X102993392Y-109308562D01*
X102965148Y-109307351D01*
X102922147Y-109300540D01*
X102894743Y-109296200D01*
X102705261Y-109296200D01*
X102642878Y-109306080D01*
X102518110Y-109325842D01*
X102337905Y-109384393D01*
X102337902Y-109384394D01*
X102169072Y-109470418D01*
X102127282Y-109500781D01*
X102015779Y-109581793D01*
X102015777Y-109581795D01*
X102015776Y-109581795D01*
X101881797Y-109715774D01*
X101881797Y-109715775D01*
X101881795Y-109715777D01*
X101833963Y-109781610D01*
X101770420Y-109869070D01*
X101684396Y-110037900D01*
X101684395Y-110037903D01*
X101625844Y-110218108D01*
X101596202Y-110405259D01*
X101596202Y-110594740D01*
X101625844Y-110781891D01*
X101684395Y-110962096D01*
X101684396Y-110962099D01*
X101760920Y-111112284D01*
X101770420Y-111130929D01*
X101881795Y-111284223D01*
X102015779Y-111418207D01*
X102169073Y-111529582D01*
X102251879Y-111571773D01*
X102337902Y-111615605D01*
X102337905Y-111615606D01*
X102428007Y-111644881D01*
X102518112Y-111674158D01*
X102705261Y-111703800D01*
X102705262Y-111703800D01*
X102894742Y-111703800D01*
X102894743Y-111703800D01*
X103081892Y-111674158D01*
X103262101Y-111615605D01*
X103430931Y-111529582D01*
X103584225Y-111418207D01*
X103718209Y-111284223D01*
X103829584Y-111130929D01*
X103915607Y-110962099D01*
X103920939Y-110945687D01*
X103960375Y-110888011D01*
X104024733Y-110860812D01*
X104093580Y-110872724D01*
X104141973Y-110915112D01*
X104231295Y-111048791D01*
X104231298Y-111048795D01*
X104351205Y-111168702D01*
X104351209Y-111168705D01*
X104492205Y-111262916D01*
X104492209Y-111262918D01*
X104492212Y-111262920D01*
X104648886Y-111327817D01*
X104815205Y-111360899D01*
X104815209Y-111360900D01*
X104815210Y-111360900D01*
X104984793Y-111360900D01*
X104984794Y-111360899D01*
X105151116Y-111327817D01*
X105307790Y-111262920D01*
X105448793Y-111168705D01*
X105568706Y-111048792D01*
X105662921Y-110907789D01*
X105727818Y-110751115D01*
X105760901Y-110584791D01*
X105760901Y-110415209D01*
X105760900Y-110415204D01*
X106039101Y-110415204D01*
X106039101Y-110584795D01*
X106072182Y-110751107D01*
X106072185Y-110751117D01*
X106137079Y-110907785D01*
X106137084Y-110907795D01*
X106231295Y-111048791D01*
X106231298Y-111048795D01*
X106351205Y-111168702D01*
X106351209Y-111168705D01*
X106492205Y-111262916D01*
X106492209Y-111262918D01*
X106492212Y-111262920D01*
X106648886Y-111327817D01*
X106815205Y-111360899D01*
X106815209Y-111360900D01*
X106815210Y-111360900D01*
X106984793Y-111360900D01*
X106984794Y-111360899D01*
X107151116Y-111327817D01*
X107307790Y-111262920D01*
X107448793Y-111168705D01*
X107568706Y-111048792D01*
X107662921Y-110907789D01*
X107727818Y-110751115D01*
X107760901Y-110584791D01*
X107760901Y-110415209D01*
X107760900Y-110415204D01*
X108039102Y-110415204D01*
X108039102Y-110584795D01*
X108072183Y-110751107D01*
X108072186Y-110751117D01*
X108137080Y-110907785D01*
X108137085Y-110907795D01*
X108231296Y-111048791D01*
X108231299Y-111048795D01*
X108351206Y-111168702D01*
X108351210Y-111168705D01*
X108492206Y-111262916D01*
X108492210Y-111262918D01*
X108492213Y-111262920D01*
X108648887Y-111327817D01*
X108815206Y-111360899D01*
X108815210Y-111360900D01*
X108815211Y-111360900D01*
X108984794Y-111360900D01*
X108984795Y-111360899D01*
X109151117Y-111327817D01*
X109307791Y-111262920D01*
X109448794Y-111168705D01*
X109568707Y-111048792D01*
X109658028Y-110915114D01*
X109711640Y-110870308D01*
X109780965Y-110861601D01*
X109843992Y-110891755D01*
X109879060Y-110945682D01*
X109884394Y-110962097D01*
X109884394Y-110962099D01*
X109960918Y-111112284D01*
X109970418Y-111130929D01*
X110081793Y-111284223D01*
X110215777Y-111418207D01*
X110369071Y-111529582D01*
X110451877Y-111571773D01*
X110537900Y-111615605D01*
X110537903Y-111615606D01*
X110628005Y-111644881D01*
X110718110Y-111674158D01*
X110905259Y-111703800D01*
X110905260Y-111703800D01*
X111094740Y-111703800D01*
X111094741Y-111703800D01*
X111281890Y-111674158D01*
X111462099Y-111615605D01*
X111630929Y-111529582D01*
X111784223Y-111418207D01*
X111918207Y-111284223D01*
X112029582Y-111130929D01*
X112115605Y-110962099D01*
X112174158Y-110781890D01*
X112203800Y-110594741D01*
X112203800Y-110405259D01*
X112174158Y-110218110D01*
X112144643Y-110127270D01*
X112115606Y-110037903D01*
X112115604Y-110037900D01*
X112070344Y-109949071D01*
X112066565Y-109941655D01*
X112044143Y-109897648D01*
X117199500Y-109897648D01*
X117199500Y-110102351D01*
X117231522Y-110304534D01*
X117294781Y-110499223D01*
X117387715Y-110681613D01*
X117508028Y-110847213D01*
X117652786Y-110991971D01*
X117807749Y-111104556D01*
X117818390Y-111112287D01*
X117929111Y-111168702D01*
X118000776Y-111205218D01*
X118000778Y-111205218D01*
X118000781Y-111205220D01*
X118105137Y-111239127D01*
X118195465Y-111268477D01*
X118294881Y-111284223D01*
X118397648Y-111300500D01*
X118397649Y-111300500D01*
X118602351Y-111300500D01*
X118602352Y-111300500D01*
X118804534Y-111268477D01*
X118999219Y-111205220D01*
X119181610Y-111112287D01*
X119274590Y-111044732D01*
X119347213Y-110991971D01*
X119347215Y-110991968D01*
X119347219Y-110991966D01*
X119491966Y-110847219D01*
X119491968Y-110847215D01*
X119491971Y-110847213D01*
X119544732Y-110774590D01*
X119612287Y-110681610D01*
X119705220Y-110499219D01*
X119768477Y-110304534D01*
X119800500Y-110102352D01*
X119800500Y-109897648D01*
X119768477Y-109695466D01*
X119767476Y-109692386D01*
X119731542Y-109581793D01*
X119705220Y-109500781D01*
X119705218Y-109500778D01*
X119705218Y-109500776D01*
X119645918Y-109384395D01*
X119612287Y-109318390D01*
X119587407Y-109284145D01*
X119491971Y-109152786D01*
X119347213Y-109008028D01*
X119181613Y-108887715D01*
X119181612Y-108887714D01*
X119181610Y-108887713D01*
X119124653Y-108858691D01*
X118999223Y-108794781D01*
X118804534Y-108731522D01*
X118629995Y-108703878D01*
X118602352Y-108699500D01*
X118397648Y-108699500D01*
X118373329Y-108703351D01*
X118195465Y-108731522D01*
X118000776Y-108794781D01*
X117818386Y-108887715D01*
X117652786Y-109008028D01*
X117508028Y-109152786D01*
X117387715Y-109318386D01*
X117294781Y-109500776D01*
X117231522Y-109695465D01*
X117199500Y-109897648D01*
X112044143Y-109897648D01*
X112029582Y-109869071D01*
X111918207Y-109715777D01*
X111784223Y-109581793D01*
X111630929Y-109470418D01*
X111462099Y-109384394D01*
X111462096Y-109384393D01*
X111281891Y-109325842D01*
X111165144Y-109307351D01*
X111094741Y-109296200D01*
X110905259Y-109296200D01*
X110842876Y-109306080D01*
X110718108Y-109325842D01*
X110537903Y-109384393D01*
X110537900Y-109384394D01*
X110369070Y-109470418D01*
X110327280Y-109500781D01*
X110215777Y-109581793D01*
X110215775Y-109581795D01*
X110215774Y-109581795D01*
X110081795Y-109715774D01*
X110081795Y-109715775D01*
X110081793Y-109715777D01*
X110033961Y-109781610D01*
X109970418Y-109869070D01*
X109884394Y-110037900D01*
X109884392Y-110037906D01*
X109879059Y-110054319D01*
X109839619Y-110111992D01*
X109775259Y-110139187D01*
X109706413Y-110127270D01*
X109658028Y-110084886D01*
X109568707Y-109951208D01*
X109568704Y-109951204D01*
X109448797Y-109831297D01*
X109448793Y-109831294D01*
X109307797Y-109737083D01*
X109307787Y-109737078D01*
X109181859Y-109684917D01*
X109151117Y-109672183D01*
X109151113Y-109672182D01*
X109151109Y-109672181D01*
X108984797Y-109639100D01*
X108984793Y-109639100D01*
X108815211Y-109639100D01*
X108815206Y-109639100D01*
X108648894Y-109672181D01*
X108648884Y-109672184D01*
X108492216Y-109737078D01*
X108492206Y-109737083D01*
X108351210Y-109831294D01*
X108351206Y-109831297D01*
X108231299Y-109951204D01*
X108231296Y-109951208D01*
X108137085Y-110092204D01*
X108137080Y-110092214D01*
X108072186Y-110248882D01*
X108072183Y-110248892D01*
X108039102Y-110415204D01*
X107760900Y-110415204D01*
X107727818Y-110248885D01*
X107662921Y-110092211D01*
X107662919Y-110092208D01*
X107662917Y-110092204D01*
X107568706Y-109951208D01*
X107568703Y-109951204D01*
X107448796Y-109831297D01*
X107448792Y-109831294D01*
X107307796Y-109737083D01*
X107307786Y-109737078D01*
X107181858Y-109684917D01*
X107151116Y-109672183D01*
X107151112Y-109672182D01*
X107151108Y-109672181D01*
X106984796Y-109639100D01*
X106984792Y-109639100D01*
X106815210Y-109639100D01*
X106815205Y-109639100D01*
X106648893Y-109672181D01*
X106648883Y-109672184D01*
X106492215Y-109737078D01*
X106492205Y-109737083D01*
X106351209Y-109831294D01*
X106351205Y-109831297D01*
X106231298Y-109951204D01*
X106231295Y-109951208D01*
X106137084Y-110092204D01*
X106137079Y-110092214D01*
X106072185Y-110248882D01*
X106072182Y-110248892D01*
X106039101Y-110415204D01*
X105760900Y-110415204D01*
X105727818Y-110248885D01*
X105662921Y-110092211D01*
X105662919Y-110092208D01*
X105662917Y-110092204D01*
X105568706Y-109951208D01*
X105568703Y-109951204D01*
X105448796Y-109831297D01*
X105448792Y-109831294D01*
X105307796Y-109737083D01*
X105307786Y-109737078D01*
X105181858Y-109684917D01*
X105151116Y-109672183D01*
X105151112Y-109672182D01*
X105151108Y-109672181D01*
X104984796Y-109639100D01*
X104984792Y-109639100D01*
X104815210Y-109639100D01*
X104815205Y-109639100D01*
X104648893Y-109672181D01*
X104648878Y-109672185D01*
X104618142Y-109684917D01*
X104548672Y-109692386D01*
X104486193Y-109661110D01*
X104483009Y-109658037D01*
X99637703Y-104812731D01*
X113913400Y-104812731D01*
X113913400Y-106021270D01*
X113916253Y-106051700D01*
X113916253Y-106051702D01*
X113961106Y-106179881D01*
X113961107Y-106179883D01*
X114041750Y-106289151D01*
X114151018Y-106369794D01*
X114193745Y-106384745D01*
X114279199Y-106414647D01*
X114309630Y-106417501D01*
X114309634Y-106417501D01*
X116518170Y-106417501D01*
X116548599Y-106414647D01*
X116548601Y-106414647D01*
X116625095Y-106387880D01*
X116676782Y-106369794D01*
X116786050Y-106289151D01*
X116866693Y-106179883D01*
X116889119Y-106115791D01*
X116911546Y-106051702D01*
X116911546Y-106051700D01*
X116914400Y-106021270D01*
X116914400Y-104812731D01*
X116911546Y-104782301D01*
X116911546Y-104782299D01*
X116866693Y-104654120D01*
X116866692Y-104654118D01*
X116786050Y-104544851D01*
X116676782Y-104464208D01*
X116676780Y-104464207D01*
X116548600Y-104419354D01*
X116518170Y-104416501D01*
X116518166Y-104416501D01*
X114309634Y-104416501D01*
X114309630Y-104416501D01*
X114279200Y-104419354D01*
X114279198Y-104419354D01*
X114151019Y-104464207D01*
X114151017Y-104464208D01*
X114041750Y-104544851D01*
X113961107Y-104654118D01*
X113961106Y-104654120D01*
X113916253Y-104782299D01*
X113916253Y-104782301D01*
X113913400Y-104812731D01*
X99637703Y-104812731D01*
X95730719Y-100905747D01*
X95697234Y-100844424D01*
X95694400Y-100818066D01*
X95694400Y-100081391D01*
X95714085Y-100014352D01*
X95766889Y-99968597D01*
X95836047Y-99958653D01*
X95899603Y-99987678D01*
X95925133Y-100018271D01*
X95944817Y-100051555D01*
X95944821Y-100051561D01*
X96060938Y-100167678D01*
X96060947Y-100167685D01*
X96202301Y-100251281D01*
X96360014Y-100297100D01*
X96360011Y-100297100D01*
X96362498Y-100297295D01*
X96362500Y-100297295D01*
X96362500Y-97827703D01*
X96360003Y-97827900D01*
X96202306Y-97873716D01*
X96202303Y-97873717D01*
X96060947Y-97957314D01*
X96060938Y-97957321D01*
X95944821Y-98073438D01*
X95944814Y-98073447D01*
X95925132Y-98106729D01*
X95874063Y-98154413D01*
X95805321Y-98166916D01*
X95740732Y-98140270D01*
X95700802Y-98082935D01*
X95694400Y-98043608D01*
X95694400Y-96381501D01*
X95714085Y-96314462D01*
X95766889Y-96268707D01*
X95818400Y-96257501D01*
X96292443Y-96257501D01*
X96422482Y-96231633D01*
X96485735Y-96219052D01*
X96667814Y-96143633D01*
X96831682Y-96034140D01*
X96971039Y-95894783D01*
X97010787Y-95835296D01*
X97034898Y-95799212D01*
X97088510Y-95754406D01*
X97157835Y-95745699D01*
X97220862Y-95775853D01*
X97257582Y-95835296D01*
X97262000Y-95868102D01*
X97262000Y-97797845D01*
X97242315Y-97864884D01*
X97189511Y-97910639D01*
X97120353Y-97920583D01*
X97074880Y-97904578D01*
X97022694Y-97873716D01*
X96864994Y-97827900D01*
X96864997Y-97827900D01*
X96862500Y-97827703D01*
X96862500Y-100297295D01*
X96862501Y-100297295D01*
X96864986Y-100297100D01*
X96903405Y-100285939D01*
X96973275Y-100286139D01*
X97031945Y-100324082D01*
X97060788Y-100387720D01*
X97062000Y-100405016D01*
X97062000Y-101558260D01*
X97071926Y-101626391D01*
X97123303Y-101731485D01*
X97206014Y-101814196D01*
X97206015Y-101814196D01*
X97206017Y-101814198D01*
X97311107Y-101865573D01*
X97345173Y-101870536D01*
X97379239Y-101875500D01*
X97379240Y-101875500D01*
X97745761Y-101875500D01*
X97768471Y-101872191D01*
X97813893Y-101865573D01*
X97918983Y-101814198D01*
X98001698Y-101731483D01*
X98053073Y-101626393D01*
X98063000Y-101558260D01*
X98063000Y-100316740D01*
X98060138Y-100297100D01*
X98058036Y-100282673D01*
X98053073Y-100248607D01*
X98001698Y-100143517D01*
X98001696Y-100143515D01*
X98001696Y-100143514D01*
X97918983Y-100060801D01*
X97914945Y-100057918D01*
X97871824Y-100002942D01*
X97863000Y-99957002D01*
X97863000Y-99945544D01*
X97882685Y-99878505D01*
X97935489Y-99832750D01*
X98004647Y-99822806D01*
X98068203Y-99851831D01*
X98074681Y-99857863D01*
X98156014Y-99939196D01*
X98156015Y-99939196D01*
X98156017Y-99939198D01*
X98261107Y-99990573D01*
X98295173Y-99995536D01*
X98329239Y-100000500D01*
X98329240Y-100000500D01*
X98695761Y-100000500D01*
X98718471Y-99997191D01*
X98763893Y-99990573D01*
X98868983Y-99939198D01*
X98951698Y-99856483D01*
X99003073Y-99751393D01*
X99013000Y-99683260D01*
X99013000Y-99038333D01*
X99032685Y-98971294D01*
X99049319Y-98950652D01*
X99091111Y-98908860D01*
X99240460Y-98759511D01*
X99280021Y-98690989D01*
X99300500Y-98614562D01*
X99300500Y-97958676D01*
X99320185Y-97891637D01*
X99336819Y-97870995D01*
X99344987Y-97862827D01*
X99400500Y-97807314D01*
X99466392Y-97693186D01*
X99500500Y-97565892D01*
X99500500Y-97434108D01*
X99466392Y-97306814D01*
X99461286Y-97297971D01*
X99424391Y-97234067D01*
X99400500Y-97192686D01*
X99307314Y-97099500D01*
X99250250Y-97066554D01*
X99193187Y-97033608D01*
X99129539Y-97016554D01*
X99065892Y-96999500D01*
X98934108Y-96999500D01*
X98806812Y-97033608D01*
X98692686Y-97099500D01*
X98692683Y-97099502D01*
X98599502Y-97192683D01*
X98599500Y-97192686D01*
X98533608Y-97306812D01*
X98499500Y-97434108D01*
X98499500Y-97565891D01*
X98533608Y-97693187D01*
X98555541Y-97731175D01*
X98599500Y-97807314D01*
X98599502Y-97807316D01*
X98663181Y-97870995D01*
X98677884Y-97897922D01*
X98694477Y-97923741D01*
X98695368Y-97929941D01*
X98696666Y-97932318D01*
X98699500Y-97958676D01*
X98699500Y-98000500D01*
X98679815Y-98067539D01*
X98627011Y-98113294D01*
X98575500Y-98124500D01*
X98329239Y-98124500D01*
X98261108Y-98134426D01*
X98156014Y-98185803D01*
X98074681Y-98267137D01*
X98013358Y-98300622D01*
X97943666Y-98295638D01*
X97887733Y-98253766D01*
X97863316Y-98188302D01*
X97863000Y-98179456D01*
X97863000Y-90024500D01*
X97882685Y-89957461D01*
X97935489Y-89911706D01*
X97987000Y-89900500D01*
X98529270Y-89900500D01*
X98559699Y-89897646D01*
X98559701Y-89897646D01*
X98623790Y-89875219D01*
X98687882Y-89852793D01*
X98797150Y-89772150D01*
X98877793Y-89662882D01*
X98900219Y-89598790D01*
X98922646Y-89534701D01*
X98922646Y-89534699D01*
X98925500Y-89504269D01*
X98925500Y-88612333D01*
X98931738Y-88591087D01*
X98933318Y-88568999D01*
X98941390Y-88558215D01*
X98945185Y-88545294D01*
X98961918Y-88530794D01*
X98975190Y-88513066D01*
X98987810Y-88508358D01*
X98997989Y-88499539D01*
X99019906Y-88496387D01*
X99040654Y-88488649D01*
X99053814Y-88491511D01*
X99067147Y-88489595D01*
X99087290Y-88498794D01*
X99108927Y-88503501D01*
X99126652Y-88516769D01*
X99130703Y-88518620D01*
X99137181Y-88524652D01*
X99288181Y-88675652D01*
X99321666Y-88736975D01*
X99324500Y-88763333D01*
X99324500Y-89504269D01*
X99327353Y-89534699D01*
X99327353Y-89534701D01*
X99372206Y-89662880D01*
X99372207Y-89662882D01*
X99452850Y-89772150D01*
X99562118Y-89852793D01*
X99604845Y-89867744D01*
X99690299Y-89897646D01*
X99720730Y-89900500D01*
X99720734Y-89900500D01*
X100354270Y-89900500D01*
X100384699Y-89897646D01*
X100384701Y-89897646D01*
X100448790Y-89875219D01*
X100512882Y-89852793D01*
X100622150Y-89772150D01*
X100702793Y-89662882D01*
X100725219Y-89598790D01*
X100747646Y-89534701D01*
X100747646Y-89534699D01*
X100750500Y-89504269D01*
X100750500Y-88495730D01*
X100747646Y-88465300D01*
X100747646Y-88465298D01*
X100702793Y-88337119D01*
X100702792Y-88337117D01*
X100622150Y-88227850D01*
X100512882Y-88147207D01*
X100512880Y-88147206D01*
X100384700Y-88102353D01*
X100354270Y-88099500D01*
X100354266Y-88099500D01*
X99720734Y-88099500D01*
X99720730Y-88099500D01*
X99690305Y-88102353D01*
X99690296Y-88102355D01*
X99670886Y-88109146D01*
X99601107Y-88112705D01*
X99542255Y-88079784D01*
X98859013Y-87396542D01*
X98859005Y-87396536D01*
X98790496Y-87356983D01*
X98790491Y-87356980D01*
X98765014Y-87350153D01*
X98714063Y-87336501D01*
X98714061Y-87336501D01*
X97235216Y-87336501D01*
X97168177Y-87316816D01*
X97122422Y-87264012D01*
X97120655Y-87259953D01*
X97080535Y-87163093D01*
X97080528Y-87163080D01*
X96967655Y-86994154D01*
X96969830Y-86992700D01*
X96946963Y-86938838D01*
X96958764Y-86869972D01*
X97005923Y-86818418D01*
X97070131Y-86800500D01*
X101375500Y-86800500D01*
X101442539Y-86820185D01*
X101488294Y-86872989D01*
X101499500Y-86924500D01*
X101499500Y-87004269D01*
X101502353Y-87034699D01*
X101502353Y-87034701D01*
X101547206Y-87162880D01*
X101547207Y-87162882D01*
X101627850Y-87272150D01*
X101737118Y-87352793D01*
X101779845Y-87367744D01*
X101865299Y-87397646D01*
X101895730Y-87400500D01*
X101895734Y-87400500D01*
X102529270Y-87400500D01*
X102559699Y-87397646D01*
X102559701Y-87397646D01*
X102623790Y-87375219D01*
X102687882Y-87352793D01*
X102797150Y-87272150D01*
X102877793Y-87162882D01*
X102900219Y-87098790D01*
X102922646Y-87034701D01*
X102922646Y-87034699D01*
X102925500Y-87004269D01*
X102925500Y-85995730D01*
X102922646Y-85965300D01*
X102922646Y-85965298D01*
X102877793Y-85837119D01*
X102877792Y-85837117D01*
X102797150Y-85727850D01*
X102687882Y-85647207D01*
X102687880Y-85647206D01*
X102559700Y-85602353D01*
X102529270Y-85599500D01*
X102529266Y-85599500D01*
X101895734Y-85599500D01*
X101895730Y-85599500D01*
X101865300Y-85602353D01*
X101865298Y-85602353D01*
X101737119Y-85647206D01*
X101737117Y-85647207D01*
X101627850Y-85727850D01*
X101547207Y-85837117D01*
X101547206Y-85837119D01*
X101502353Y-85965298D01*
X101502353Y-85965300D01*
X101499500Y-85995730D01*
X101499500Y-86075500D01*
X101479815Y-86142539D01*
X101427011Y-86188294D01*
X101375500Y-86199500D01*
X96972732Y-86199500D01*
X96943291Y-86190855D01*
X96913305Y-86184332D01*
X96908289Y-86180577D01*
X96905693Y-86179815D01*
X96885051Y-86163181D01*
X96797246Y-86075376D01*
X96763761Y-86014053D01*
X96768745Y-85944361D01*
X96810617Y-85888428D01*
X96816027Y-85884599D01*
X96831682Y-85874140D01*
X96971039Y-85734783D01*
X97080532Y-85570915D01*
X97155951Y-85388836D01*
X97194400Y-85195542D01*
X97194400Y-84998460D01*
X97194400Y-84998457D01*
X97155952Y-84805171D01*
X97155951Y-84805170D01*
X97155951Y-84805166D01*
X97155949Y-84805161D01*
X97080535Y-84623093D01*
X97080528Y-84623080D01*
X96971039Y-84459219D01*
X96971036Y-84459215D01*
X96831685Y-84319864D01*
X96831681Y-84319861D01*
X96667820Y-84210372D01*
X96667807Y-84210365D01*
X96485739Y-84134951D01*
X96485729Y-84134948D01*
X96292443Y-84096501D01*
X96292441Y-84096501D01*
X95095359Y-84096501D01*
X95095357Y-84096501D01*
X94902070Y-84134948D01*
X94902060Y-84134951D01*
X94719992Y-84210365D01*
X94719979Y-84210372D01*
X94556118Y-84319861D01*
X94556114Y-84319864D01*
X94416763Y-84459215D01*
X94416760Y-84459219D01*
X94307271Y-84623080D01*
X94307264Y-84623093D01*
X94231850Y-84805161D01*
X94231847Y-84805171D01*
X94193400Y-84998457D01*
X94193400Y-84998460D01*
X94193400Y-85195542D01*
X94193400Y-85195544D01*
X94193399Y-85195544D01*
X93500500Y-85195544D01*
X93500500Y-82655544D01*
X94193399Y-82655544D01*
X94231847Y-82848830D01*
X94231850Y-82848840D01*
X94307264Y-83030908D01*
X94307271Y-83030921D01*
X94416760Y-83194782D01*
X94416763Y-83194786D01*
X94556114Y-83334137D01*
X94556118Y-83334140D01*
X94719979Y-83443629D01*
X94719992Y-83443636D01*
X94902060Y-83519050D01*
X94902065Y-83519052D01*
X94902069Y-83519052D01*
X94902070Y-83519053D01*
X95095356Y-83557501D01*
X95095359Y-83557501D01*
X96292443Y-83557501D01*
X96422482Y-83531633D01*
X96485735Y-83519052D01*
X96626555Y-83460722D01*
X96667807Y-83443636D01*
X96667807Y-83443635D01*
X96667814Y-83443633D01*
X96831682Y-83334140D01*
X96971039Y-83194783D01*
X97080532Y-83030915D01*
X97155951Y-82848836D01*
X97194400Y-82655542D01*
X97194400Y-82458460D01*
X97194400Y-82458457D01*
X97155952Y-82265171D01*
X97155951Y-82265170D01*
X97155951Y-82265166D01*
X97143254Y-82234512D01*
X97080535Y-82083093D01*
X97080528Y-82083080D01*
X96971039Y-81919219D01*
X96971036Y-81919215D01*
X96831685Y-81779864D01*
X96831681Y-81779861D01*
X96667820Y-81670372D01*
X96667807Y-81670365D01*
X96485739Y-81594951D01*
X96485729Y-81594948D01*
X96292443Y-81556501D01*
X96292441Y-81556501D01*
X95095359Y-81556501D01*
X95095357Y-81556501D01*
X94902070Y-81594948D01*
X94902060Y-81594951D01*
X94719992Y-81670365D01*
X94719979Y-81670372D01*
X94556118Y-81779861D01*
X94556114Y-81779864D01*
X94416763Y-81919215D01*
X94416760Y-81919219D01*
X94307271Y-82083080D01*
X94307264Y-82083093D01*
X94231850Y-82265161D01*
X94231847Y-82265171D01*
X94193400Y-82458457D01*
X94193400Y-82458460D01*
X94193400Y-82655542D01*
X94193400Y-82655544D01*
X94193399Y-82655544D01*
X93500500Y-82655544D01*
X93500500Y-68578439D01*
X93792400Y-68578439D01*
X93792400Y-72892612D01*
X93804179Y-72936572D01*
X93812879Y-72969040D01*
X93812880Y-72969041D01*
X93850836Y-73034784D01*
X93852435Y-73037554D01*
X93852438Y-73037558D01*
X93852440Y-73037561D01*
X94497391Y-73682512D01*
X94553340Y-73738461D01*
X94553342Y-73738462D01*
X94553346Y-73738465D01*
X94621855Y-73778018D01*
X94621862Y-73778022D01*
X94698289Y-73798501D01*
X94704659Y-73798501D01*
X94771698Y-73818186D01*
X94817453Y-73870990D01*
X94827397Y-73940148D01*
X94798372Y-74003704D01*
X94752111Y-74037062D01*
X94719992Y-74050365D01*
X94719979Y-74050372D01*
X94556118Y-74159861D01*
X94556114Y-74159864D01*
X94416763Y-74299215D01*
X94416760Y-74299219D01*
X94307271Y-74463080D01*
X94307264Y-74463093D01*
X94231850Y-74645161D01*
X94231847Y-74645171D01*
X94193400Y-74838457D01*
X94193400Y-74838460D01*
X94193400Y-75035542D01*
X94193400Y-75035544D01*
X94193399Y-75035544D01*
X94231847Y-75228830D01*
X94231850Y-75228840D01*
X94307264Y-75410908D01*
X94307271Y-75410921D01*
X94416760Y-75574782D01*
X94416763Y-75574786D01*
X94556114Y-75714137D01*
X94556118Y-75714140D01*
X94719979Y-75823629D01*
X94719992Y-75823636D01*
X94902060Y-75899050D01*
X94902065Y-75899052D01*
X94902069Y-75899052D01*
X94902070Y-75899053D01*
X95095356Y-75937501D01*
X95095359Y-75937501D01*
X96292443Y-75937501D01*
X96422482Y-75911633D01*
X96485735Y-75899052D01*
X96667814Y-75823633D01*
X96727300Y-75783886D01*
X96801509Y-75734301D01*
X96868186Y-75713423D01*
X96935567Y-75731907D01*
X96982257Y-75783886D01*
X96994400Y-75837403D01*
X96994400Y-76576598D01*
X96974715Y-76643637D01*
X96921911Y-76689392D01*
X96852753Y-76699336D01*
X96801510Y-76679700D01*
X96667825Y-76590375D01*
X96667807Y-76590365D01*
X96485739Y-76514951D01*
X96485729Y-76514948D01*
X96292443Y-76476501D01*
X96292441Y-76476501D01*
X95095359Y-76476501D01*
X95095357Y-76476501D01*
X94902070Y-76514948D01*
X94902060Y-76514951D01*
X94719992Y-76590365D01*
X94719979Y-76590372D01*
X94556118Y-76699861D01*
X94556114Y-76699864D01*
X94416763Y-76839215D01*
X94416760Y-76839219D01*
X94307271Y-77003080D01*
X94307264Y-77003093D01*
X94231850Y-77185161D01*
X94231847Y-77185171D01*
X94193400Y-77378457D01*
X94193400Y-77378460D01*
X94193400Y-77575542D01*
X94193400Y-77575544D01*
X94193399Y-77575544D01*
X94231847Y-77768830D01*
X94231850Y-77768840D01*
X94307264Y-77950908D01*
X94307271Y-77950921D01*
X94416760Y-78114782D01*
X94416763Y-78114786D01*
X94556114Y-78254137D01*
X94556118Y-78254140D01*
X94719979Y-78363629D01*
X94719992Y-78363636D01*
X94902060Y-78439050D01*
X94902065Y-78439052D01*
X94902069Y-78439052D01*
X94902070Y-78439053D01*
X95095356Y-78477501D01*
X95095359Y-78477501D01*
X96292443Y-78477501D01*
X96422482Y-78451633D01*
X96485735Y-78439052D01*
X96667814Y-78363633D01*
X96801509Y-78274301D01*
X96868186Y-78253423D01*
X96935567Y-78271907D01*
X96982257Y-78323886D01*
X96994400Y-78377403D01*
X96994400Y-79116598D01*
X96974715Y-79183637D01*
X96921911Y-79229392D01*
X96852753Y-79239336D01*
X96801510Y-79219700D01*
X96667825Y-79130375D01*
X96667807Y-79130365D01*
X96485739Y-79054951D01*
X96485729Y-79054948D01*
X96292443Y-79016501D01*
X96292441Y-79016501D01*
X95095359Y-79016501D01*
X95095357Y-79016501D01*
X94902070Y-79054948D01*
X94902060Y-79054951D01*
X94719992Y-79130365D01*
X94719979Y-79130372D01*
X94556118Y-79239861D01*
X94556114Y-79239864D01*
X94416763Y-79379215D01*
X94416760Y-79379219D01*
X94307271Y-79543080D01*
X94307264Y-79543093D01*
X94231850Y-79725161D01*
X94231847Y-79725171D01*
X94193400Y-79918457D01*
X94193400Y-79918460D01*
X94193400Y-80115542D01*
X94193400Y-80115544D01*
X94193399Y-80115544D01*
X94231847Y-80308830D01*
X94231850Y-80308840D01*
X94307264Y-80490908D01*
X94307271Y-80490921D01*
X94416760Y-80654782D01*
X94416763Y-80654786D01*
X94556114Y-80794137D01*
X94556118Y-80794140D01*
X94719979Y-80903629D01*
X94719992Y-80903636D01*
X94902060Y-80979050D01*
X94902065Y-80979052D01*
X94902069Y-80979052D01*
X94902070Y-80979053D01*
X95095356Y-81017501D01*
X95095359Y-81017501D01*
X96292443Y-81017501D01*
X96478812Y-80980429D01*
X96485735Y-80979052D01*
X96667814Y-80903633D01*
X96801509Y-80814301D01*
X96868186Y-80793423D01*
X96935567Y-80811907D01*
X96982257Y-80863886D01*
X96994400Y-80917403D01*
X96994400Y-81144462D01*
X97008052Y-81195413D01*
X97014879Y-81220890D01*
X97014882Y-81220895D01*
X97054435Y-81289404D01*
X97054441Y-81289412D01*
X98512924Y-82747895D01*
X98546409Y-82809218D01*
X98541425Y-82878910D01*
X98539804Y-82883029D01*
X98489870Y-83003579D01*
X98489868Y-83003587D01*
X98449500Y-83206530D01*
X98449500Y-83413469D01*
X98489868Y-83616412D01*
X98489870Y-83616420D01*
X98569058Y-83807596D01*
X98684024Y-83979657D01*
X98830342Y-84125975D01*
X98830345Y-84125977D01*
X99002402Y-84240941D01*
X99193580Y-84320130D01*
X99396530Y-84360499D01*
X99396534Y-84360500D01*
X99396535Y-84360500D01*
X99603466Y-84360500D01*
X99603467Y-84360499D01*
X99806420Y-84320130D01*
X99997598Y-84240941D01*
X100169655Y-84125977D01*
X100315977Y-83979655D01*
X100430941Y-83807598D01*
X100510130Y-83616420D01*
X100550500Y-83413465D01*
X100550500Y-83206535D01*
X100510130Y-83003580D01*
X100430941Y-82812402D01*
X100315977Y-82640345D01*
X100315975Y-82640342D01*
X100169657Y-82494024D01*
X100068609Y-82426507D01*
X99997598Y-82379059D01*
X99945002Y-82357273D01*
X99806420Y-82299870D01*
X99806412Y-82299868D01*
X99603469Y-82259500D01*
X99603465Y-82259500D01*
X99396535Y-82259500D01*
X99396530Y-82259500D01*
X99193587Y-82299868D01*
X99193579Y-82299870D01*
X99073029Y-82349804D01*
X99003559Y-82357273D01*
X98941080Y-82325998D01*
X98937895Y-82322924D01*
X97631719Y-81016748D01*
X97598234Y-80955425D01*
X97595400Y-80929067D01*
X97595400Y-74103391D01*
X97595400Y-74103390D01*
X97574921Y-74026963D01*
X97574917Y-74026956D01*
X97535364Y-73958447D01*
X97535358Y-73958439D01*
X96879052Y-73302133D01*
X96845567Y-73240810D01*
X96850551Y-73171118D01*
X96879052Y-73126771D01*
X96971038Y-73034785D01*
X96971039Y-73034783D01*
X97080532Y-72870915D01*
X97155951Y-72688836D01*
X97194400Y-72495542D01*
X97194400Y-72381834D01*
X97214085Y-72314795D01*
X97266889Y-72269040D01*
X97336047Y-72259096D01*
X97399603Y-72288121D01*
X97406081Y-72294153D01*
X98012181Y-72900253D01*
X98045666Y-72961576D01*
X98048500Y-72987934D01*
X98048500Y-79658562D01*
X98049738Y-79663181D01*
X98068979Y-79734990D01*
X98068980Y-79734991D01*
X98083344Y-79759870D01*
X98083345Y-79759871D01*
X98108539Y-79803509D01*
X98108541Y-79803512D01*
X98512924Y-80207895D01*
X98546409Y-80269218D01*
X98541425Y-80338910D01*
X98539804Y-80343029D01*
X98489870Y-80463579D01*
X98489868Y-80463587D01*
X98449500Y-80666530D01*
X98449500Y-80873469D01*
X98489868Y-81076412D01*
X98489870Y-81076420D01*
X98569058Y-81267596D01*
X98684024Y-81439657D01*
X98830342Y-81585975D01*
X98830345Y-81585977D01*
X99002402Y-81700941D01*
X99193580Y-81780130D01*
X99396530Y-81820499D01*
X99396534Y-81820500D01*
X99396535Y-81820500D01*
X99603466Y-81820500D01*
X99603467Y-81820499D01*
X99806420Y-81780130D01*
X99997598Y-81700941D01*
X100169655Y-81585977D01*
X100315977Y-81439655D01*
X100430941Y-81267598D01*
X100510130Y-81076420D01*
X100550500Y-80873465D01*
X100550500Y-80666535D01*
X100510130Y-80463580D01*
X100430941Y-80272402D01*
X100315977Y-80100345D01*
X100315975Y-80100342D01*
X100169657Y-79954024D01*
X100015210Y-79850827D01*
X99997598Y-79839059D01*
X99945002Y-79817273D01*
X99806420Y-79759870D01*
X99806412Y-79759868D01*
X99603469Y-79719500D01*
X99603465Y-79719500D01*
X99396535Y-79719500D01*
X99396530Y-79719500D01*
X99193587Y-79759868D01*
X99193579Y-79759870D01*
X99073029Y-79809804D01*
X99003559Y-79817273D01*
X98941080Y-79785998D01*
X98937895Y-79782924D01*
X98685819Y-79530848D01*
X98652334Y-79469525D01*
X98649500Y-79443167D01*
X98649500Y-79157128D01*
X98669185Y-79090089D01*
X98721989Y-79044334D01*
X98791147Y-79034390D01*
X98842390Y-79054026D01*
X99002400Y-79160940D01*
X99002401Y-79160940D01*
X99002402Y-79160941D01*
X99193580Y-79240130D01*
X99396530Y-79280499D01*
X99396534Y-79280500D01*
X99396535Y-79280500D01*
X99603466Y-79280500D01*
X99603467Y-79280499D01*
X99806420Y-79240130D01*
X99926974Y-79190194D01*
X99996438Y-79182726D01*
X100058918Y-79214000D01*
X100062104Y-79217075D01*
X101029540Y-80184511D01*
X101085489Y-80240460D01*
X101085491Y-80240461D01*
X101085495Y-80240464D01*
X101140814Y-80272402D01*
X101154011Y-80280021D01*
X101230438Y-80300500D01*
X101309562Y-80300500D01*
X104956489Y-80300500D01*
X104981776Y-80307925D01*
X105007872Y-80311647D01*
X105017727Y-80318481D01*
X105023528Y-80320185D01*
X105037585Y-80330695D01*
X105040987Y-80333636D01*
X105080201Y-80372850D01*
X105093542Y-80379071D01*
X105106596Y-80390356D01*
X105116547Y-80405802D01*
X105130339Y-80417944D01*
X105135205Y-80434762D01*
X105144437Y-80449091D01*
X105144457Y-80466733D01*
X105149500Y-80484161D01*
X105149500Y-83299562D01*
X105169979Y-83375989D01*
X105169980Y-83375991D01*
X105169979Y-83375991D01*
X105174554Y-83383914D01*
X105174556Y-83383916D01*
X105174557Y-83383918D01*
X105191618Y-83413469D01*
X105209539Y-83444510D01*
X108714181Y-86949152D01*
X108747666Y-87010475D01*
X108750500Y-87036833D01*
X108750500Y-87844398D01*
X108730815Y-87911437D01*
X108678011Y-87957192D01*
X108608853Y-87967136D01*
X108545297Y-87938111D01*
X108538819Y-87932079D01*
X108489061Y-87882321D01*
X108489052Y-87882314D01*
X108347696Y-87798717D01*
X108347693Y-87798716D01*
X108189995Y-87752900D01*
X108189989Y-87752899D01*
X108153149Y-87750000D01*
X107750000Y-87750000D01*
X107750000Y-89350000D01*
X108153134Y-89350000D01*
X108153149Y-89349999D01*
X108189989Y-89347100D01*
X108189995Y-89347099D01*
X108347693Y-89301283D01*
X108347696Y-89301282D01*
X108489052Y-89217685D01*
X108489061Y-89217678D01*
X108538819Y-89167921D01*
X108600142Y-89134436D01*
X108669834Y-89139420D01*
X108725767Y-89181292D01*
X108750184Y-89246756D01*
X108750500Y-89255602D01*
X108750500Y-96253663D01*
X108764152Y-96304614D01*
X108770979Y-96330091D01*
X108770982Y-96330096D01*
X108810535Y-96398605D01*
X108810541Y-96398613D01*
X114310553Y-101898625D01*
X114344038Y-101959948D01*
X114339054Y-102029640D01*
X114306451Y-102077906D01*
X114299539Y-102084212D01*
X114276118Y-102099862D01*
X114210786Y-102165193D01*
X114208697Y-102167100D01*
X114179753Y-102181225D01*
X114151477Y-102196666D01*
X114147167Y-102197129D01*
X114145906Y-102197745D01*
X114143774Y-102197494D01*
X114125118Y-102199500D01*
X108160700Y-102199500D01*
X108093661Y-102179815D01*
X108047906Y-102127011D01*
X108036700Y-102075500D01*
X108036700Y-101769049D01*
X108036699Y-101769047D01*
X108025068Y-101710570D01*
X108025067Y-101710569D01*
X107980752Y-101644247D01*
X107914430Y-101599932D01*
X107914429Y-101599931D01*
X107855952Y-101588300D01*
X107855948Y-101588300D01*
X106689633Y-101588300D01*
X106622594Y-101568615D01*
X106601952Y-101551981D01*
X101636819Y-96586848D01*
X101603334Y-96525525D01*
X101600500Y-96499167D01*
X101600500Y-93001969D01*
X101620185Y-92934930D01*
X101672989Y-92889175D01*
X101683525Y-92884934D01*
X101775382Y-92852793D01*
X101884650Y-92772150D01*
X101965293Y-92662882D01*
X101987719Y-92598790D01*
X102010146Y-92534701D01*
X102010146Y-92534699D01*
X102013000Y-92504269D01*
X102013000Y-91495730D01*
X102412000Y-91495730D01*
X102412000Y-92504269D01*
X102414853Y-92534699D01*
X102414853Y-92534701D01*
X102459706Y-92662880D01*
X102459707Y-92662882D01*
X102540350Y-92772150D01*
X102649618Y-92852793D01*
X102741457Y-92884929D01*
X102798231Y-92925649D01*
X102823978Y-92990602D01*
X102824500Y-93001969D01*
X102824500Y-93539562D01*
X102841667Y-93603629D01*
X102844979Y-93615989D01*
X102881388Y-93679052D01*
X102884537Y-93684507D01*
X102884542Y-93684513D01*
X106244156Y-97044127D01*
X106277641Y-97105450D01*
X106272657Y-97175142D01*
X106271037Y-97179258D01*
X106248336Y-97234065D01*
X106248333Y-97234074D01*
X106213300Y-97410200D01*
X106213300Y-97589799D01*
X106248334Y-97765925D01*
X106248336Y-97765933D01*
X106317060Y-97931850D01*
X106416836Y-98081174D01*
X106416839Y-98081178D01*
X106543821Y-98208160D01*
X106543825Y-98208163D01*
X106693149Y-98307939D01*
X106776107Y-98342301D01*
X106859067Y-98376664D01*
X107035200Y-98411699D01*
X107035203Y-98411700D01*
X107035205Y-98411700D01*
X107214797Y-98411700D01*
X107214798Y-98411699D01*
X107390933Y-98376664D01*
X107556852Y-98307938D01*
X107706175Y-98208163D01*
X107833163Y-98081175D01*
X107932938Y-97931852D01*
X108001664Y-97765933D01*
X108036700Y-97589795D01*
X108036700Y-97410205D01*
X108036700Y-97410202D01*
X108036699Y-97410200D01*
X108001665Y-97234074D01*
X108001664Y-97234067D01*
X107967301Y-97151107D01*
X107932939Y-97068149D01*
X107833163Y-96918825D01*
X107833160Y-96918821D01*
X107706178Y-96791839D01*
X107706174Y-96791836D01*
X107556850Y-96692060D01*
X107390933Y-96623336D01*
X107390925Y-96623334D01*
X107214798Y-96588300D01*
X107214795Y-96588300D01*
X107035205Y-96588300D01*
X107035202Y-96588300D01*
X106859074Y-96623333D01*
X106859065Y-96623336D01*
X106804258Y-96646037D01*
X106734788Y-96653504D01*
X106672310Y-96622228D01*
X106669127Y-96619156D01*
X103461819Y-93411848D01*
X103428334Y-93350525D01*
X103425500Y-93324167D01*
X103425500Y-93001969D01*
X103445185Y-92934930D01*
X103497989Y-92889175D01*
X103508525Y-92884934D01*
X103600382Y-92852793D01*
X103709650Y-92772150D01*
X103790293Y-92662882D01*
X103812719Y-92598790D01*
X103835146Y-92534701D01*
X103835146Y-92534699D01*
X103838000Y-92504269D01*
X103838000Y-92424500D01*
X103857685Y-92357461D01*
X103910489Y-92311706D01*
X103962000Y-92300500D01*
X104039560Y-92300500D01*
X104039562Y-92300500D01*
X104115989Y-92280021D01*
X104184511Y-92240460D01*
X104240460Y-92184511D01*
X105638152Y-90786819D01*
X105699475Y-90753334D01*
X105725833Y-90750500D01*
X106519503Y-90750500D01*
X106586542Y-90770185D01*
X106620423Y-90802450D01*
X106623305Y-90806487D01*
X106706014Y-90889196D01*
X106706015Y-90889196D01*
X106706017Y-90889198D01*
X106811107Y-90940573D01*
X106845173Y-90945536D01*
X106879239Y-90950500D01*
X106879240Y-90950500D01*
X108120761Y-90950500D01*
X108143471Y-90947191D01*
X108188893Y-90940573D01*
X108293983Y-90889198D01*
X108376698Y-90806483D01*
X108428073Y-90701393D01*
X108438000Y-90633260D01*
X108438000Y-90266740D01*
X108428073Y-90198607D01*
X108376698Y-90093517D01*
X108376696Y-90093515D01*
X108376696Y-90093514D01*
X108293985Y-90010803D01*
X108188891Y-89959426D01*
X108120761Y-89949500D01*
X108120760Y-89949500D01*
X106879240Y-89949500D01*
X106879239Y-89949500D01*
X106811108Y-89959426D01*
X106706014Y-90010803D01*
X106623305Y-90093512D01*
X106620423Y-90097550D01*
X106565449Y-90140674D01*
X106519503Y-90149500D01*
X106508044Y-90149500D01*
X106441005Y-90129815D01*
X106395250Y-90077011D01*
X106385306Y-90007853D01*
X106414331Y-89944297D01*
X106420363Y-89937819D01*
X106501696Y-89856485D01*
X106501698Y-89856483D01*
X106553073Y-89751393D01*
X106563000Y-89683260D01*
X106563000Y-89440489D01*
X106582685Y-89373450D01*
X106635489Y-89327695D01*
X106704647Y-89317751D01*
X106721596Y-89321413D01*
X106810007Y-89347099D01*
X106810010Y-89347100D01*
X106846850Y-89349999D01*
X106846866Y-89350000D01*
X107250000Y-89350000D01*
X107250000Y-88800000D01*
X106265205Y-88800000D01*
X106265204Y-88800001D01*
X106265399Y-88802486D01*
X106276561Y-88840905D01*
X106276361Y-88910775D01*
X106238418Y-88969445D01*
X106174780Y-88998288D01*
X106157484Y-88999500D01*
X105600833Y-88999500D01*
X105533794Y-88979815D01*
X105513152Y-88963181D01*
X104849969Y-88299998D01*
X106265204Y-88299998D01*
X106265205Y-88300000D01*
X107250000Y-88300000D01*
X107250000Y-87750000D01*
X106846850Y-87750000D01*
X106810010Y-87752899D01*
X106810004Y-87752900D01*
X106652306Y-87798716D01*
X106652303Y-87798717D01*
X106510947Y-87882314D01*
X106510938Y-87882321D01*
X106394821Y-87998438D01*
X106394814Y-87998447D01*
X106311218Y-88139801D01*
X106265399Y-88297513D01*
X106265204Y-88299998D01*
X104849969Y-88299998D01*
X104374319Y-87824348D01*
X104359615Y-87797420D01*
X104343023Y-87771602D01*
X104342131Y-87765401D01*
X104340834Y-87763025D01*
X104338000Y-87736667D01*
X104338000Y-87501969D01*
X104357685Y-87434930D01*
X104410489Y-87389175D01*
X104421025Y-87384934D01*
X104512882Y-87352793D01*
X104622150Y-87272150D01*
X104702793Y-87162882D01*
X104725219Y-87098790D01*
X104747646Y-87034701D01*
X104747646Y-87034699D01*
X104750500Y-87004269D01*
X104750500Y-85995730D01*
X104747646Y-85965300D01*
X104747646Y-85965298D01*
X104702793Y-85837119D01*
X104702792Y-85837117D01*
X104622150Y-85727850D01*
X104512882Y-85647207D01*
X104512880Y-85647206D01*
X104384700Y-85602353D01*
X104354270Y-85599500D01*
X104354266Y-85599500D01*
X103720734Y-85599500D01*
X103720730Y-85599500D01*
X103690300Y-85602353D01*
X103690298Y-85602353D01*
X103562119Y-85647206D01*
X103562117Y-85647207D01*
X103452850Y-85727850D01*
X103372207Y-85837117D01*
X103372206Y-85837119D01*
X103327353Y-85965298D01*
X103327353Y-85965300D01*
X103324500Y-85995730D01*
X103324500Y-87004269D01*
X103327353Y-87034699D01*
X103327353Y-87034701D01*
X103372206Y-87162880D01*
X103372207Y-87162882D01*
X103452850Y-87272150D01*
X103562118Y-87352793D01*
X103653957Y-87384929D01*
X103710731Y-87425649D01*
X103736478Y-87490602D01*
X103737000Y-87501969D01*
X103737000Y-87952062D01*
X103749427Y-87998438D01*
X103757479Y-88028490D01*
X103757482Y-88028495D01*
X103797035Y-88097004D01*
X103797041Y-88097012D01*
X104716972Y-89016943D01*
X104750457Y-89078266D01*
X104745473Y-89147958D01*
X104740692Y-89159084D01*
X104696926Y-89248608D01*
X104687000Y-89316739D01*
X104687000Y-89683260D01*
X104696926Y-89751391D01*
X104748303Y-89856485D01*
X104831014Y-89939196D01*
X104831015Y-89939196D01*
X104831017Y-89939198D01*
X104936107Y-89990573D01*
X104970173Y-89995536D01*
X105004239Y-90000500D01*
X105275167Y-90000500D01*
X105342206Y-90020185D01*
X105387961Y-90072989D01*
X105397905Y-90142147D01*
X105368880Y-90205703D01*
X105362848Y-90212181D01*
X104044784Y-91530244D01*
X103983461Y-91563729D01*
X103913769Y-91558745D01*
X103857836Y-91516873D01*
X103835958Y-91469019D01*
X103835145Y-91465300D01*
X103790293Y-91337118D01*
X103709650Y-91227850D01*
X103600382Y-91147207D01*
X103600380Y-91147206D01*
X103472200Y-91102353D01*
X103441770Y-91099500D01*
X103441766Y-91099500D01*
X102808234Y-91099500D01*
X102808230Y-91099500D01*
X102777800Y-91102353D01*
X102777798Y-91102353D01*
X102649619Y-91147206D01*
X102649617Y-91147207D01*
X102540350Y-91227850D01*
X102459707Y-91337117D01*
X102459706Y-91337119D01*
X102414853Y-91465298D01*
X102414853Y-91465300D01*
X102412000Y-91495730D01*
X102013000Y-91495730D01*
X102010146Y-91465300D01*
X102010146Y-91465298D01*
X101965293Y-91337119D01*
X101965292Y-91337117D01*
X101884650Y-91227850D01*
X101775382Y-91147207D01*
X101775380Y-91147206D01*
X101647200Y-91102353D01*
X101616770Y-91099500D01*
X101616766Y-91099500D01*
X100983234Y-91099500D01*
X100983230Y-91099500D01*
X100952800Y-91102353D01*
X100952798Y-91102353D01*
X100824619Y-91147206D01*
X100824617Y-91147207D01*
X100715350Y-91227850D01*
X100634707Y-91337117D01*
X100634706Y-91337119D01*
X100589853Y-91465298D01*
X100589853Y-91465300D01*
X100587000Y-91495730D01*
X100587000Y-92504269D01*
X100589853Y-92534699D01*
X100589853Y-92534701D01*
X100634706Y-92662880D01*
X100634707Y-92662882D01*
X100715350Y-92772150D01*
X100824618Y-92852793D01*
X100916457Y-92884929D01*
X100973231Y-92925649D01*
X100998978Y-92990602D01*
X100999500Y-93001969D01*
X100999500Y-96714562D01*
X101019979Y-96790989D01*
X101019980Y-96790990D01*
X101020469Y-96791837D01*
X101020491Y-96791877D01*
X101059535Y-96859504D01*
X101059541Y-96859512D01*
X106176981Y-101976952D01*
X106210466Y-102038275D01*
X106213300Y-102064633D01*
X106213300Y-103230952D01*
X106224931Y-103289429D01*
X106224932Y-103289430D01*
X106269247Y-103355752D01*
X106335569Y-103400067D01*
X106335570Y-103400068D01*
X106394047Y-103411699D01*
X106394050Y-103411700D01*
X106394052Y-103411700D01*
X107855950Y-103411700D01*
X107855951Y-103411699D01*
X107870768Y-103408752D01*
X107914429Y-103400068D01*
X107914429Y-103400067D01*
X107914431Y-103400067D01*
X107980752Y-103355752D01*
X108025067Y-103289431D01*
X108025067Y-103289429D01*
X108025068Y-103289429D01*
X108036699Y-103230952D01*
X108036700Y-103230950D01*
X108036700Y-102924500D01*
X108056385Y-102857461D01*
X108109189Y-102811706D01*
X108160700Y-102800500D01*
X113789400Y-102800500D01*
X113856439Y-102820185D01*
X113902194Y-102872989D01*
X113913400Y-102924500D01*
X113913400Y-102975542D01*
X113913400Y-102975544D01*
X113913399Y-102975544D01*
X113951847Y-103168830D01*
X113951850Y-103168840D01*
X114027264Y-103350908D01*
X114027271Y-103350921D01*
X114136760Y-103514782D01*
X114136763Y-103514786D01*
X114276114Y-103654137D01*
X114276118Y-103654140D01*
X114439979Y-103763629D01*
X114439992Y-103763636D01*
X114622060Y-103839050D01*
X114622065Y-103839052D01*
X114622069Y-103839052D01*
X114622070Y-103839053D01*
X114815356Y-103877501D01*
X114815359Y-103877501D01*
X116012443Y-103877501D01*
X116142482Y-103851633D01*
X116205735Y-103839052D01*
X116387814Y-103763633D01*
X116551682Y-103654140D01*
X116691039Y-103514783D01*
X116800532Y-103350915D01*
X116875951Y-103168836D01*
X116914400Y-102975542D01*
X116914400Y-102778460D01*
X116914400Y-102778457D01*
X116875952Y-102585171D01*
X116875951Y-102585170D01*
X116875951Y-102585166D01*
X116875949Y-102585161D01*
X116800535Y-102403093D01*
X116800528Y-102403080D01*
X116691039Y-102239219D01*
X116691036Y-102239215D01*
X116551685Y-102099864D01*
X116551681Y-102099861D01*
X116387820Y-101990372D01*
X116387807Y-101990365D01*
X116205739Y-101914951D01*
X116205729Y-101914948D01*
X116012443Y-101876501D01*
X116012441Y-101876501D01*
X115189733Y-101876501D01*
X115122694Y-101856816D01*
X115102052Y-101840182D01*
X114811052Y-101549182D01*
X114777567Y-101487859D01*
X114782551Y-101418167D01*
X114824423Y-101362234D01*
X114889887Y-101337817D01*
X114898733Y-101337501D01*
X116012443Y-101337501D01*
X116142482Y-101311633D01*
X116205735Y-101299052D01*
X116387814Y-101223633D01*
X116551682Y-101114140D01*
X116691039Y-100974783D01*
X116800532Y-100810915D01*
X116875951Y-100628836D01*
X116908548Y-100464962D01*
X116914400Y-100435544D01*
X116914400Y-100238457D01*
X116875952Y-100045171D01*
X116875951Y-100045170D01*
X116875951Y-100045166D01*
X116863188Y-100014352D01*
X116800535Y-99863093D01*
X116800528Y-99863080D01*
X116691039Y-99699219D01*
X116691036Y-99699215D01*
X116551685Y-99559864D01*
X116551681Y-99559861D01*
X116387820Y-99450372D01*
X116387807Y-99450365D01*
X116205739Y-99374951D01*
X116205729Y-99374948D01*
X116024837Y-99338966D01*
X115962926Y-99306581D01*
X115928352Y-99245865D01*
X115932092Y-99176096D01*
X115972959Y-99119424D01*
X116029631Y-99094876D01*
X116218317Y-99064991D01*
X116412931Y-99001756D01*
X116595249Y-98908860D01*
X116760794Y-98788583D01*
X116760795Y-98788583D01*
X116905482Y-98643896D01*
X116905482Y-98643895D01*
X117025759Y-98478350D01*
X117118655Y-98296030D01*
X117181890Y-98101414D01*
X117190509Y-98047001D01*
X116146912Y-98047001D01*
X116179825Y-97989994D01*
X116213900Y-97862827D01*
X116213900Y-97731175D01*
X116179825Y-97604008D01*
X116146912Y-97547001D01*
X117190509Y-97547001D01*
X117181890Y-97492587D01*
X117118655Y-97297971D01*
X117025759Y-97115651D01*
X116905482Y-96950106D01*
X116905482Y-96950105D01*
X116760795Y-96805418D01*
X116595249Y-96685141D01*
X116412931Y-96592245D01*
X116218317Y-96529010D01*
X116029631Y-96499125D01*
X115966496Y-96469195D01*
X115929565Y-96409884D01*
X115930563Y-96340021D01*
X115969173Y-96281789D01*
X116024838Y-96255035D01*
X116205735Y-96219052D01*
X116387814Y-96143633D01*
X116551682Y-96034140D01*
X116691039Y-95894783D01*
X116800532Y-95730915D01*
X116875951Y-95548836D01*
X116914400Y-95355542D01*
X116914400Y-95158460D01*
X116914400Y-95158457D01*
X116875952Y-94965171D01*
X116875951Y-94965170D01*
X116875951Y-94965166D01*
X116875949Y-94965161D01*
X116800535Y-94783093D01*
X116800528Y-94783080D01*
X116691039Y-94619219D01*
X116691036Y-94619215D01*
X116551685Y-94479864D01*
X116551681Y-94479861D01*
X116387820Y-94370372D01*
X116387807Y-94370365D01*
X116205739Y-94294951D01*
X116205729Y-94294948D01*
X116012443Y-94256501D01*
X116012441Y-94256501D01*
X114815359Y-94256501D01*
X114815357Y-94256501D01*
X114622070Y-94294948D01*
X114622060Y-94294951D01*
X114439992Y-94370365D01*
X114439979Y-94370372D01*
X114276118Y-94479861D01*
X114276114Y-94479864D01*
X114136763Y-94619215D01*
X114136760Y-94619219D01*
X114027271Y-94783080D01*
X114027264Y-94783093D01*
X113951850Y-94965161D01*
X113951847Y-94965171D01*
X113913400Y-95158457D01*
X113913400Y-95158460D01*
X113913400Y-95355542D01*
X113913400Y-95355544D01*
X113913399Y-95355544D01*
X113951847Y-95548830D01*
X113951850Y-95548840D01*
X114027264Y-95730908D01*
X114027271Y-95730921D01*
X114136760Y-95894782D01*
X114136763Y-95894786D01*
X114276114Y-96034137D01*
X114276118Y-96034140D01*
X114439979Y-96143629D01*
X114439992Y-96143636D01*
X114622060Y-96219050D01*
X114622065Y-96219052D01*
X114713582Y-96237256D01*
X114802961Y-96255035D01*
X114864872Y-96287420D01*
X114899446Y-96348135D01*
X114895707Y-96417905D01*
X114854840Y-96474577D01*
X114798169Y-96499125D01*
X114609481Y-96529011D01*
X114414868Y-96592245D01*
X114232550Y-96685141D01*
X114067005Y-96805418D01*
X114067004Y-96805418D01*
X113922317Y-96950105D01*
X113922317Y-96950106D01*
X113802040Y-97115651D01*
X113709144Y-97297971D01*
X113645909Y-97492587D01*
X113637291Y-97547001D01*
X115280888Y-97547001D01*
X115247975Y-97604008D01*
X115213900Y-97731175D01*
X115213900Y-97862827D01*
X115247975Y-97989994D01*
X115280888Y-98047001D01*
X113637291Y-98047001D01*
X113645909Y-98101414D01*
X113709144Y-98296030D01*
X113802040Y-98478350D01*
X113922317Y-98643895D01*
X113922317Y-98643896D01*
X114067004Y-98788583D01*
X114232550Y-98908860D01*
X114414868Y-99001756D01*
X114609482Y-99064991D01*
X114798168Y-99094876D01*
X114861303Y-99124805D01*
X114898234Y-99184117D01*
X114897236Y-99253979D01*
X114858626Y-99312212D01*
X114802962Y-99338966D01*
X114622070Y-99374948D01*
X114622060Y-99374951D01*
X114439992Y-99450365D01*
X114439979Y-99450372D01*
X114276118Y-99559861D01*
X114276114Y-99559864D01*
X114136763Y-99699215D01*
X114136760Y-99699219D01*
X114027271Y-99863080D01*
X114027264Y-99863093D01*
X113951850Y-100045161D01*
X113951847Y-100045171D01*
X113913400Y-100238457D01*
X113913400Y-100352168D01*
X113893715Y-100419207D01*
X113840911Y-100464962D01*
X113771753Y-100474906D01*
X113708197Y-100445881D01*
X113701719Y-100439849D01*
X109387819Y-96125949D01*
X109354334Y-96064626D01*
X109351500Y-96038268D01*
X109351500Y-92815544D01*
X113913399Y-92815544D01*
X113951847Y-93008830D01*
X113951850Y-93008840D01*
X114027264Y-93190908D01*
X114027271Y-93190921D01*
X114136760Y-93354782D01*
X114136763Y-93354786D01*
X114276114Y-93494137D01*
X114276118Y-93494140D01*
X114439979Y-93603629D01*
X114439992Y-93603636D01*
X114622060Y-93679050D01*
X114622065Y-93679052D01*
X114622069Y-93679052D01*
X114622070Y-93679053D01*
X114815356Y-93717501D01*
X114815359Y-93717501D01*
X116012443Y-93717501D01*
X116142482Y-93691633D01*
X116205735Y-93679052D01*
X116387814Y-93603633D01*
X116551682Y-93494140D01*
X116691039Y-93354783D01*
X116800532Y-93190915D01*
X116875951Y-93008836D01*
X116900598Y-92884927D01*
X116914400Y-92815544D01*
X116914400Y-92618457D01*
X116875952Y-92425171D01*
X116875951Y-92425170D01*
X116875951Y-92425166D01*
X116824313Y-92300500D01*
X116800535Y-92243093D01*
X116800528Y-92243080D01*
X116691039Y-92079219D01*
X116691036Y-92079215D01*
X116551685Y-91939864D01*
X116551681Y-91939861D01*
X116387820Y-91830372D01*
X116387807Y-91830365D01*
X116205739Y-91754951D01*
X116205729Y-91754948D01*
X116012443Y-91716501D01*
X116012441Y-91716501D01*
X114815359Y-91716501D01*
X114815357Y-91716501D01*
X114622070Y-91754948D01*
X114622060Y-91754951D01*
X114439992Y-91830365D01*
X114439979Y-91830372D01*
X114276118Y-91939861D01*
X114276114Y-91939864D01*
X114136763Y-92079215D01*
X114136760Y-92079219D01*
X114027271Y-92243080D01*
X114027264Y-92243093D01*
X113951850Y-92425161D01*
X113951847Y-92425171D01*
X113913400Y-92618457D01*
X113913400Y-92618460D01*
X113913400Y-92815542D01*
X113913400Y-92815544D01*
X113913399Y-92815544D01*
X109351500Y-92815544D01*
X109351500Y-90275544D01*
X113913399Y-90275544D01*
X113951847Y-90468830D01*
X113951850Y-90468840D01*
X114027264Y-90650908D01*
X114027271Y-90650921D01*
X114136760Y-90814782D01*
X114136763Y-90814786D01*
X114276114Y-90954137D01*
X114276118Y-90954140D01*
X114439979Y-91063629D01*
X114439992Y-91063636D01*
X114533467Y-91102354D01*
X114622065Y-91139052D01*
X114622069Y-91139052D01*
X114622070Y-91139053D01*
X114815356Y-91177501D01*
X114815359Y-91177501D01*
X116012443Y-91177501D01*
X116142482Y-91151633D01*
X116205735Y-91139052D01*
X116387814Y-91063633D01*
X116551682Y-90954140D01*
X116691039Y-90814783D01*
X116800532Y-90650915D01*
X116875951Y-90468836D01*
X116914400Y-90275542D01*
X116914400Y-90078460D01*
X116914400Y-90078457D01*
X116875952Y-89885171D01*
X116875951Y-89885170D01*
X116875951Y-89885166D01*
X116862542Y-89852793D01*
X116800535Y-89703093D01*
X116800528Y-89703080D01*
X116691039Y-89539219D01*
X116691036Y-89539215D01*
X116551685Y-89399864D01*
X116551681Y-89399861D01*
X116387820Y-89290372D01*
X116387807Y-89290365D01*
X116205739Y-89214951D01*
X116205729Y-89214948D01*
X116012443Y-89176501D01*
X116012441Y-89176501D01*
X114815359Y-89176501D01*
X114815357Y-89176501D01*
X114622070Y-89214948D01*
X114622060Y-89214951D01*
X114439992Y-89290365D01*
X114439979Y-89290372D01*
X114276118Y-89399861D01*
X114276114Y-89399864D01*
X114136763Y-89539215D01*
X114136760Y-89539219D01*
X114027271Y-89703080D01*
X114027264Y-89703093D01*
X113951850Y-89885161D01*
X113951847Y-89885171D01*
X113913400Y-90078457D01*
X113913400Y-90078460D01*
X113913400Y-90275542D01*
X113913400Y-90275544D01*
X113913399Y-90275544D01*
X109351500Y-90275544D01*
X109351500Y-87735544D01*
X113913399Y-87735544D01*
X113951847Y-87928830D01*
X113951850Y-87928840D01*
X114027264Y-88110908D01*
X114027271Y-88110921D01*
X114136760Y-88274782D01*
X114136763Y-88274786D01*
X114276114Y-88414137D01*
X114276118Y-88414140D01*
X114439979Y-88523629D01*
X114439992Y-88523636D01*
X114622060Y-88599050D01*
X114622065Y-88599052D01*
X114622069Y-88599052D01*
X114622070Y-88599053D01*
X114815356Y-88637501D01*
X114815359Y-88637501D01*
X116012443Y-88637501D01*
X116142482Y-88611633D01*
X116205735Y-88599052D01*
X116387814Y-88523633D01*
X116551682Y-88414140D01*
X116691039Y-88274783D01*
X116800532Y-88110915D01*
X116804079Y-88102353D01*
X116847121Y-87998438D01*
X116875951Y-87928836D01*
X116908461Y-87765401D01*
X116914400Y-87735544D01*
X116914400Y-87538457D01*
X116875952Y-87345171D01*
X116875951Y-87345170D01*
X116875951Y-87345166D01*
X116840655Y-87259953D01*
X116800535Y-87163093D01*
X116800528Y-87163080D01*
X116691039Y-86999219D01*
X116691036Y-86999215D01*
X116551685Y-86859864D01*
X116551681Y-86859861D01*
X116387820Y-86750372D01*
X116387807Y-86750365D01*
X116205739Y-86674951D01*
X116205729Y-86674948D01*
X116012443Y-86636501D01*
X116012441Y-86636501D01*
X114815359Y-86636501D01*
X114815357Y-86636501D01*
X114622070Y-86674948D01*
X114622060Y-86674951D01*
X114439992Y-86750365D01*
X114439979Y-86750372D01*
X114276118Y-86859861D01*
X114276114Y-86859864D01*
X114136763Y-86999215D01*
X114136760Y-86999219D01*
X114027271Y-87163080D01*
X114027264Y-87163093D01*
X113951850Y-87345161D01*
X113951847Y-87345171D01*
X113913400Y-87538457D01*
X113913400Y-87538460D01*
X113913400Y-87735542D01*
X113913400Y-87735544D01*
X113913399Y-87735544D01*
X109351500Y-87735544D01*
X109351500Y-86821439D01*
X109350691Y-86818418D01*
X109331021Y-86745011D01*
X109315533Y-86718184D01*
X109291464Y-86676495D01*
X109291458Y-86676487D01*
X107810515Y-85195544D01*
X113913399Y-85195544D01*
X113951847Y-85388830D01*
X113951850Y-85388840D01*
X114027264Y-85570908D01*
X114027271Y-85570921D01*
X114136760Y-85734782D01*
X114136763Y-85734786D01*
X114276114Y-85874137D01*
X114276118Y-85874140D01*
X114439979Y-85983629D01*
X114439992Y-85983636D01*
X114622060Y-86059050D01*
X114622065Y-86059052D01*
X114622069Y-86059052D01*
X114622070Y-86059053D01*
X114815356Y-86097501D01*
X114815359Y-86097501D01*
X116012443Y-86097501D01*
X116142482Y-86071633D01*
X116205735Y-86059052D01*
X116387814Y-85983633D01*
X116551682Y-85874140D01*
X116691039Y-85734783D01*
X116800532Y-85570915D01*
X116875951Y-85388836D01*
X116914400Y-85195542D01*
X116914400Y-84998460D01*
X116914400Y-84998457D01*
X116875952Y-84805171D01*
X116875951Y-84805170D01*
X116875951Y-84805166D01*
X116875949Y-84805161D01*
X116800535Y-84623093D01*
X116800528Y-84623080D01*
X116691039Y-84459219D01*
X116691036Y-84459215D01*
X116551685Y-84319864D01*
X116551681Y-84319861D01*
X116387820Y-84210372D01*
X116387807Y-84210365D01*
X116205739Y-84134951D01*
X116205729Y-84134948D01*
X116012443Y-84096501D01*
X116012441Y-84096501D01*
X114815359Y-84096501D01*
X114815357Y-84096501D01*
X114622070Y-84134948D01*
X114622060Y-84134951D01*
X114439992Y-84210365D01*
X114439979Y-84210372D01*
X114276118Y-84319861D01*
X114276114Y-84319864D01*
X114136763Y-84459215D01*
X114136760Y-84459219D01*
X114027271Y-84623080D01*
X114027264Y-84623093D01*
X113951850Y-84805161D01*
X113951847Y-84805171D01*
X113913400Y-84998457D01*
X113913400Y-84998460D01*
X113913400Y-85195542D01*
X113913400Y-85195544D01*
X113913399Y-85195544D01*
X107810515Y-85195544D01*
X105786819Y-83171848D01*
X105753334Y-83110525D01*
X105750500Y-83084167D01*
X105750500Y-80484161D01*
X105770185Y-80417122D01*
X105811989Y-80380608D01*
X105810913Y-80379072D01*
X105819796Y-80372851D01*
X105819799Y-80372850D01*
X105897850Y-80294799D01*
X105944499Y-80194760D01*
X105950500Y-80149179D01*
X105950499Y-79850827D01*
X107049500Y-79850827D01*
X107049500Y-80149180D01*
X107055500Y-80194756D01*
X107055502Y-80194763D01*
X107095257Y-80280017D01*
X107102150Y-80294799D01*
X107146261Y-80338910D01*
X107180201Y-80372850D01*
X107189087Y-80379072D01*
X107187980Y-80380652D01*
X107230339Y-80417944D01*
X107249500Y-80484161D01*
X107249500Y-82089562D01*
X107269979Y-82165989D01*
X107290485Y-82201506D01*
X107290485Y-82201508D01*
X107309535Y-82234504D01*
X107309541Y-82234512D01*
X107463181Y-82388152D01*
X107496666Y-82449475D01*
X107499500Y-82475833D01*
X107499500Y-82565891D01*
X107533608Y-82693187D01*
X107565194Y-82747895D01*
X107599500Y-82807314D01*
X107692686Y-82900500D01*
X107806814Y-82966392D01*
X107934108Y-83000500D01*
X107934110Y-83000500D01*
X108065890Y-83000500D01*
X108065892Y-83000500D01*
X108193186Y-82966392D01*
X108307314Y-82900500D01*
X108400500Y-82807314D01*
X108466392Y-82693186D01*
X108476478Y-82655544D01*
X113913399Y-82655544D01*
X113951847Y-82848830D01*
X113951850Y-82848840D01*
X114027264Y-83030908D01*
X114027271Y-83030921D01*
X114136760Y-83194782D01*
X114136763Y-83194786D01*
X114276114Y-83334137D01*
X114276118Y-83334140D01*
X114439979Y-83443629D01*
X114439992Y-83443636D01*
X114622060Y-83519050D01*
X114622065Y-83519052D01*
X114622069Y-83519052D01*
X114622070Y-83519053D01*
X114815356Y-83557501D01*
X114815359Y-83557501D01*
X116012443Y-83557501D01*
X116142482Y-83531633D01*
X116205735Y-83519052D01*
X116346555Y-83460722D01*
X116387807Y-83443636D01*
X116387807Y-83443635D01*
X116387814Y-83443633D01*
X116551682Y-83334140D01*
X116691039Y-83194783D01*
X116800532Y-83030915D01*
X116875951Y-82848836D01*
X116914400Y-82655542D01*
X116914400Y-82458460D01*
X116914400Y-82458457D01*
X116875952Y-82265171D01*
X116875951Y-82265170D01*
X116875951Y-82265166D01*
X116863254Y-82234512D01*
X116800535Y-82083093D01*
X116800528Y-82083080D01*
X116691039Y-81919219D01*
X116691036Y-81919215D01*
X116551685Y-81779864D01*
X116551681Y-81779861D01*
X116387820Y-81670372D01*
X116387807Y-81670365D01*
X116205739Y-81594951D01*
X116205729Y-81594948D01*
X116012443Y-81556501D01*
X116012441Y-81556501D01*
X114815359Y-81556501D01*
X114815357Y-81556501D01*
X114622070Y-81594948D01*
X114622060Y-81594951D01*
X114439992Y-81670365D01*
X114439979Y-81670372D01*
X114276118Y-81779861D01*
X114276114Y-81779864D01*
X114136763Y-81919215D01*
X114136760Y-81919219D01*
X114027271Y-82083080D01*
X114027264Y-82083093D01*
X113951850Y-82265161D01*
X113951847Y-82265171D01*
X113913400Y-82458457D01*
X113913400Y-82458460D01*
X113913400Y-82655542D01*
X113913400Y-82655544D01*
X113913399Y-82655544D01*
X108476478Y-82655544D01*
X108500500Y-82565892D01*
X108500500Y-82434108D01*
X108466392Y-82306814D01*
X108400500Y-82192686D01*
X108307314Y-82099500D01*
X108250250Y-82066554D01*
X108193187Y-82033608D01*
X108129539Y-82016554D01*
X108065892Y-81999500D01*
X107975833Y-81999500D01*
X107946392Y-81990855D01*
X107916406Y-81984332D01*
X107911390Y-81980577D01*
X107908794Y-81979815D01*
X107888152Y-81963181D01*
X107886819Y-81961848D01*
X107853334Y-81900525D01*
X107850500Y-81874167D01*
X107850500Y-80484161D01*
X107870185Y-80417122D01*
X107911989Y-80380608D01*
X107910913Y-80379072D01*
X107919796Y-80372851D01*
X107919799Y-80372850D01*
X107997850Y-80294799D01*
X108044499Y-80194760D01*
X108050500Y-80149179D01*
X108050500Y-80115544D01*
X113913399Y-80115544D01*
X113951847Y-80308830D01*
X113951850Y-80308840D01*
X114027264Y-80490908D01*
X114027271Y-80490921D01*
X114136760Y-80654782D01*
X114136763Y-80654786D01*
X114276114Y-80794137D01*
X114276118Y-80794140D01*
X114439979Y-80903629D01*
X114439992Y-80903636D01*
X114622060Y-80979050D01*
X114622065Y-80979052D01*
X114622069Y-80979052D01*
X114622070Y-80979053D01*
X114815356Y-81017501D01*
X114815359Y-81017501D01*
X116012443Y-81017501D01*
X116198812Y-80980429D01*
X116205735Y-80979052D01*
X116387814Y-80903633D01*
X116551682Y-80794140D01*
X116691039Y-80654783D01*
X116800532Y-80490915D01*
X116875951Y-80308836D01*
X116898642Y-80194763D01*
X116914400Y-80115544D01*
X116914400Y-79918457D01*
X116875952Y-79725171D01*
X116875951Y-79725170D01*
X116875951Y-79725166D01*
X116865320Y-79699500D01*
X116800535Y-79543093D01*
X116800528Y-79543080D01*
X116691039Y-79379219D01*
X116691036Y-79379215D01*
X116551685Y-79239864D01*
X116551681Y-79239861D01*
X116387820Y-79130372D01*
X116387807Y-79130365D01*
X116205739Y-79054951D01*
X116205729Y-79054948D01*
X116012443Y-79016501D01*
X116012441Y-79016501D01*
X114815359Y-79016501D01*
X114815357Y-79016501D01*
X114622070Y-79054948D01*
X114622060Y-79054951D01*
X114439992Y-79130365D01*
X114439979Y-79130372D01*
X114276118Y-79239861D01*
X114276114Y-79239864D01*
X114136763Y-79379215D01*
X114136760Y-79379219D01*
X114027271Y-79543080D01*
X114027264Y-79543093D01*
X113951850Y-79725161D01*
X113951847Y-79725171D01*
X113913400Y-79918457D01*
X113913400Y-79918460D01*
X113913400Y-80115542D01*
X113913400Y-80115544D01*
X113913399Y-80115544D01*
X108050500Y-80115544D01*
X108050499Y-79975832D01*
X108059144Y-79946387D01*
X108065667Y-79916405D01*
X108069419Y-79911391D01*
X108070183Y-79908793D01*
X108086813Y-79888156D01*
X110399426Y-77575544D01*
X113913399Y-77575544D01*
X113951847Y-77768830D01*
X113951850Y-77768840D01*
X114027264Y-77950908D01*
X114027271Y-77950921D01*
X114136760Y-78114782D01*
X114136763Y-78114786D01*
X114276114Y-78254137D01*
X114276118Y-78254140D01*
X114439979Y-78363629D01*
X114439992Y-78363636D01*
X114622060Y-78439050D01*
X114622065Y-78439052D01*
X114622069Y-78439052D01*
X114622070Y-78439053D01*
X114815356Y-78477501D01*
X114815359Y-78477501D01*
X116012443Y-78477501D01*
X116142482Y-78451633D01*
X116205735Y-78439052D01*
X116387814Y-78363633D01*
X116551682Y-78254140D01*
X116691039Y-78114783D01*
X116800532Y-77950915D01*
X116875951Y-77768836D01*
X116914400Y-77575542D01*
X116914400Y-77378460D01*
X116914400Y-77378457D01*
X116875952Y-77185171D01*
X116875951Y-77185170D01*
X116875951Y-77185166D01*
X116815822Y-77040000D01*
X116800535Y-77003093D01*
X116800528Y-77003080D01*
X116691039Y-76839219D01*
X116691036Y-76839215D01*
X116551685Y-76699864D01*
X116551681Y-76699861D01*
X116387820Y-76590372D01*
X116387807Y-76590365D01*
X116205739Y-76514951D01*
X116205729Y-76514948D01*
X116012443Y-76476501D01*
X116012441Y-76476501D01*
X114815359Y-76476501D01*
X114815357Y-76476501D01*
X114622070Y-76514948D01*
X114622060Y-76514951D01*
X114439992Y-76590365D01*
X114439979Y-76590372D01*
X114276118Y-76699861D01*
X114276114Y-76699864D01*
X114136763Y-76839215D01*
X114136760Y-76839219D01*
X114027271Y-77003080D01*
X114027264Y-77003093D01*
X113951850Y-77185161D01*
X113951847Y-77185171D01*
X113913400Y-77378457D01*
X113913400Y-77378460D01*
X113913400Y-77575542D01*
X113913400Y-77575544D01*
X113913399Y-77575544D01*
X110399426Y-77575544D01*
X112641460Y-75333511D01*
X112665140Y-75292496D01*
X112681021Y-75264989D01*
X112701500Y-75188562D01*
X112701500Y-75035544D01*
X113913399Y-75035544D01*
X113951847Y-75228830D01*
X113951850Y-75228840D01*
X114027264Y-75410908D01*
X114027271Y-75410921D01*
X114136760Y-75574782D01*
X114136763Y-75574786D01*
X114276114Y-75714137D01*
X114276118Y-75714140D01*
X114439979Y-75823629D01*
X114439992Y-75823636D01*
X114622060Y-75899050D01*
X114622065Y-75899052D01*
X114622069Y-75899052D01*
X114622070Y-75899053D01*
X114815356Y-75937501D01*
X114815359Y-75937501D01*
X116012443Y-75937501D01*
X116142482Y-75911633D01*
X116205735Y-75899052D01*
X116387814Y-75823633D01*
X116551682Y-75714140D01*
X116691039Y-75574783D01*
X116800532Y-75410915D01*
X116875951Y-75228836D01*
X116888532Y-75165583D01*
X116914400Y-75035544D01*
X116914400Y-74838457D01*
X116875952Y-74645171D01*
X116875951Y-74645170D01*
X116875951Y-74645166D01*
X116875949Y-74645161D01*
X116800535Y-74463093D01*
X116800528Y-74463080D01*
X116691039Y-74299219D01*
X116691036Y-74299215D01*
X116551685Y-74159864D01*
X116551681Y-74159861D01*
X116387820Y-74050372D01*
X116387807Y-74050365D01*
X116205739Y-73974951D01*
X116205729Y-73974948D01*
X116012443Y-73936501D01*
X116012441Y-73936501D01*
X114815359Y-73936501D01*
X114815357Y-73936501D01*
X114622070Y-73974948D01*
X114622060Y-73974951D01*
X114439992Y-74050365D01*
X114439979Y-74050372D01*
X114276118Y-74159861D01*
X114276114Y-74159864D01*
X114136763Y-74299215D01*
X114136760Y-74299219D01*
X114027271Y-74463080D01*
X114027264Y-74463093D01*
X113951850Y-74645161D01*
X113951847Y-74645171D01*
X113913400Y-74838457D01*
X113913400Y-74838460D01*
X113913400Y-75035542D01*
X113913400Y-75035544D01*
X113913399Y-75035544D01*
X112701500Y-75035544D01*
X112701500Y-72495544D01*
X113913399Y-72495544D01*
X113951847Y-72688830D01*
X113951850Y-72688840D01*
X114027264Y-72870908D01*
X114027271Y-72870921D01*
X114136760Y-73034782D01*
X114136762Y-73034785D01*
X114276114Y-73174137D01*
X114276118Y-73174140D01*
X114439979Y-73283629D01*
X114439992Y-73283636D01*
X114622060Y-73359050D01*
X114622065Y-73359052D01*
X114622069Y-73359052D01*
X114622070Y-73359053D01*
X114815356Y-73397501D01*
X114815359Y-73397501D01*
X116012443Y-73397501D01*
X116142482Y-73371633D01*
X116205735Y-73359052D01*
X116387814Y-73283633D01*
X116551682Y-73174140D01*
X116599051Y-73126771D01*
X116691038Y-73034785D01*
X116691039Y-73034783D01*
X116800532Y-72870915D01*
X116875951Y-72688836D01*
X116914400Y-72495542D01*
X116914400Y-72298460D01*
X116914400Y-72298457D01*
X116875952Y-72105171D01*
X116875951Y-72105170D01*
X116875951Y-72105166D01*
X116832717Y-72000788D01*
X116800535Y-71923093D01*
X116800528Y-71923080D01*
X116691039Y-71759219D01*
X116691036Y-71759215D01*
X116551685Y-71619864D01*
X116551681Y-71619861D01*
X116387820Y-71510372D01*
X116387807Y-71510365D01*
X116205739Y-71434951D01*
X116205729Y-71434948D01*
X116012443Y-71396501D01*
X116012441Y-71396501D01*
X114815359Y-71396501D01*
X114815357Y-71396501D01*
X114622070Y-71434948D01*
X114622060Y-71434951D01*
X114439992Y-71510365D01*
X114439979Y-71510372D01*
X114276118Y-71619861D01*
X114276114Y-71619864D01*
X114136763Y-71759215D01*
X114136760Y-71759219D01*
X114027271Y-71923080D01*
X114027264Y-71923093D01*
X113951850Y-72105161D01*
X113951847Y-72105171D01*
X113913400Y-72298457D01*
X113913400Y-72298460D01*
X113913400Y-72495542D01*
X113913400Y-72495544D01*
X113913399Y-72495544D01*
X112701500Y-72495544D01*
X112701500Y-69955544D01*
X113913399Y-69955544D01*
X113951847Y-70148830D01*
X113951850Y-70148840D01*
X114027264Y-70330908D01*
X114027271Y-70330921D01*
X114136760Y-70494782D01*
X114136763Y-70494786D01*
X114276114Y-70634137D01*
X114276118Y-70634140D01*
X114439979Y-70743629D01*
X114439992Y-70743636D01*
X114620457Y-70818386D01*
X114622065Y-70819052D01*
X114622069Y-70819052D01*
X114622070Y-70819053D01*
X114815356Y-70857501D01*
X114815359Y-70857501D01*
X116012443Y-70857501D01*
X116142482Y-70831633D01*
X116205735Y-70819052D01*
X116387814Y-70743633D01*
X116551682Y-70634140D01*
X116691039Y-70494783D01*
X116800532Y-70330915D01*
X116815500Y-70294780D01*
X116841701Y-70231523D01*
X116875951Y-70148836D01*
X116914400Y-69955542D01*
X116914400Y-69758460D01*
X116914400Y-69758457D01*
X116875952Y-69565171D01*
X116875951Y-69565170D01*
X116875951Y-69565166D01*
X116875949Y-69565161D01*
X116800535Y-69383093D01*
X116800528Y-69383080D01*
X116691039Y-69219219D01*
X116691036Y-69219215D01*
X116551685Y-69079864D01*
X116551681Y-69079861D01*
X116387820Y-68970372D01*
X116387807Y-68970365D01*
X116205739Y-68894951D01*
X116205729Y-68894948D01*
X116012443Y-68856501D01*
X116012441Y-68856501D01*
X114815359Y-68856501D01*
X114815357Y-68856501D01*
X114622070Y-68894948D01*
X114622060Y-68894951D01*
X114439992Y-68970365D01*
X114439979Y-68970372D01*
X114276118Y-69079861D01*
X114276114Y-69079864D01*
X114136763Y-69219215D01*
X114136760Y-69219219D01*
X114027271Y-69383080D01*
X114027264Y-69383093D01*
X113951850Y-69565161D01*
X113951847Y-69565171D01*
X113913400Y-69758457D01*
X113913400Y-69758460D01*
X113913400Y-69955542D01*
X113913400Y-69955544D01*
X113913399Y-69955544D01*
X112701500Y-69955544D01*
X112701500Y-67415544D01*
X113913399Y-67415544D01*
X113951847Y-67608830D01*
X113951850Y-67608840D01*
X114027264Y-67790908D01*
X114027271Y-67790921D01*
X114136760Y-67954782D01*
X114136763Y-67954786D01*
X114276114Y-68094137D01*
X114276118Y-68094140D01*
X114439979Y-68203629D01*
X114439992Y-68203636D01*
X114622060Y-68279050D01*
X114622065Y-68279052D01*
X114622069Y-68279052D01*
X114622070Y-68279053D01*
X114815356Y-68317501D01*
X114815359Y-68317501D01*
X116012443Y-68317501D01*
X116142482Y-68291633D01*
X116205735Y-68279052D01*
X116387814Y-68203633D01*
X116551682Y-68094140D01*
X116691039Y-67954783D01*
X116800532Y-67790915D01*
X116875951Y-67608836D01*
X116890915Y-67533608D01*
X116914400Y-67415544D01*
X116914400Y-67218457D01*
X116875952Y-67025171D01*
X116875951Y-67025170D01*
X116875951Y-67025166D01*
X116875949Y-67025161D01*
X116800535Y-66843093D01*
X116800528Y-66843080D01*
X116691039Y-66679219D01*
X116691036Y-66679215D01*
X116551685Y-66539864D01*
X116551681Y-66539861D01*
X116387820Y-66430372D01*
X116387807Y-66430365D01*
X116205739Y-66354951D01*
X116205729Y-66354948D01*
X116012443Y-66316501D01*
X116012441Y-66316501D01*
X114815359Y-66316501D01*
X114815357Y-66316501D01*
X114622070Y-66354948D01*
X114622060Y-66354951D01*
X114439992Y-66430365D01*
X114439979Y-66430372D01*
X114276118Y-66539861D01*
X114276114Y-66539864D01*
X114136763Y-66679215D01*
X114136760Y-66679219D01*
X114027271Y-66843080D01*
X114027264Y-66843093D01*
X113951850Y-67025161D01*
X113951847Y-67025171D01*
X113913400Y-67218457D01*
X113913400Y-67218460D01*
X113913400Y-67415542D01*
X113913400Y-67415544D01*
X113913399Y-67415544D01*
X112701500Y-67415544D01*
X112701500Y-65224832D01*
X112721185Y-65157793D01*
X112737814Y-65137155D01*
X113863151Y-64011818D01*
X113924474Y-63978334D01*
X113950832Y-63975500D01*
X114040890Y-63975500D01*
X114040892Y-63975500D01*
X114168186Y-63941392D01*
X114282314Y-63875500D01*
X114375500Y-63782314D01*
X114441392Y-63668186D01*
X114475500Y-63540892D01*
X114475500Y-63409108D01*
X114441392Y-63281814D01*
X114375500Y-63167686D01*
X114282314Y-63074500D01*
X114225250Y-63041554D01*
X114168187Y-63008608D01*
X114104539Y-62991554D01*
X114040892Y-62974500D01*
X113909108Y-62974500D01*
X113781812Y-63008608D01*
X113667686Y-63074500D01*
X113667683Y-63074502D01*
X113574502Y-63167683D01*
X113574500Y-63167686D01*
X113508608Y-63281812D01*
X113474500Y-63409108D01*
X113474500Y-63499166D01*
X113454815Y-63566205D01*
X113438181Y-63586847D01*
X112216489Y-64808540D01*
X112160541Y-64864487D01*
X112160535Y-64864495D01*
X112120982Y-64933004D01*
X112120979Y-64933009D01*
X112100500Y-65009439D01*
X112100500Y-74973166D01*
X112080815Y-75040205D01*
X112064181Y-75060847D01*
X107586846Y-79538181D01*
X107525523Y-79571666D01*
X107499166Y-79574500D01*
X107325819Y-79574500D01*
X107280243Y-79580500D01*
X107280236Y-79580502D01*
X107180200Y-79627150D01*
X107102150Y-79705200D01*
X107055500Y-79805241D01*
X107049501Y-79850811D01*
X107049500Y-79850827D01*
X105950499Y-79850827D01*
X105950499Y-79850822D01*
X105948950Y-79839058D01*
X105946083Y-79817273D01*
X105944499Y-79805240D01*
X105897850Y-79705201D01*
X105819799Y-79627150D01*
X105819798Y-79627149D01*
X105810912Y-79620927D01*
X105812016Y-79619349D01*
X105769649Y-79582037D01*
X105750500Y-79515838D01*
X105750500Y-71397648D01*
X107699500Y-71397648D01*
X107699500Y-71602351D01*
X107731522Y-71804534D01*
X107794781Y-71999223D01*
X107887715Y-72181613D01*
X108008028Y-72347213D01*
X108152786Y-72491971D01*
X108262445Y-72571641D01*
X108318390Y-72612287D01*
X108434607Y-72671503D01*
X108500776Y-72705218D01*
X108500778Y-72705218D01*
X108500781Y-72705220D01*
X108605137Y-72739127D01*
X108695465Y-72768477D01*
X108721118Y-72772540D01*
X108897648Y-72800500D01*
X108897649Y-72800500D01*
X109102351Y-72800500D01*
X109102352Y-72800500D01*
X109304534Y-72768477D01*
X109499219Y-72705220D01*
X109681610Y-72612287D01*
X109774590Y-72544732D01*
X109847213Y-72491971D01*
X109847215Y-72491968D01*
X109847219Y-72491966D01*
X109991966Y-72347219D01*
X109991968Y-72347215D01*
X109991971Y-72347213D01*
X110048766Y-72269040D01*
X110112287Y-72181610D01*
X110205220Y-71999219D01*
X110268477Y-71804534D01*
X110300500Y-71602352D01*
X110300500Y-71397648D01*
X110268477Y-71195466D01*
X110205220Y-71000781D01*
X110205218Y-71000778D01*
X110205218Y-71000776D01*
X110171503Y-70934607D01*
X110112287Y-70818390D01*
X110067978Y-70757403D01*
X109991971Y-70652786D01*
X109847213Y-70508028D01*
X109681613Y-70387715D01*
X109681612Y-70387714D01*
X109681610Y-70387713D01*
X109570150Y-70330921D01*
X109499223Y-70294781D01*
X109304534Y-70231522D01*
X109129995Y-70203878D01*
X109102352Y-70199500D01*
X108897648Y-70199500D01*
X108873329Y-70203351D01*
X108695465Y-70231522D01*
X108500776Y-70294781D01*
X108318386Y-70387715D01*
X108152786Y-70508028D01*
X108008028Y-70652786D01*
X107887715Y-70818386D01*
X107794781Y-71000776D01*
X107731522Y-71195465D01*
X107699500Y-71397648D01*
X105750500Y-71397648D01*
X105750500Y-70175832D01*
X105770185Y-70108793D01*
X105786814Y-70088156D01*
X111863151Y-64011818D01*
X111924474Y-63978334D01*
X111950832Y-63975500D01*
X112040890Y-63975500D01*
X112040892Y-63975500D01*
X112168186Y-63941392D01*
X112282314Y-63875500D01*
X112375500Y-63782314D01*
X112441392Y-63668186D01*
X112475500Y-63540892D01*
X112475500Y-63409108D01*
X112441392Y-63281814D01*
X112375500Y-63167686D01*
X112282314Y-63074500D01*
X112225250Y-63041554D01*
X112168187Y-63008608D01*
X112104539Y-62991554D01*
X112040892Y-62974500D01*
X111909108Y-62974500D01*
X111781812Y-63008608D01*
X111667686Y-63074500D01*
X111667683Y-63074502D01*
X111574502Y-63167683D01*
X111574500Y-63167686D01*
X111508608Y-63281812D01*
X111474500Y-63409108D01*
X111474500Y-63499166D01*
X111454815Y-63566205D01*
X111438181Y-63586847D01*
X105265489Y-69759540D01*
X105209541Y-69815487D01*
X105209535Y-69815495D01*
X105169982Y-69884004D01*
X105169979Y-69884009D01*
X105156326Y-69934962D01*
X105150812Y-69955544D01*
X105149500Y-69960439D01*
X105149500Y-79515838D01*
X105129815Y-79582877D01*
X105106597Y-79609643D01*
X105093543Y-79620928D01*
X105080201Y-79627150D01*
X105040981Y-79666369D01*
X105037586Y-79669305D01*
X105009713Y-79681995D01*
X104982847Y-79696666D01*
X104975838Y-79697419D01*
X104973997Y-79698258D01*
X104971460Y-79697890D01*
X104956489Y-79699500D01*
X101445833Y-79699500D01*
X101378794Y-79679815D01*
X101358152Y-79663181D01*
X100487075Y-78792104D01*
X100453590Y-78730781D01*
X100458574Y-78661089D01*
X100460163Y-78657049D01*
X100510130Y-78536420D01*
X100550500Y-78333465D01*
X100550500Y-78126535D01*
X100510130Y-77923580D01*
X100430941Y-77732402D01*
X100315977Y-77560345D01*
X100315975Y-77560342D01*
X100169657Y-77414024D01*
X100083626Y-77356541D01*
X99997598Y-77299059D01*
X99948112Y-77278561D01*
X99893709Y-77234720D01*
X99871644Y-77168426D01*
X99888923Y-77100726D01*
X99940061Y-77053116D01*
X99995565Y-77040000D01*
X100397828Y-77040000D01*
X100397844Y-77039999D01*
X100457372Y-77033598D01*
X100457379Y-77033596D01*
X100592086Y-76983354D01*
X100592093Y-76983350D01*
X100707187Y-76897190D01*
X100707190Y-76897187D01*
X100793350Y-76782093D01*
X100793354Y-76782086D01*
X100843596Y-76647379D01*
X100843598Y-76647372D01*
X100849999Y-76587844D01*
X100850000Y-76587827D01*
X100850000Y-75940000D01*
X99933012Y-75940000D01*
X99965925Y-75882993D01*
X100000000Y-75755826D01*
X100000000Y-75624174D01*
X99965925Y-75497007D01*
X99933012Y-75440000D01*
X100850000Y-75440000D01*
X100850000Y-74792172D01*
X100849999Y-74792155D01*
X100843598Y-74732627D01*
X100843596Y-74732620D01*
X100793354Y-74597913D01*
X100793350Y-74597906D01*
X100707190Y-74482812D01*
X100707187Y-74482809D01*
X100592093Y-74396649D01*
X100592086Y-74396645D01*
X100457379Y-74346403D01*
X100457372Y-74346401D01*
X100397844Y-74340000D01*
X99750000Y-74340000D01*
X99750000Y-75256988D01*
X99692993Y-75224075D01*
X99565826Y-75190000D01*
X99434174Y-75190000D01*
X99307007Y-75224075D01*
X99250000Y-75256988D01*
X99250000Y-74340000D01*
X98773500Y-74340000D01*
X98706461Y-74320315D01*
X98660706Y-74267511D01*
X98649500Y-74216000D01*
X98649500Y-72772540D01*
X98649500Y-72772539D01*
X98629021Y-72696112D01*
X98624817Y-72688830D01*
X98589464Y-72627596D01*
X98589458Y-72627588D01*
X96797246Y-70835376D01*
X96763761Y-70774053D01*
X96768745Y-70704361D01*
X96810617Y-70648428D01*
X96816027Y-70644599D01*
X96831682Y-70634140D01*
X96971039Y-70494783D01*
X97080532Y-70330915D01*
X97095500Y-70294780D01*
X97121701Y-70231523D01*
X97155951Y-70148836D01*
X97194400Y-69955542D01*
X97194400Y-69758460D01*
X97194400Y-69758457D01*
X97155952Y-69565171D01*
X97155951Y-69565170D01*
X97155951Y-69565166D01*
X97155949Y-69565161D01*
X97080535Y-69383093D01*
X97080528Y-69383080D01*
X96971039Y-69219219D01*
X96971036Y-69219215D01*
X96831685Y-69079864D01*
X96831681Y-69079861D01*
X96667820Y-68970372D01*
X96667807Y-68970365D01*
X96485739Y-68894951D01*
X96485729Y-68894948D01*
X96292443Y-68856501D01*
X96292441Y-68856501D01*
X95095359Y-68856501D01*
X95095357Y-68856501D01*
X94902070Y-68894948D01*
X94902060Y-68894951D01*
X94719992Y-68970365D01*
X94719974Y-68970375D01*
X94586290Y-69059700D01*
X94576591Y-69062736D01*
X94568911Y-69069392D01*
X94543811Y-69073001D01*
X94519613Y-69080578D01*
X94509813Y-69077889D01*
X94499753Y-69079336D01*
X94476684Y-69068801D01*
X94452233Y-69062093D01*
X94445442Y-69054533D01*
X94436197Y-69050311D01*
X94422486Y-69028976D01*
X94405543Y-69010114D01*
X94402911Y-68998517D01*
X94398423Y-68991533D01*
X94393400Y-68956598D01*
X94393400Y-68793833D01*
X94413085Y-68726794D01*
X94429715Y-68706156D01*
X94817460Y-68318410D01*
X94878781Y-68284927D01*
X94929331Y-68284476D01*
X95095356Y-68317501D01*
X95095359Y-68317501D01*
X96292443Y-68317501D01*
X96422482Y-68291633D01*
X96485735Y-68279052D01*
X96667814Y-68203633D01*
X96831682Y-68094140D01*
X96971039Y-67954783D01*
X97080532Y-67790915D01*
X97155951Y-67608836D01*
X97170915Y-67533608D01*
X97194400Y-67415544D01*
X97194400Y-67218457D01*
X97155952Y-67025171D01*
X97155951Y-67025170D01*
X97155951Y-67025166D01*
X97155949Y-67025161D01*
X97080535Y-66843093D01*
X97080528Y-66843080D01*
X96971039Y-66679219D01*
X96971036Y-66679215D01*
X96831685Y-66539864D01*
X96831681Y-66539861D01*
X96667820Y-66430372D01*
X96667807Y-66430365D01*
X96485739Y-66354951D01*
X96485729Y-66354948D01*
X96292443Y-66316501D01*
X96292441Y-66316501D01*
X95095359Y-66316501D01*
X95095357Y-66316501D01*
X94902070Y-66354948D01*
X94902060Y-66354951D01*
X94719992Y-66430365D01*
X94719979Y-66430372D01*
X94556118Y-66539861D01*
X94556114Y-66539864D01*
X94416763Y-66679215D01*
X94416760Y-66679219D01*
X94307271Y-66843080D01*
X94307264Y-66843093D01*
X94231850Y-67025161D01*
X94231847Y-67025171D01*
X94193400Y-67218457D01*
X94193400Y-67218460D01*
X94193400Y-67415542D01*
X94193400Y-67415544D01*
X94193399Y-67415544D01*
X94231847Y-67608830D01*
X94231850Y-67608840D01*
X94307264Y-67790907D01*
X94307271Y-67790920D01*
X94325931Y-67818846D01*
X94346809Y-67885523D01*
X94328325Y-67952904D01*
X94310510Y-67975418D01*
X93908389Y-68377541D01*
X93852441Y-68433488D01*
X93852435Y-68433496D01*
X93812882Y-68502005D01*
X93812879Y-68502010D01*
X93799226Y-68552963D01*
X93792400Y-68578439D01*
X93500500Y-68578439D01*
X93500500Y-62380247D01*
X97849500Y-62380247D01*
X97849500Y-65019752D01*
X97861131Y-65078229D01*
X97861132Y-65078230D01*
X97905447Y-65144552D01*
X97971769Y-65188867D01*
X97971770Y-65188868D01*
X98030247Y-65200499D01*
X98030250Y-65200500D01*
X98030252Y-65200500D01*
X98575500Y-65200500D01*
X98642539Y-65220185D01*
X98688294Y-65272989D01*
X98699500Y-65324500D01*
X98699500Y-67041323D01*
X98679815Y-67108362D01*
X98663182Y-67129004D01*
X98599500Y-67192686D01*
X98533608Y-67306812D01*
X98499500Y-67434108D01*
X98499500Y-67565891D01*
X98533608Y-67693187D01*
X98566554Y-67750250D01*
X98599500Y-67807314D01*
X98692686Y-67900500D01*
X98806814Y-67966392D01*
X98934108Y-68000500D01*
X98934110Y-68000500D01*
X99065890Y-68000500D01*
X99065892Y-68000500D01*
X99193186Y-67966392D01*
X99307314Y-67900500D01*
X99400500Y-67807314D01*
X99466392Y-67693186D01*
X99500500Y-67565892D01*
X99500500Y-67434108D01*
X99466392Y-67306814D01*
X99400500Y-67192686D01*
X99336818Y-67129004D01*
X99303334Y-67067680D01*
X99300500Y-67041323D01*
X99300500Y-65324500D01*
X99320185Y-65257461D01*
X99372989Y-65211706D01*
X99424500Y-65200500D01*
X99969750Y-65200500D01*
X99969751Y-65200499D01*
X99984568Y-65197552D01*
X100028229Y-65188868D01*
X100028229Y-65188867D01*
X100028231Y-65188867D01*
X100094552Y-65144552D01*
X100138867Y-65078231D01*
X100138866Y-65078231D01*
X100145652Y-65068077D01*
X100148667Y-65070091D01*
X100179281Y-65032103D01*
X100245576Y-65010039D01*
X100313275Y-65027319D01*
X100352420Y-65069365D01*
X100354348Y-65068077D01*
X100405447Y-65144552D01*
X100471769Y-65188867D01*
X100471770Y-65188868D01*
X100530247Y-65200499D01*
X100530250Y-65200500D01*
X100530252Y-65200500D01*
X101075500Y-65200500D01*
X101142539Y-65220185D01*
X101188294Y-65272989D01*
X101199500Y-65324500D01*
X101199500Y-67041323D01*
X101179815Y-67108362D01*
X101163182Y-67129004D01*
X101099500Y-67192686D01*
X101033608Y-67306812D01*
X100999500Y-67434108D01*
X100999500Y-67565891D01*
X101033608Y-67693187D01*
X101066554Y-67750250D01*
X101099500Y-67807314D01*
X101192686Y-67900500D01*
X101306814Y-67966392D01*
X101434108Y-68000500D01*
X101434110Y-68000500D01*
X101565890Y-68000500D01*
X101565892Y-68000500D01*
X101693186Y-67966392D01*
X101807314Y-67900500D01*
X101900500Y-67807314D01*
X101966392Y-67693186D01*
X102000500Y-67565892D01*
X102000500Y-67434108D01*
X101966392Y-67306814D01*
X101900500Y-67192686D01*
X101836818Y-67129004D01*
X101803334Y-67067680D01*
X101800500Y-67041323D01*
X101800500Y-65324500D01*
X101820185Y-65257461D01*
X101872989Y-65211706D01*
X101924500Y-65200500D01*
X102469750Y-65200500D01*
X102469751Y-65200499D01*
X102484568Y-65197552D01*
X102528229Y-65188868D01*
X102528229Y-65188867D01*
X102528231Y-65188867D01*
X102594552Y-65144552D01*
X102638867Y-65078231D01*
X102638866Y-65078231D01*
X102645652Y-65068077D01*
X102648667Y-65070091D01*
X102679281Y-65032103D01*
X102745576Y-65010039D01*
X102813275Y-65027319D01*
X102852420Y-65069365D01*
X102854348Y-65068077D01*
X102905447Y-65144552D01*
X102971769Y-65188867D01*
X102971770Y-65188868D01*
X103030247Y-65200499D01*
X103030250Y-65200500D01*
X103030252Y-65200500D01*
X103600500Y-65200500D01*
X103667539Y-65220185D01*
X103713294Y-65272989D01*
X103724500Y-65324500D01*
X103724500Y-67299165D01*
X103715855Y-67328605D01*
X103709332Y-67358592D01*
X103705577Y-67363607D01*
X103704815Y-67366204D01*
X103688181Y-67386846D01*
X103611846Y-67463181D01*
X103550523Y-67496666D01*
X103524165Y-67499500D01*
X103434108Y-67499500D01*
X103306812Y-67533608D01*
X103192686Y-67599500D01*
X103192683Y-67599502D01*
X103099502Y-67692683D01*
X103099500Y-67692686D01*
X103033608Y-67806812D01*
X102999500Y-67934108D01*
X102999500Y-68065891D01*
X103033608Y-68193187D01*
X103039641Y-68203636D01*
X103099500Y-68307314D01*
X103192686Y-68400500D01*
X103306814Y-68466392D01*
X103434108Y-68500500D01*
X103434110Y-68500500D01*
X103565890Y-68500500D01*
X103565892Y-68500500D01*
X103693186Y-68466392D01*
X103807314Y-68400500D01*
X103900500Y-68307314D01*
X103966392Y-68193186D01*
X104000500Y-68065892D01*
X104000500Y-67975832D01*
X104020185Y-67908793D01*
X104036814Y-67888155D01*
X104265460Y-67659511D01*
X104268303Y-67654587D01*
X104305021Y-67590989D01*
X104325500Y-67514562D01*
X104325500Y-65324500D01*
X104345185Y-65257461D01*
X104397989Y-65211706D01*
X104449500Y-65200500D01*
X105019750Y-65200500D01*
X105019751Y-65200499D01*
X105034568Y-65197552D01*
X105078229Y-65188868D01*
X105078229Y-65188867D01*
X105078231Y-65188867D01*
X105144552Y-65144552D01*
X105188867Y-65078231D01*
X105188867Y-65078229D01*
X105188868Y-65078229D01*
X105200499Y-65019752D01*
X105200500Y-65019750D01*
X105200500Y-62380249D01*
X105200499Y-62380247D01*
X105188868Y-62321770D01*
X105188867Y-62321769D01*
X105144552Y-62255447D01*
X105078230Y-62211132D01*
X105078229Y-62211131D01*
X105019752Y-62199500D01*
X105019748Y-62199500D01*
X103030252Y-62199500D01*
X103030247Y-62199500D01*
X102971770Y-62211131D01*
X102971769Y-62211132D01*
X102905447Y-62255447D01*
X102854348Y-62331923D01*
X102851333Y-62329908D01*
X102820707Y-62367904D01*
X102754410Y-62389961D01*
X102686713Y-62372673D01*
X102647582Y-62330632D01*
X102645652Y-62331923D01*
X102594552Y-62255447D01*
X102528230Y-62211132D01*
X102528229Y-62211131D01*
X102469752Y-62199500D01*
X102469748Y-62199500D01*
X100530252Y-62199500D01*
X100530247Y-62199500D01*
X100471770Y-62211131D01*
X100471769Y-62211132D01*
X100405447Y-62255447D01*
X100354348Y-62331923D01*
X100351333Y-62329908D01*
X100320707Y-62367904D01*
X100254410Y-62389961D01*
X100186713Y-62372673D01*
X100147582Y-62330632D01*
X100145652Y-62331923D01*
X100094552Y-62255447D01*
X100028230Y-62211132D01*
X100028229Y-62211131D01*
X99969752Y-62199500D01*
X99969748Y-62199500D01*
X98030252Y-62199500D01*
X98030247Y-62199500D01*
X97971770Y-62211131D01*
X97971769Y-62211132D01*
X97905447Y-62255447D01*
X97861132Y-62321769D01*
X97861131Y-62321770D01*
X97849500Y-62380247D01*
X93500500Y-62380247D01*
X93500500Y-59547844D01*
X94000000Y-59547844D01*
X94006401Y-59607372D01*
X94006403Y-59607379D01*
X94056645Y-59742086D01*
X94056649Y-59742093D01*
X94142809Y-59857187D01*
X94142812Y-59857190D01*
X94257906Y-59943350D01*
X94257913Y-59943354D01*
X94392620Y-59993596D01*
X94392627Y-59993598D01*
X94452155Y-59999999D01*
X94452172Y-60000000D01*
X95450000Y-60000000D01*
X95950000Y-60000000D01*
X96947828Y-60000000D01*
X96947844Y-59999999D01*
X97007372Y-59993598D01*
X97007379Y-59993596D01*
X97142086Y-59943354D01*
X97142093Y-59943350D01*
X97257187Y-59857190D01*
X97257190Y-59857187D01*
X97343350Y-59742093D01*
X97343354Y-59742086D01*
X97393596Y-59607379D01*
X97393598Y-59607372D01*
X97397195Y-59573920D01*
X98249499Y-59573920D01*
X98278340Y-59718907D01*
X98278343Y-59718917D01*
X98334912Y-59855488D01*
X98334919Y-59855501D01*
X98417048Y-59978415D01*
X98417051Y-59978419D01*
X98521580Y-60082948D01*
X98521584Y-60082951D01*
X98644498Y-60165080D01*
X98644511Y-60165087D01*
X98781082Y-60221656D01*
X98781087Y-60221658D01*
X98781091Y-60221658D01*
X98781092Y-60221659D01*
X98926079Y-60250500D01*
X98926082Y-60250500D01*
X99073920Y-60250500D01*
X99171462Y-60231096D01*
X99218913Y-60221658D01*
X99355495Y-60165084D01*
X99478416Y-60082951D01*
X99582951Y-59978416D01*
X99665084Y-59855495D01*
X99721658Y-59718913D01*
X99742868Y-59612287D01*
X99750500Y-59573920D01*
X103249499Y-59573920D01*
X103278340Y-59718907D01*
X103278343Y-59718917D01*
X103334912Y-59855488D01*
X103334919Y-59855501D01*
X103417048Y-59978415D01*
X103417051Y-59978419D01*
X103521580Y-60082948D01*
X103521584Y-60082951D01*
X103644498Y-60165080D01*
X103644511Y-60165087D01*
X103781082Y-60221656D01*
X103781087Y-60221658D01*
X103781091Y-60221658D01*
X103781092Y-60221659D01*
X103926079Y-60250500D01*
X103926082Y-60250500D01*
X104073920Y-60250500D01*
X104171462Y-60231096D01*
X104218913Y-60221658D01*
X104355495Y-60165084D01*
X104478416Y-60082951D01*
X104582951Y-59978416D01*
X104665084Y-59855495D01*
X104721658Y-59718913D01*
X104742868Y-59612287D01*
X104750500Y-59573920D01*
X104750500Y-59547844D01*
X105600000Y-59547844D01*
X105606401Y-59607372D01*
X105606403Y-59607379D01*
X105656645Y-59742086D01*
X105656649Y-59742093D01*
X105742809Y-59857187D01*
X105742812Y-59857190D01*
X105857906Y-59943350D01*
X105857913Y-59943354D01*
X105992620Y-59993596D01*
X105992627Y-59993598D01*
X106052155Y-59999999D01*
X106052172Y-60000000D01*
X107050000Y-60000000D01*
X107550000Y-60000000D01*
X108547828Y-60000000D01*
X108547844Y-59999999D01*
X108607372Y-59993598D01*
X108607379Y-59993596D01*
X108742086Y-59943354D01*
X108742093Y-59943350D01*
X108857187Y-59857190D01*
X108857190Y-59857187D01*
X108943350Y-59742093D01*
X108943354Y-59742086D01*
X108993596Y-59607379D01*
X108993598Y-59607372D01*
X108999999Y-59547844D01*
X109000000Y-59547827D01*
X109000000Y-58900000D01*
X107550000Y-58900000D01*
X107550000Y-60000000D01*
X107050000Y-60000000D01*
X107050000Y-58900000D01*
X105600000Y-58900000D01*
X105600000Y-59547844D01*
X104750500Y-59547844D01*
X104750500Y-59426079D01*
X104721659Y-59281092D01*
X104721658Y-59281091D01*
X104721658Y-59281087D01*
X104680455Y-59181613D01*
X104665087Y-59144511D01*
X104665080Y-59144498D01*
X104582951Y-59021584D01*
X104582948Y-59021580D01*
X104478419Y-58917051D01*
X104478415Y-58917048D01*
X104355501Y-58834919D01*
X104355488Y-58834912D01*
X104218917Y-58778343D01*
X104218907Y-58778340D01*
X104073920Y-58749500D01*
X104073918Y-58749500D01*
X103926082Y-58749500D01*
X103926080Y-58749500D01*
X103781092Y-58778340D01*
X103781082Y-58778343D01*
X103644511Y-58834912D01*
X103644498Y-58834919D01*
X103521584Y-58917048D01*
X103521580Y-58917051D01*
X103417051Y-59021580D01*
X103417048Y-59021584D01*
X103334919Y-59144498D01*
X103334912Y-59144511D01*
X103278343Y-59281082D01*
X103278340Y-59281092D01*
X103249500Y-59426079D01*
X103249500Y-59426082D01*
X103249500Y-59573918D01*
X103249500Y-59573920D01*
X103249499Y-59573920D01*
X99750500Y-59573920D01*
X99750500Y-59426079D01*
X99721659Y-59281092D01*
X99721658Y-59281091D01*
X99721658Y-59281087D01*
X99680455Y-59181613D01*
X99665087Y-59144511D01*
X99665080Y-59144498D01*
X99582951Y-59021584D01*
X99582948Y-59021580D01*
X99478419Y-58917051D01*
X99478415Y-58917048D01*
X99355501Y-58834919D01*
X99355488Y-58834912D01*
X99218917Y-58778343D01*
X99218907Y-58778340D01*
X99073920Y-58749500D01*
X99073918Y-58749500D01*
X98926082Y-58749500D01*
X98926080Y-58749500D01*
X98781092Y-58778340D01*
X98781082Y-58778343D01*
X98644511Y-58834912D01*
X98644498Y-58834919D01*
X98521584Y-58917048D01*
X98521580Y-58917051D01*
X98417051Y-59021580D01*
X98417048Y-59021584D01*
X98334919Y-59144498D01*
X98334912Y-59144511D01*
X98278343Y-59281082D01*
X98278340Y-59281092D01*
X98249500Y-59426079D01*
X98249500Y-59426082D01*
X98249500Y-59573918D01*
X98249500Y-59573920D01*
X98249499Y-59573920D01*
X97397195Y-59573920D01*
X97399999Y-59547844D01*
X97400000Y-59547827D01*
X97400000Y-58900000D01*
X95950000Y-58900000D01*
X95950000Y-60000000D01*
X95450000Y-60000000D01*
X95450000Y-58900000D01*
X94000000Y-58900000D01*
X94000000Y-59547844D01*
X93500500Y-59547844D01*
X93500500Y-57752155D01*
X94000000Y-57752155D01*
X94000000Y-58400000D01*
X95450000Y-58400000D01*
X95950000Y-58400000D01*
X97400000Y-58400000D01*
X97400000Y-57752172D01*
X97399999Y-57752155D01*
X105600000Y-57752155D01*
X105600000Y-58400000D01*
X107050000Y-58400000D01*
X107550000Y-58400000D01*
X109000000Y-58400000D01*
X109000000Y-57752172D01*
X108999999Y-57752155D01*
X108993598Y-57692627D01*
X108993596Y-57692620D01*
X108984225Y-57667493D01*
X108970333Y-57630247D01*
X110174500Y-57630247D01*
X110174500Y-59369752D01*
X110186131Y-59428229D01*
X110186132Y-59428230D01*
X110230447Y-59494552D01*
X110296769Y-59538867D01*
X110296770Y-59538868D01*
X110355247Y-59550499D01*
X110355250Y-59550500D01*
X110355252Y-59550500D01*
X112094750Y-59550500D01*
X112094751Y-59550499D01*
X112109568Y-59547552D01*
X112153229Y-59538868D01*
X112153229Y-59538867D01*
X112153231Y-59538867D01*
X112219552Y-59494552D01*
X112263867Y-59428231D01*
X112263867Y-59428229D01*
X112263868Y-59428229D01*
X112275499Y-59369752D01*
X112275500Y-59369750D01*
X112275500Y-58396530D01*
X112714500Y-58396530D01*
X112714500Y-58603469D01*
X112754868Y-58806412D01*
X112754870Y-58806420D01*
X112834058Y-58997596D01*
X112949024Y-59169657D01*
X113095342Y-59315975D01*
X113095345Y-59315977D01*
X113267402Y-59430941D01*
X113458580Y-59510130D01*
X113603052Y-59538867D01*
X113661530Y-59550499D01*
X113661534Y-59550500D01*
X113661535Y-59550500D01*
X113868466Y-59550500D01*
X113868467Y-59550499D01*
X114071420Y-59510130D01*
X114262598Y-59430941D01*
X114434655Y-59315977D01*
X114580977Y-59169655D01*
X114695941Y-58997598D01*
X114775130Y-58806420D01*
X114815500Y-58603465D01*
X114815500Y-58397648D01*
X117199500Y-58397648D01*
X117199500Y-58602352D01*
X117199677Y-58603469D01*
X117231522Y-58804534D01*
X117294781Y-58999223D01*
X117358691Y-59124653D01*
X117368803Y-59144498D01*
X117387715Y-59181613D01*
X117508028Y-59347213D01*
X117652786Y-59491971D01*
X117807749Y-59604556D01*
X117818390Y-59612287D01*
X117934607Y-59671503D01*
X118000776Y-59705218D01*
X118000778Y-59705218D01*
X118000781Y-59705220D01*
X118105137Y-59739127D01*
X118195465Y-59768477D01*
X118296557Y-59784488D01*
X118397648Y-59800500D01*
X118397649Y-59800500D01*
X118602351Y-59800500D01*
X118602352Y-59800500D01*
X118804534Y-59768477D01*
X118999219Y-59705220D01*
X119181610Y-59612287D01*
X119274590Y-59544732D01*
X119347213Y-59491971D01*
X119347215Y-59491968D01*
X119347219Y-59491966D01*
X119491966Y-59347219D01*
X119491968Y-59347215D01*
X119491971Y-59347213D01*
X119544732Y-59274590D01*
X119612287Y-59181610D01*
X119705220Y-58999219D01*
X119768477Y-58804534D01*
X119800500Y-58602352D01*
X119800500Y-58397648D01*
X119768477Y-58195466D01*
X119767866Y-58193587D01*
X119705747Y-58002403D01*
X119705220Y-58000781D01*
X119705218Y-58000778D01*
X119705218Y-58000776D01*
X119618378Y-57830345D01*
X119612287Y-57818390D01*
X119604556Y-57807749D01*
X119491971Y-57652786D01*
X119347213Y-57508028D01*
X119181613Y-57387715D01*
X119181612Y-57387714D01*
X119181610Y-57387713D01*
X119120636Y-57356645D01*
X118999223Y-57294781D01*
X118804534Y-57231522D01*
X118629995Y-57203878D01*
X118602352Y-57199500D01*
X118397648Y-57199500D01*
X118373329Y-57203351D01*
X118195465Y-57231522D01*
X118000776Y-57294781D01*
X117818386Y-57387715D01*
X117652786Y-57508028D01*
X117508028Y-57652786D01*
X117387715Y-57818386D01*
X117294781Y-58000776D01*
X117231522Y-58195465D01*
X117199677Y-58396530D01*
X117199500Y-58397648D01*
X114815500Y-58397648D01*
X114815500Y-58396535D01*
X114775130Y-58193580D01*
X114695941Y-58002402D01*
X114580977Y-57830345D01*
X114580975Y-57830342D01*
X114434657Y-57684024D01*
X114266655Y-57571770D01*
X114262598Y-57569059D01*
X114235689Y-57557913D01*
X114071420Y-57489870D01*
X114071412Y-57489868D01*
X113868469Y-57449500D01*
X113868465Y-57449500D01*
X113661535Y-57449500D01*
X113661530Y-57449500D01*
X113458587Y-57489868D01*
X113458579Y-57489870D01*
X113267403Y-57569058D01*
X113095342Y-57684024D01*
X112949024Y-57830342D01*
X112834058Y-58002403D01*
X112754870Y-58193579D01*
X112754868Y-58193587D01*
X112714500Y-58396530D01*
X112275500Y-58396530D01*
X112275500Y-57630249D01*
X112275499Y-57630247D01*
X112263868Y-57571770D01*
X112263867Y-57571769D01*
X112219552Y-57505447D01*
X112153230Y-57461132D01*
X112153229Y-57461131D01*
X112094752Y-57449500D01*
X112094748Y-57449500D01*
X110355252Y-57449500D01*
X110355247Y-57449500D01*
X110296770Y-57461131D01*
X110296769Y-57461132D01*
X110230447Y-57505447D01*
X110186132Y-57571769D01*
X110186131Y-57571770D01*
X110174500Y-57630247D01*
X108970333Y-57630247D01*
X108943354Y-57557913D01*
X108943350Y-57557906D01*
X108857190Y-57442812D01*
X108857187Y-57442809D01*
X108742093Y-57356649D01*
X108742086Y-57356645D01*
X108607379Y-57306403D01*
X108607372Y-57306401D01*
X108547844Y-57300000D01*
X107550000Y-57300000D01*
X107550000Y-58400000D01*
X107050000Y-58400000D01*
X107050000Y-57300000D01*
X106052155Y-57300000D01*
X105992627Y-57306401D01*
X105992620Y-57306403D01*
X105857913Y-57356645D01*
X105857906Y-57356649D01*
X105742812Y-57442809D01*
X105742809Y-57442812D01*
X105656649Y-57557906D01*
X105656645Y-57557913D01*
X105606403Y-57692620D01*
X105606401Y-57692627D01*
X105600000Y-57752155D01*
X97399999Y-57752155D01*
X97393598Y-57692627D01*
X97393596Y-57692620D01*
X97343354Y-57557913D01*
X97343350Y-57557906D01*
X97257190Y-57442812D01*
X97257187Y-57442809D01*
X97142093Y-57356649D01*
X97142086Y-57356645D01*
X97007379Y-57306403D01*
X97007372Y-57306401D01*
X96947844Y-57300000D01*
X95950000Y-57300000D01*
X95950000Y-58400000D01*
X95450000Y-58400000D01*
X95450000Y-57300000D01*
X94452155Y-57300000D01*
X94392627Y-57306401D01*
X94392620Y-57306403D01*
X94257913Y-57356645D01*
X94257906Y-57356649D01*
X94142812Y-57442809D01*
X94142809Y-57442812D01*
X94056649Y-57557906D01*
X94056645Y-57557913D01*
X94006403Y-57692620D01*
X94006401Y-57692627D01*
X94000000Y-57752155D01*
X93500500Y-57752155D01*
X93500500Y-55624500D01*
X93520185Y-55557461D01*
X93572989Y-55511706D01*
X93624500Y-55500500D01*
X120625500Y-55500500D01*
X120692539Y-55520185D01*
G37*
G04 #@! TD.AperFunction*
M02*
