M48
; DRILL file {KiCad 9.0.2} date 2025-06-24T11:01:34+0200
; FORMAT={-:-/ absolute / metric / decimal}
; #@! TF.CreationDate,2025-06-24T11:01:34+02:00
; #@! TF.GenerationSoftware,Kicad,Pcbnew,9.0.2
; #@! TF.FileFunction,Plated,1,2,PTH
FMAT,2
METRIC
; #@! TA.AperFunction,Plated,PTH,ViaDrill
T1C0.300
; #@! TA.AperFunction,Plated,PTH,ComponentDrill
T2C0.750
; #@! TA.AperFunction,Plated,PTH,ComponentDrill
T3C0.813
; #@! TA.AperFunction,Plated,PTH,ComponentDrill
T4C0.914
; #@! TA.AperFunction,Plated,PTH,ComponentDrill
T5C1.000
; #@! TA.AperFunction,Plated,PTH,ComponentDrill
T6C1.499
%
G90
G05
T1
X99.0Y-67.5
X99.0Y-97.5
X101.5Y-67.5
X103.5Y-68.0
X108.0Y-82.5
X111.975Y-63.475
X113.975Y-63.475
T2
X95.5Y-105.55
X97.5Y-105.55
T3
X104.9Y-110.5
X106.9Y-110.5
X108.9Y-110.5
T4
X107.125Y-97.5
X107.125Y-102.5
T5
X95.394Y-67.317
X95.394Y-69.857
X95.394Y-72.397
X95.394Y-74.937
X95.394Y-77.477
X95.394Y-80.017
X95.394Y-82.557
X95.394Y-85.097
X95.394Y-87.637
X95.394Y-90.177
X95.394Y-92.717
X95.394Y-95.257
X99.5Y-75.69
X99.5Y-78.23
X99.5Y-80.77
X99.5Y-83.31
X111.225Y-58.5
X113.765Y-58.5
X115.714Y-67.317
X115.714Y-69.857
X115.714Y-72.397
X115.714Y-74.937
X115.714Y-77.477
X115.714Y-80.017
X115.714Y-82.557
X115.714Y-85.097
X115.714Y-87.637
X115.714Y-90.177
X115.714Y-92.717
X115.714Y-95.257
X115.714Y-97.797
X115.714Y-100.337
X115.714Y-102.877
X115.714Y-105.417
T6
X102.8Y-110.5
X111.0Y-110.5
M30
