G04 #@! TF.GenerationSoftware,KiCad,Pcbnew,9.0.2*
G04 #@! TF.CreationDate,2025-06-24T11:01:01+02:00*
G04 #@! TF.ProjectId,SenseMatePCB,53656e73-654d-4617-9465-5043422e6b69,rev?*
G04 #@! TF.SameCoordinates,Original*
G04 #@! TF.FileFunction,Copper,L1,Top*
G04 #@! TF.FilePolarity,Positive*
%FSLAX46Y46*%
G04 Gerber Fmt 4.6, Leading zero omitted, Abs format (unit mm)*
G04 Created by KiCad (PCBNEW 9.0.2) date 2025-06-24 11:01:01*
%MOMM*%
%LPD*%
G01*
G04 APERTURE LIST*
G04 Aperture macros list*
%AMRoundRect*
0 Rectangle with rounded corners*
0 $1 Rounding radius*
0 $2 $3 $4 $5 $6 $7 $8 $9 X,Y pos of 4 corners*
0 Add a 4 corners polygon primitive as box body*
4,1,4,$2,$3,$4,$5,$6,$7,$8,$9,$2,$3,0*
0 Add four circle primitives for the rounded corners*
1,1,$1+$1,$2,$3*
1,1,$1+$1,$4,$5*
1,1,$1+$1,$6,$7*
1,1,$1+$1,$8,$9*
0 Add four rect primitives between the rounded corners*
20,1,$1+$1,$2,$3,$4,$5,0*
20,1,$1+$1,$4,$5,$6,$7,0*
20,1,$1+$1,$6,$7,$8,$9,0*
20,1,$1+$1,$8,$9,$2,$3,0*%
G04 Aperture macros list end*
G04 #@! TA.AperFunction,ComponentPad*
%ADD10C,1.320800*%
G04 #@! TD*
G04 #@! TA.AperFunction,ComponentPad*
%ADD11C,2.006600*%
G04 #@! TD*
G04 #@! TA.AperFunction,ComponentPad*
%ADD12RoundRect,0.250000X1.050000X0.550000X-1.050000X0.550000X-1.050000X-0.550000X1.050000X-0.550000X0*%
G04 #@! TD*
G04 #@! TA.AperFunction,ComponentPad*
%ADD13O,2.600000X1.600000*%
G04 #@! TD*
G04 #@! TA.AperFunction,ComponentPad*
%ADD14R,1.700000X1.700000*%
G04 #@! TD*
G04 #@! TA.AperFunction,ComponentPad*
%ADD15C,1.700000*%
G04 #@! TD*
G04 #@! TA.AperFunction,ComponentPad*
%ADD16RoundRect,0.250000X0.350000X0.625000X-0.350000X0.625000X-0.350000X-0.625000X0.350000X-0.625000X0*%
G04 #@! TD*
G04 #@! TA.AperFunction,ComponentPad*
%ADD17O,1.200000X1.750000*%
G04 #@! TD*
G04 #@! TA.AperFunction,ComponentPad*
%ADD18R,1.422400X1.422400*%
G04 #@! TD*
G04 #@! TA.AperFunction,ComponentPad*
%ADD19C,1.422400*%
G04 #@! TD*
G04 #@! TA.AperFunction,ViaPad*
%ADD20C,0.600000*%
G04 #@! TD*
G04 #@! TA.AperFunction,Conductor*
%ADD21C,0.200000*%
G04 #@! TD*
G04 APERTURE END LIST*
D10*
X104900001Y-110500000D03*
X106900001Y-110500000D03*
X108900002Y-110500000D03*
D11*
X102800002Y-110500000D03*
X111000000Y-110500000D03*
D12*
X115413900Y-105417001D03*
D13*
X115413900Y-102877001D03*
X115413900Y-100337001D03*
X115413900Y-97797001D03*
X115413900Y-95257001D03*
X115413900Y-92717001D03*
X115413900Y-90177001D03*
X115413900Y-87637001D03*
X115413900Y-85097001D03*
X115413900Y-82557001D03*
X115413900Y-80017001D03*
X115413900Y-77477001D03*
X115413900Y-74937001D03*
X115413900Y-72397001D03*
X115413900Y-69857001D03*
X115413900Y-67317001D03*
X95693900Y-67317001D03*
X95693900Y-69857001D03*
X95693900Y-72397001D03*
X95693900Y-74937001D03*
X95693900Y-77477001D03*
X95693900Y-80017001D03*
X95693900Y-82557001D03*
X95693900Y-85097001D03*
X95693900Y-87637001D03*
X95693900Y-90177001D03*
X95693900Y-92717001D03*
X95693900Y-95257001D03*
D14*
X111225000Y-58500000D03*
D15*
X113765000Y-58500000D03*
D16*
X97500000Y-105550000D03*
D17*
X95500000Y-105550000D03*
D18*
X107125000Y-102500000D03*
D19*
X107125000Y-97500000D03*
D14*
X99500000Y-75690000D03*
D15*
X99500000Y-78230000D03*
X99500000Y-80770000D03*
X99500000Y-83310000D03*
D20*
X103500000Y-68000000D03*
X101500000Y-67500000D03*
X99000000Y-67500000D03*
X111975000Y-63475000D03*
X99000000Y-97500000D03*
X108000000Y-82500000D03*
X113975000Y-63475000D03*
D21*
X115713900Y-87637001D02*
X111713000Y-83636101D01*
X111713000Y-83636101D02*
X111713000Y-79078800D01*
X111567100Y-78932900D02*
X111567100Y-78567100D01*
X103500000Y-70500000D02*
X103500000Y-68000000D01*
X111567100Y-78567100D02*
X103500000Y-70500000D01*
X111713000Y-79078800D02*
X111567100Y-78932900D01*
X111312000Y-90288001D02*
X111312000Y-90000000D01*
X101500000Y-69432900D02*
X101500000Y-69000000D01*
X115713900Y-92717001D02*
X113741000Y-92717001D01*
X111312000Y-90000000D02*
X111312000Y-79244900D01*
X111312000Y-79244900D02*
X111033550Y-78966450D01*
X113741000Y-92717001D02*
X111312000Y-90288001D01*
X101500000Y-69000000D02*
X101500000Y-67500000D01*
X111033550Y-78966450D02*
X101500000Y-69432900D01*
X110911000Y-79411000D02*
X99000000Y-67500000D01*
X110911000Y-90454101D02*
X110911000Y-79411000D01*
X115713900Y-95257001D02*
X110911000Y-90454101D01*
X111225000Y-62725000D02*
X111225000Y-58500000D01*
X111975000Y-63475000D02*
X111225000Y-62725000D01*
X98119999Y-106169999D02*
X97500000Y-105550000D01*
X102570000Y-106169999D02*
X98119999Y-106169999D01*
X102570000Y-106169999D02*
X106900001Y-110500000D01*
X113765000Y-63265000D02*
X113765000Y-58500000D01*
X113975000Y-63475000D02*
X113765000Y-63265000D01*
X99000000Y-97500000D02*
X99000000Y-90500000D01*
X107000000Y-82500000D02*
X108000000Y-82500000D01*
X99000000Y-90500000D02*
X107000000Y-82500000D01*
G04 #@! TA.AperFunction,Conductor*
G36*
X120692539Y-55520185D02*
G01*
X120738294Y-55572989D01*
X120749500Y-55624500D01*
X120749500Y-111875500D01*
X120729815Y-111942539D01*
X120677011Y-111988294D01*
X120625500Y-111999500D01*
X93624500Y-111999500D01*
X93557461Y-111979815D01*
X93511706Y-111927011D01*
X93500500Y-111875500D01*
X93500500Y-110405259D01*
X101596202Y-110405259D01*
X101596202Y-110594740D01*
X101625844Y-110781891D01*
X101684395Y-110962096D01*
X101684396Y-110962099D01*
X101760920Y-111112284D01*
X101770420Y-111130929D01*
X101881795Y-111284223D01*
X102015779Y-111418207D01*
X102169073Y-111529582D01*
X102251879Y-111571773D01*
X102337902Y-111615605D01*
X102337905Y-111615606D01*
X102428007Y-111644881D01*
X102518112Y-111674158D01*
X102705261Y-111703800D01*
X102705262Y-111703800D01*
X102894742Y-111703800D01*
X102894743Y-111703800D01*
X103081892Y-111674158D01*
X103262101Y-111615605D01*
X103430931Y-111529582D01*
X103584225Y-111418207D01*
X103718209Y-111284223D01*
X103829584Y-111130929D01*
X103915607Y-110962099D01*
X103920939Y-110945687D01*
X103960375Y-110888011D01*
X104024733Y-110860812D01*
X104093580Y-110872724D01*
X104141973Y-110915112D01*
X104231295Y-111048791D01*
X104231298Y-111048795D01*
X104351205Y-111168702D01*
X104351209Y-111168705D01*
X104492205Y-111262916D01*
X104492209Y-111262918D01*
X104492212Y-111262920D01*
X104648886Y-111327817D01*
X104815205Y-111360899D01*
X104815209Y-111360900D01*
X104815210Y-111360900D01*
X104984793Y-111360900D01*
X104984794Y-111360899D01*
X105151116Y-111327817D01*
X105307790Y-111262920D01*
X105448793Y-111168705D01*
X105568706Y-111048792D01*
X105662921Y-110907789D01*
X105727818Y-110751115D01*
X105760901Y-110584791D01*
X105760901Y-110415209D01*
X105727818Y-110248885D01*
X105662921Y-110092211D01*
X105662919Y-110092208D01*
X105662917Y-110092204D01*
X105568706Y-109951208D01*
X105568703Y-109951204D01*
X105448796Y-109831297D01*
X105448792Y-109831294D01*
X105307796Y-109737083D01*
X105307786Y-109737078D01*
X105181858Y-109684917D01*
X105151116Y-109672183D01*
X105151112Y-109672182D01*
X105151108Y-109672181D01*
X104984796Y-109639100D01*
X104984792Y-109639100D01*
X104815210Y-109639100D01*
X104815205Y-109639100D01*
X104648893Y-109672181D01*
X104648883Y-109672184D01*
X104492215Y-109737078D01*
X104492205Y-109737083D01*
X104351209Y-109831294D01*
X104351205Y-109831297D01*
X104231298Y-109951204D01*
X104231295Y-109951208D01*
X104141973Y-110084887D01*
X104088360Y-110129692D01*
X104019035Y-110138399D01*
X103956008Y-110108244D01*
X103920940Y-110054313D01*
X103915609Y-110037906D01*
X103915607Y-110037900D01*
X103870346Y-109949071D01*
X103829584Y-109869071D01*
X103718209Y-109715777D01*
X103584225Y-109581793D01*
X103430931Y-109470418D01*
X103262101Y-109384394D01*
X103262098Y-109384393D01*
X103081893Y-109325842D01*
X102988317Y-109311021D01*
X102894743Y-109296200D01*
X102705261Y-109296200D01*
X102642878Y-109306080D01*
X102518110Y-109325842D01*
X102337905Y-109384393D01*
X102337902Y-109384394D01*
X102169072Y-109470418D01*
X102127282Y-109500781D01*
X102015779Y-109581793D01*
X102015777Y-109581795D01*
X102015776Y-109581795D01*
X101881797Y-109715774D01*
X101881797Y-109715775D01*
X101881795Y-109715777D01*
X101833963Y-109781610D01*
X101770420Y-109869070D01*
X101684396Y-110037900D01*
X101684395Y-110037903D01*
X101625844Y-110218108D01*
X101596202Y-110405259D01*
X93500500Y-110405259D01*
X93500500Y-105188428D01*
X94400000Y-105188428D01*
X94400000Y-105300000D01*
X95219670Y-105300000D01*
X95199925Y-105319745D01*
X95150556Y-105405255D01*
X95125000Y-105500630D01*
X95125000Y-105599370D01*
X95150556Y-105694745D01*
X95199925Y-105780255D01*
X95219670Y-105800000D01*
X94400000Y-105800000D01*
X94400000Y-105911571D01*
X94427085Y-106082584D01*
X94480591Y-106247257D01*
X94559195Y-106401524D01*
X94660967Y-106541602D01*
X94783397Y-106664032D01*
X94923475Y-106765804D01*
X95077744Y-106844408D01*
X95242415Y-106897914D01*
X95242414Y-106897914D01*
X95249999Y-106899115D01*
X95250000Y-106899114D01*
X95250000Y-105830330D01*
X95269745Y-105850075D01*
X95355255Y-105899444D01*
X95450630Y-105925000D01*
X95549370Y-105925000D01*
X95644745Y-105899444D01*
X95730255Y-105850075D01*
X95750000Y-105830330D01*
X95750000Y-106899115D01*
X95757584Y-106897914D01*
X95922255Y-106844408D01*
X96076524Y-106765804D01*
X96216602Y-106664032D01*
X96339032Y-106541602D01*
X96440804Y-106401524D01*
X96493579Y-106297948D01*
X96541554Y-106247152D01*
X96609375Y-106230357D01*
X96675509Y-106252894D01*
X96718961Y-106307609D01*
X96721105Y-106313288D01*
X96747206Y-106387880D01*
X96747207Y-106387882D01*
X96827850Y-106497150D01*
X96937118Y-106577793D01*
X96979845Y-106592744D01*
X97065299Y-106622646D01*
X97095730Y-106625500D01*
X97095734Y-106625500D01*
X97904270Y-106625500D01*
X97934699Y-106622646D01*
X97934701Y-106622646D01*
X97998790Y-106600219D01*
X98062882Y-106577793D01*
X98073200Y-106570177D01*
X98175431Y-106494729D01*
X98241060Y-106470758D01*
X98249064Y-106470499D01*
X102394167Y-106470499D01*
X102461206Y-106490184D01*
X102481848Y-106506818D01*
X106058038Y-110083008D01*
X106091523Y-110144331D01*
X106086539Y-110214023D01*
X106084918Y-110218141D01*
X106072186Y-110248877D01*
X106072182Y-110248892D01*
X106039101Y-110415204D01*
X106039101Y-110584795D01*
X106072182Y-110751107D01*
X106072185Y-110751117D01*
X106137079Y-110907785D01*
X106137084Y-110907795D01*
X106231295Y-111048791D01*
X106231298Y-111048795D01*
X106351205Y-111168702D01*
X106351209Y-111168705D01*
X106492205Y-111262916D01*
X106492209Y-111262918D01*
X106492212Y-111262920D01*
X106648886Y-111327817D01*
X106815205Y-111360899D01*
X106815209Y-111360900D01*
X106815210Y-111360900D01*
X106984793Y-111360900D01*
X106984794Y-111360899D01*
X107151116Y-111327817D01*
X107307790Y-111262920D01*
X107448793Y-111168705D01*
X107568706Y-111048792D01*
X107662921Y-110907789D01*
X107727818Y-110751115D01*
X107760901Y-110584791D01*
X107760901Y-110415209D01*
X107760900Y-110415204D01*
X108039102Y-110415204D01*
X108039102Y-110584795D01*
X108072183Y-110751107D01*
X108072186Y-110751117D01*
X108137080Y-110907785D01*
X108137085Y-110907795D01*
X108231296Y-111048791D01*
X108231299Y-111048795D01*
X108351206Y-111168702D01*
X108351210Y-111168705D01*
X108492206Y-111262916D01*
X108492210Y-111262918D01*
X108492213Y-111262920D01*
X108648887Y-111327817D01*
X108815206Y-111360899D01*
X108815210Y-111360900D01*
X108815211Y-111360900D01*
X108984794Y-111360900D01*
X108984795Y-111360899D01*
X109151117Y-111327817D01*
X109307791Y-111262920D01*
X109448794Y-111168705D01*
X109568707Y-111048792D01*
X109658028Y-110915114D01*
X109711640Y-110870308D01*
X109780965Y-110861601D01*
X109843992Y-110891755D01*
X109879060Y-110945682D01*
X109884394Y-110962097D01*
X109884394Y-110962099D01*
X109960918Y-111112284D01*
X109970418Y-111130929D01*
X110081793Y-111284223D01*
X110215777Y-111418207D01*
X110369071Y-111529582D01*
X110451877Y-111571773D01*
X110537900Y-111615605D01*
X110537903Y-111615606D01*
X110628005Y-111644881D01*
X110718110Y-111674158D01*
X110905259Y-111703800D01*
X110905260Y-111703800D01*
X111094740Y-111703800D01*
X111094741Y-111703800D01*
X111281890Y-111674158D01*
X111462099Y-111615605D01*
X111630929Y-111529582D01*
X111784223Y-111418207D01*
X111918207Y-111284223D01*
X112029582Y-111130929D01*
X112115605Y-110962099D01*
X112174158Y-110781890D01*
X112203800Y-110594741D01*
X112203800Y-110405259D01*
X112174158Y-110218110D01*
X112144643Y-110127270D01*
X112115606Y-110037903D01*
X112115604Y-110037900D01*
X112070344Y-109949071D01*
X112066565Y-109941655D01*
X112044143Y-109897648D01*
X117199500Y-109897648D01*
X117199500Y-110102351D01*
X117231522Y-110304534D01*
X117294781Y-110499223D01*
X117387715Y-110681613D01*
X117508028Y-110847213D01*
X117652786Y-110991971D01*
X117807749Y-111104556D01*
X117818390Y-111112287D01*
X117929111Y-111168702D01*
X118000776Y-111205218D01*
X118000778Y-111205218D01*
X118000781Y-111205220D01*
X118105137Y-111239127D01*
X118195465Y-111268477D01*
X118294881Y-111284223D01*
X118397648Y-111300500D01*
X118397649Y-111300500D01*
X118602351Y-111300500D01*
X118602352Y-111300500D01*
X118804534Y-111268477D01*
X118999219Y-111205220D01*
X119181610Y-111112287D01*
X119274590Y-111044732D01*
X119347213Y-110991971D01*
X119347215Y-110991968D01*
X119347219Y-110991966D01*
X119491966Y-110847219D01*
X119491968Y-110847215D01*
X119491971Y-110847213D01*
X119544732Y-110774590D01*
X119612287Y-110681610D01*
X119705220Y-110499219D01*
X119768477Y-110304534D01*
X119800500Y-110102352D01*
X119800500Y-109897648D01*
X119768477Y-109695466D01*
X119767476Y-109692386D01*
X119705218Y-109500776D01*
X119645918Y-109384395D01*
X119612287Y-109318390D01*
X119596165Y-109296200D01*
X119491971Y-109152786D01*
X119347213Y-109008028D01*
X119181613Y-108887715D01*
X119181612Y-108887714D01*
X119181610Y-108887713D01*
X119124653Y-108858691D01*
X118999223Y-108794781D01*
X118804534Y-108731522D01*
X118629995Y-108703878D01*
X118602352Y-108699500D01*
X118397648Y-108699500D01*
X118373329Y-108703351D01*
X118195465Y-108731522D01*
X118000776Y-108794781D01*
X117818386Y-108887715D01*
X117652786Y-109008028D01*
X117508028Y-109152786D01*
X117387715Y-109318386D01*
X117294781Y-109500776D01*
X117231522Y-109695465D01*
X117199500Y-109897648D01*
X112044143Y-109897648D01*
X112029582Y-109869071D01*
X111918207Y-109715777D01*
X111784223Y-109581793D01*
X111630929Y-109470418D01*
X111462099Y-109384394D01*
X111462096Y-109384393D01*
X111281891Y-109325842D01*
X111188315Y-109311021D01*
X111094741Y-109296200D01*
X110905259Y-109296200D01*
X110842876Y-109306080D01*
X110718108Y-109325842D01*
X110537903Y-109384393D01*
X110537900Y-109384394D01*
X110369070Y-109470418D01*
X110327280Y-109500781D01*
X110215777Y-109581793D01*
X110215775Y-109581795D01*
X110215774Y-109581795D01*
X110081795Y-109715774D01*
X110081795Y-109715775D01*
X110081793Y-109715777D01*
X110033961Y-109781610D01*
X109970418Y-109869070D01*
X109884394Y-110037900D01*
X109884392Y-110037906D01*
X109879059Y-110054319D01*
X109839619Y-110111992D01*
X109775259Y-110139187D01*
X109706413Y-110127270D01*
X109658028Y-110084886D01*
X109568707Y-109951208D01*
X109568704Y-109951204D01*
X109448797Y-109831297D01*
X109448793Y-109831294D01*
X109307797Y-109737083D01*
X109307787Y-109737078D01*
X109181859Y-109684917D01*
X109151117Y-109672183D01*
X109151113Y-109672182D01*
X109151109Y-109672181D01*
X108984797Y-109639100D01*
X108984793Y-109639100D01*
X108815211Y-109639100D01*
X108815206Y-109639100D01*
X108648894Y-109672181D01*
X108648884Y-109672184D01*
X108492216Y-109737078D01*
X108492206Y-109737083D01*
X108351210Y-109831294D01*
X108351206Y-109831297D01*
X108231299Y-109951204D01*
X108231296Y-109951208D01*
X108137085Y-110092204D01*
X108137080Y-110092214D01*
X108072186Y-110248882D01*
X108072183Y-110248892D01*
X108039102Y-110415204D01*
X107760900Y-110415204D01*
X107727818Y-110248885D01*
X107662921Y-110092211D01*
X107662919Y-110092208D01*
X107662917Y-110092204D01*
X107568706Y-109951208D01*
X107568703Y-109951204D01*
X107448796Y-109831297D01*
X107448792Y-109831294D01*
X107307796Y-109737083D01*
X107307786Y-109737078D01*
X107181858Y-109684917D01*
X107151116Y-109672183D01*
X107151112Y-109672182D01*
X107151108Y-109672181D01*
X106984796Y-109639100D01*
X106984792Y-109639100D01*
X106815210Y-109639100D01*
X106815205Y-109639100D01*
X106648893Y-109672181D01*
X106648878Y-109672185D01*
X106618142Y-109684917D01*
X106548672Y-109692386D01*
X106486193Y-109661110D01*
X106483009Y-109658037D01*
X102754512Y-105929540D01*
X102754504Y-105929534D01*
X102685995Y-105889981D01*
X102685990Y-105889978D01*
X102660513Y-105883151D01*
X102609562Y-105869499D01*
X102609560Y-105869499D01*
X98424500Y-105869499D01*
X98357461Y-105849814D01*
X98311706Y-105797010D01*
X98300500Y-105745499D01*
X98300500Y-104870730D01*
X98297646Y-104840299D01*
X98287999Y-104812731D01*
X113913400Y-104812731D01*
X113913400Y-106021270D01*
X113916253Y-106051700D01*
X113916253Y-106051702D01*
X113961106Y-106179881D01*
X113961107Y-106179883D01*
X114041750Y-106289151D01*
X114151018Y-106369794D01*
X114193745Y-106384745D01*
X114279199Y-106414647D01*
X114309630Y-106417501D01*
X114309634Y-106417501D01*
X116518170Y-106417501D01*
X116548599Y-106414647D01*
X116548601Y-106414647D01*
X116625095Y-106387880D01*
X116676782Y-106369794D01*
X116786050Y-106289151D01*
X116866693Y-106179883D01*
X116889119Y-106115791D01*
X116911546Y-106051702D01*
X116911546Y-106051700D01*
X116914400Y-106021270D01*
X116914400Y-104812731D01*
X116911546Y-104782301D01*
X116911546Y-104782299D01*
X116866693Y-104654120D01*
X116866692Y-104654118D01*
X116786050Y-104544851D01*
X116676782Y-104464208D01*
X116676780Y-104464207D01*
X116548600Y-104419354D01*
X116518170Y-104416501D01*
X116518166Y-104416501D01*
X114309634Y-104416501D01*
X114309630Y-104416501D01*
X114279200Y-104419354D01*
X114279198Y-104419354D01*
X114151019Y-104464207D01*
X114151017Y-104464208D01*
X114041750Y-104544851D01*
X113961107Y-104654118D01*
X113961106Y-104654120D01*
X113916253Y-104782299D01*
X113916253Y-104782301D01*
X113913400Y-104812731D01*
X98287999Y-104812731D01*
X98252793Y-104712119D01*
X98252792Y-104712117D01*
X98242724Y-104698475D01*
X98172150Y-104602850D01*
X98062882Y-104522207D01*
X98062880Y-104522206D01*
X97934700Y-104477353D01*
X97904270Y-104474500D01*
X97904266Y-104474500D01*
X97095734Y-104474500D01*
X97095730Y-104474500D01*
X97065300Y-104477353D01*
X97065298Y-104477353D01*
X96937119Y-104522206D01*
X96937117Y-104522207D01*
X96827850Y-104602850D01*
X96747207Y-104712117D01*
X96721105Y-104786712D01*
X96680383Y-104843487D01*
X96615430Y-104869234D01*
X96546868Y-104855777D01*
X96496466Y-104807389D01*
X96493579Y-104802051D01*
X96440804Y-104698475D01*
X96339032Y-104558397D01*
X96216602Y-104435967D01*
X96076524Y-104334195D01*
X95922257Y-104255591D01*
X95757589Y-104202087D01*
X95757581Y-104202085D01*
X95750000Y-104200884D01*
X95750000Y-105269670D01*
X95730255Y-105249925D01*
X95644745Y-105200556D01*
X95549370Y-105175000D01*
X95450630Y-105175000D01*
X95355255Y-105200556D01*
X95269745Y-105249925D01*
X95250000Y-105269670D01*
X95250000Y-104200884D01*
X95249999Y-104200884D01*
X95242418Y-104202085D01*
X95242410Y-104202087D01*
X95077742Y-104255591D01*
X94923475Y-104334195D01*
X94783397Y-104435967D01*
X94660967Y-104558397D01*
X94559195Y-104698475D01*
X94480591Y-104852742D01*
X94427085Y-105017415D01*
X94400000Y-105188428D01*
X93500500Y-105188428D01*
X93500500Y-101769047D01*
X106213300Y-101769047D01*
X106213300Y-103230952D01*
X106224931Y-103289429D01*
X106224932Y-103289430D01*
X106269247Y-103355752D01*
X106335569Y-103400067D01*
X106335570Y-103400068D01*
X106394047Y-103411699D01*
X106394050Y-103411700D01*
X106394052Y-103411700D01*
X107855950Y-103411700D01*
X107855951Y-103411699D01*
X107870768Y-103408752D01*
X107914429Y-103400068D01*
X107914429Y-103400067D01*
X107914431Y-103400067D01*
X107980752Y-103355752D01*
X108025067Y-103289431D01*
X108025067Y-103289429D01*
X108025068Y-103289429D01*
X108036699Y-103230952D01*
X108036700Y-103230950D01*
X108036700Y-102975544D01*
X113913399Y-102975544D01*
X113951847Y-103168830D01*
X113951850Y-103168840D01*
X114027264Y-103350908D01*
X114027271Y-103350921D01*
X114136760Y-103514782D01*
X114136763Y-103514786D01*
X114276114Y-103654137D01*
X114276118Y-103654140D01*
X114439979Y-103763629D01*
X114439992Y-103763636D01*
X114622060Y-103839050D01*
X114622065Y-103839052D01*
X114622069Y-103839052D01*
X114622070Y-103839053D01*
X114815356Y-103877501D01*
X114815359Y-103877501D01*
X116012443Y-103877501D01*
X116142482Y-103851633D01*
X116205735Y-103839052D01*
X116387814Y-103763633D01*
X116551682Y-103654140D01*
X116691039Y-103514783D01*
X116800532Y-103350915D01*
X116875951Y-103168836D01*
X116914400Y-102975542D01*
X116914400Y-102778460D01*
X116914400Y-102778457D01*
X116875952Y-102585171D01*
X116875951Y-102585170D01*
X116875951Y-102585166D01*
X116875949Y-102585161D01*
X116800535Y-102403093D01*
X116800528Y-102403080D01*
X116691039Y-102239219D01*
X116691036Y-102239215D01*
X116551685Y-102099864D01*
X116551681Y-102099861D01*
X116387820Y-101990372D01*
X116387807Y-101990365D01*
X116205739Y-101914951D01*
X116205729Y-101914948D01*
X116012443Y-101876501D01*
X116012441Y-101876501D01*
X114815359Y-101876501D01*
X114815357Y-101876501D01*
X114622070Y-101914948D01*
X114622060Y-101914951D01*
X114439992Y-101990365D01*
X114439979Y-101990372D01*
X114276118Y-102099861D01*
X114276114Y-102099864D01*
X114136763Y-102239215D01*
X114136760Y-102239219D01*
X114027271Y-102403080D01*
X114027264Y-102403093D01*
X113951850Y-102585161D01*
X113951847Y-102585171D01*
X113913400Y-102778457D01*
X113913400Y-102778460D01*
X113913400Y-102975542D01*
X113913400Y-102975544D01*
X113913399Y-102975544D01*
X108036700Y-102975544D01*
X108036700Y-101769049D01*
X108036699Y-101769047D01*
X108025068Y-101710570D01*
X108025067Y-101710569D01*
X107980752Y-101644247D01*
X107914430Y-101599932D01*
X107914429Y-101599931D01*
X107855952Y-101588300D01*
X107855948Y-101588300D01*
X106394052Y-101588300D01*
X106394047Y-101588300D01*
X106335570Y-101599931D01*
X106335569Y-101599932D01*
X106269247Y-101644247D01*
X106224932Y-101710569D01*
X106224931Y-101710570D01*
X106213300Y-101769047D01*
X93500500Y-101769047D01*
X93500500Y-97434108D01*
X98499500Y-97434108D01*
X98499500Y-97565891D01*
X98533608Y-97693187D01*
X98555541Y-97731175D01*
X98599500Y-97807314D01*
X98692686Y-97900500D01*
X98806814Y-97966392D01*
X98934108Y-98000500D01*
X98934110Y-98000500D01*
X99065890Y-98000500D01*
X99065892Y-98000500D01*
X99193186Y-97966392D01*
X99307314Y-97900500D01*
X99400500Y-97807314D01*
X99466392Y-97693186D01*
X99500500Y-97565892D01*
X99500500Y-97434108D01*
X99494094Y-97410200D01*
X106213300Y-97410200D01*
X106213300Y-97589799D01*
X106248334Y-97765925D01*
X106248336Y-97765933D01*
X106317060Y-97931850D01*
X106416836Y-98081174D01*
X106416839Y-98081178D01*
X106543821Y-98208160D01*
X106543825Y-98208163D01*
X106693149Y-98307939D01*
X106776107Y-98342301D01*
X106859067Y-98376664D01*
X107035200Y-98411699D01*
X107035203Y-98411700D01*
X107035205Y-98411700D01*
X107214797Y-98411700D01*
X107214798Y-98411699D01*
X107390933Y-98376664D01*
X107556852Y-98307938D01*
X107706175Y-98208163D01*
X107833163Y-98081175D01*
X107932938Y-97931852D01*
X108001664Y-97765933D01*
X108036700Y-97589795D01*
X108036700Y-97410205D01*
X108036700Y-97410202D01*
X108036699Y-97410200D01*
X108001665Y-97234074D01*
X108001664Y-97234067D01*
X107967301Y-97151107D01*
X107932939Y-97068149D01*
X107833163Y-96918825D01*
X107833160Y-96918821D01*
X107706178Y-96791839D01*
X107706174Y-96791836D01*
X107556850Y-96692060D01*
X107390933Y-96623336D01*
X107390925Y-96623334D01*
X107214798Y-96588300D01*
X107214795Y-96588300D01*
X107035205Y-96588300D01*
X107035202Y-96588300D01*
X106859074Y-96623334D01*
X106859066Y-96623336D01*
X106693149Y-96692060D01*
X106543825Y-96791836D01*
X106543821Y-96791839D01*
X106416839Y-96918821D01*
X106416836Y-96918825D01*
X106317060Y-97068149D01*
X106248336Y-97234066D01*
X106248334Y-97234074D01*
X106213300Y-97410200D01*
X99494094Y-97410200D01*
X99466392Y-97306814D01*
X99461286Y-97297971D01*
X99424391Y-97234067D01*
X99400500Y-97192686D01*
X99336818Y-97129004D01*
X99303334Y-97067680D01*
X99300500Y-97041323D01*
X99300500Y-90675833D01*
X99320185Y-90608794D01*
X99336819Y-90588152D01*
X107088152Y-82836819D01*
X107149475Y-82803334D01*
X107175833Y-82800500D01*
X107541324Y-82800500D01*
X107608363Y-82820185D01*
X107629005Y-82836819D01*
X107692686Y-82900500D01*
X107806814Y-82966392D01*
X107934108Y-83000500D01*
X107934110Y-83000500D01*
X108065890Y-83000500D01*
X108065892Y-83000500D01*
X108193186Y-82966392D01*
X108307314Y-82900500D01*
X108400500Y-82807314D01*
X108466392Y-82693186D01*
X108500500Y-82565892D01*
X108500500Y-82434108D01*
X108466392Y-82306814D01*
X108400500Y-82192686D01*
X108307314Y-82099500D01*
X108250250Y-82066554D01*
X108193187Y-82033608D01*
X108129539Y-82016554D01*
X108065892Y-81999500D01*
X107934108Y-81999500D01*
X107806812Y-82033608D01*
X107692686Y-82099500D01*
X107692683Y-82099502D01*
X107629005Y-82163181D01*
X107567682Y-82196666D01*
X107541324Y-82199500D01*
X106960438Y-82199500D01*
X106909486Y-82213152D01*
X106884010Y-82219979D01*
X106824934Y-82254087D01*
X106824933Y-82254086D01*
X106815492Y-82259537D01*
X106815487Y-82259541D01*
X98759541Y-90315487D01*
X98759535Y-90315495D01*
X98719982Y-90384004D01*
X98719979Y-90384009D01*
X98699500Y-90460439D01*
X98699500Y-97041323D01*
X98679815Y-97108362D01*
X98663182Y-97129004D01*
X98599500Y-97192686D01*
X98533608Y-97306812D01*
X98499500Y-97434108D01*
X93500500Y-97434108D01*
X93500500Y-95355544D01*
X94193399Y-95355544D01*
X94231847Y-95548830D01*
X94231850Y-95548840D01*
X94307264Y-95730908D01*
X94307271Y-95730921D01*
X94416760Y-95894782D01*
X94416763Y-95894786D01*
X94556114Y-96034137D01*
X94556118Y-96034140D01*
X94719979Y-96143629D01*
X94719992Y-96143636D01*
X94902060Y-96219050D01*
X94902065Y-96219052D01*
X94902069Y-96219052D01*
X94902070Y-96219053D01*
X95095356Y-96257501D01*
X95095359Y-96257501D01*
X96292443Y-96257501D01*
X96422482Y-96231633D01*
X96485735Y-96219052D01*
X96667814Y-96143633D01*
X96831682Y-96034140D01*
X96971039Y-95894783D01*
X97080532Y-95730915D01*
X97155951Y-95548836D01*
X97194400Y-95355542D01*
X97194400Y-95158460D01*
X97194400Y-95158457D01*
X97155952Y-94965171D01*
X97155951Y-94965170D01*
X97155951Y-94965166D01*
X97155949Y-94965161D01*
X97080535Y-94783093D01*
X97080528Y-94783080D01*
X96971039Y-94619219D01*
X96971036Y-94619215D01*
X96831685Y-94479864D01*
X96831681Y-94479861D01*
X96667820Y-94370372D01*
X96667807Y-94370365D01*
X96485739Y-94294951D01*
X96485729Y-94294948D01*
X96292443Y-94256501D01*
X96292441Y-94256501D01*
X95095359Y-94256501D01*
X95095357Y-94256501D01*
X94902070Y-94294948D01*
X94902060Y-94294951D01*
X94719992Y-94370365D01*
X94719979Y-94370372D01*
X94556118Y-94479861D01*
X94556114Y-94479864D01*
X94416763Y-94619215D01*
X94416760Y-94619219D01*
X94307271Y-94783080D01*
X94307264Y-94783093D01*
X94231850Y-94965161D01*
X94231847Y-94965171D01*
X94193400Y-95158457D01*
X94193400Y-95158460D01*
X94193400Y-95355542D01*
X94193400Y-95355544D01*
X94193399Y-95355544D01*
X93500500Y-95355544D01*
X93500500Y-92815544D01*
X94193399Y-92815544D01*
X94231847Y-93008830D01*
X94231850Y-93008840D01*
X94307264Y-93190908D01*
X94307271Y-93190921D01*
X94416760Y-93354782D01*
X94416763Y-93354786D01*
X94556114Y-93494137D01*
X94556118Y-93494140D01*
X94719979Y-93603629D01*
X94719992Y-93603636D01*
X94902060Y-93679050D01*
X94902065Y-93679052D01*
X94902069Y-93679052D01*
X94902070Y-93679053D01*
X95095356Y-93717501D01*
X95095359Y-93717501D01*
X96292443Y-93717501D01*
X96422482Y-93691633D01*
X96485735Y-93679052D01*
X96667814Y-93603633D01*
X96831682Y-93494140D01*
X96971039Y-93354783D01*
X97080532Y-93190915D01*
X97155951Y-93008836D01*
X97194400Y-92815542D01*
X97194400Y-92618460D01*
X97194400Y-92618457D01*
X97155952Y-92425171D01*
X97155951Y-92425170D01*
X97155951Y-92425166D01*
X97132211Y-92367852D01*
X97080535Y-92243093D01*
X97080528Y-92243080D01*
X96971039Y-92079219D01*
X96971036Y-92079215D01*
X96831685Y-91939864D01*
X96831681Y-91939861D01*
X96667820Y-91830372D01*
X96667807Y-91830365D01*
X96485739Y-91754951D01*
X96485729Y-91754948D01*
X96292443Y-91716501D01*
X96292441Y-91716501D01*
X95095359Y-91716501D01*
X95095357Y-91716501D01*
X94902070Y-91754948D01*
X94902060Y-91754951D01*
X94719992Y-91830365D01*
X94719979Y-91830372D01*
X94556118Y-91939861D01*
X94556114Y-91939864D01*
X94416763Y-92079215D01*
X94416760Y-92079219D01*
X94307271Y-92243080D01*
X94307264Y-92243093D01*
X94231850Y-92425161D01*
X94231847Y-92425171D01*
X94193400Y-92618457D01*
X94193400Y-92618460D01*
X94193400Y-92815542D01*
X94193400Y-92815544D01*
X94193399Y-92815544D01*
X93500500Y-92815544D01*
X93500500Y-90275544D01*
X94193399Y-90275544D01*
X94231847Y-90468830D01*
X94231850Y-90468840D01*
X94307264Y-90650908D01*
X94307271Y-90650921D01*
X94416760Y-90814782D01*
X94416763Y-90814786D01*
X94556114Y-90954137D01*
X94556118Y-90954140D01*
X94719979Y-91063629D01*
X94719992Y-91063636D01*
X94902060Y-91139050D01*
X94902065Y-91139052D01*
X94902069Y-91139052D01*
X94902070Y-91139053D01*
X95095356Y-91177501D01*
X95095359Y-91177501D01*
X96292443Y-91177501D01*
X96422482Y-91151633D01*
X96485735Y-91139052D01*
X96667814Y-91063633D01*
X96831682Y-90954140D01*
X96971039Y-90814783D01*
X97080532Y-90650915D01*
X97155951Y-90468836D01*
X97186454Y-90315489D01*
X97194400Y-90275544D01*
X97194400Y-90078457D01*
X97155952Y-89885171D01*
X97155951Y-89885170D01*
X97155951Y-89885166D01*
X97155949Y-89885161D01*
X97080535Y-89703093D01*
X97080528Y-89703080D01*
X96971039Y-89539219D01*
X96971036Y-89539215D01*
X96831685Y-89399864D01*
X96831681Y-89399861D01*
X96667820Y-89290372D01*
X96667807Y-89290365D01*
X96485739Y-89214951D01*
X96485729Y-89214948D01*
X96292443Y-89176501D01*
X96292441Y-89176501D01*
X95095359Y-89176501D01*
X95095357Y-89176501D01*
X94902070Y-89214948D01*
X94902060Y-89214951D01*
X94719992Y-89290365D01*
X94719979Y-89290372D01*
X94556118Y-89399861D01*
X94556114Y-89399864D01*
X94416763Y-89539215D01*
X94416760Y-89539219D01*
X94307271Y-89703080D01*
X94307264Y-89703093D01*
X94231850Y-89885161D01*
X94231847Y-89885171D01*
X94193400Y-90078457D01*
X94193400Y-90078460D01*
X94193400Y-90275542D01*
X94193400Y-90275544D01*
X94193399Y-90275544D01*
X93500500Y-90275544D01*
X93500500Y-87735544D01*
X94193399Y-87735544D01*
X94231847Y-87928830D01*
X94231850Y-87928840D01*
X94307264Y-88110908D01*
X94307271Y-88110921D01*
X94416760Y-88274782D01*
X94416763Y-88274786D01*
X94556114Y-88414137D01*
X94556118Y-88414140D01*
X94719979Y-88523629D01*
X94719992Y-88523636D01*
X94902060Y-88599050D01*
X94902065Y-88599052D01*
X94902069Y-88599052D01*
X94902070Y-88599053D01*
X95095356Y-88637501D01*
X95095359Y-88637501D01*
X96292443Y-88637501D01*
X96422482Y-88611633D01*
X96485735Y-88599052D01*
X96667814Y-88523633D01*
X96831682Y-88414140D01*
X96971039Y-88274783D01*
X97080532Y-88110915D01*
X97155951Y-87928836D01*
X97194400Y-87735542D01*
X97194400Y-87538460D01*
X97194400Y-87538457D01*
X97155952Y-87345171D01*
X97155951Y-87345170D01*
X97155951Y-87345166D01*
X97155949Y-87345161D01*
X97080535Y-87163093D01*
X97080528Y-87163080D01*
X96971039Y-86999219D01*
X96971036Y-86999215D01*
X96831685Y-86859864D01*
X96831681Y-86859861D01*
X96667820Y-86750372D01*
X96667807Y-86750365D01*
X96485739Y-86674951D01*
X96485729Y-86674948D01*
X96292443Y-86636501D01*
X96292441Y-86636501D01*
X95095359Y-86636501D01*
X95095357Y-86636501D01*
X94902070Y-86674948D01*
X94902060Y-86674951D01*
X94719992Y-86750365D01*
X94719979Y-86750372D01*
X94556118Y-86859861D01*
X94556114Y-86859864D01*
X94416763Y-86999215D01*
X94416760Y-86999219D01*
X94307271Y-87163080D01*
X94307264Y-87163093D01*
X94231850Y-87345161D01*
X94231847Y-87345171D01*
X94193400Y-87538457D01*
X94193400Y-87538460D01*
X94193400Y-87735542D01*
X94193400Y-87735544D01*
X94193399Y-87735544D01*
X93500500Y-87735544D01*
X93500500Y-85195544D01*
X94193399Y-85195544D01*
X94231847Y-85388830D01*
X94231850Y-85388840D01*
X94307264Y-85570908D01*
X94307271Y-85570921D01*
X94416760Y-85734782D01*
X94416763Y-85734786D01*
X94556114Y-85874137D01*
X94556118Y-85874140D01*
X94719979Y-85983629D01*
X94719992Y-85983636D01*
X94902060Y-86059050D01*
X94902065Y-86059052D01*
X94902069Y-86059052D01*
X94902070Y-86059053D01*
X95095356Y-86097501D01*
X95095359Y-86097501D01*
X96292443Y-86097501D01*
X96422482Y-86071633D01*
X96485735Y-86059052D01*
X96667814Y-85983633D01*
X96831682Y-85874140D01*
X96971039Y-85734783D01*
X97080532Y-85570915D01*
X97155951Y-85388836D01*
X97188548Y-85224962D01*
X97194400Y-85195544D01*
X97194400Y-84998457D01*
X97155952Y-84805171D01*
X97155951Y-84805170D01*
X97155951Y-84805166D01*
X97155949Y-84805161D01*
X97080535Y-84623093D01*
X97080528Y-84623080D01*
X96971039Y-84459219D01*
X96971036Y-84459215D01*
X96831685Y-84319864D01*
X96831681Y-84319861D01*
X96667820Y-84210372D01*
X96667807Y-84210365D01*
X96485739Y-84134951D01*
X96485729Y-84134948D01*
X96292443Y-84096501D01*
X96292441Y-84096501D01*
X95095359Y-84096501D01*
X95095357Y-84096501D01*
X94902070Y-84134948D01*
X94902060Y-84134951D01*
X94719992Y-84210365D01*
X94719979Y-84210372D01*
X94556118Y-84319861D01*
X94556114Y-84319864D01*
X94416763Y-84459215D01*
X94416760Y-84459219D01*
X94307271Y-84623080D01*
X94307264Y-84623093D01*
X94231850Y-84805161D01*
X94231847Y-84805171D01*
X94193400Y-84998457D01*
X94193400Y-84998460D01*
X94193400Y-85195542D01*
X94193400Y-85195544D01*
X94193399Y-85195544D01*
X93500500Y-85195544D01*
X93500500Y-82655544D01*
X94193399Y-82655544D01*
X94231847Y-82848830D01*
X94231850Y-82848840D01*
X94307264Y-83030908D01*
X94307271Y-83030921D01*
X94416760Y-83194782D01*
X94416763Y-83194786D01*
X94556114Y-83334137D01*
X94556118Y-83334140D01*
X94719979Y-83443629D01*
X94719992Y-83443636D01*
X94902060Y-83519050D01*
X94902065Y-83519052D01*
X94902069Y-83519052D01*
X94902070Y-83519053D01*
X95095356Y-83557501D01*
X95095359Y-83557501D01*
X96292443Y-83557501D01*
X96422482Y-83531633D01*
X96485735Y-83519052D01*
X96667814Y-83443633D01*
X96831682Y-83334140D01*
X96959292Y-83206530D01*
X98449500Y-83206530D01*
X98449500Y-83413469D01*
X98489868Y-83616412D01*
X98489870Y-83616420D01*
X98569058Y-83807596D01*
X98684024Y-83979657D01*
X98830342Y-84125975D01*
X98830345Y-84125977D01*
X99002402Y-84240941D01*
X99193580Y-84320130D01*
X99396530Y-84360499D01*
X99396534Y-84360500D01*
X99396535Y-84360500D01*
X99603466Y-84360500D01*
X99603467Y-84360499D01*
X99806420Y-84320130D01*
X99997598Y-84240941D01*
X100169655Y-84125977D01*
X100315977Y-83979655D01*
X100430941Y-83807598D01*
X100510130Y-83616420D01*
X100550500Y-83413465D01*
X100550500Y-83206535D01*
X100510130Y-83003580D01*
X100430941Y-82812402D01*
X100315977Y-82640345D01*
X100315975Y-82640342D01*
X100169657Y-82494024D01*
X100079985Y-82434108D01*
X99997598Y-82379059D01*
X99806420Y-82299870D01*
X99806412Y-82299868D01*
X99603469Y-82259500D01*
X99603465Y-82259500D01*
X99396535Y-82259500D01*
X99396530Y-82259500D01*
X99193587Y-82299868D01*
X99193579Y-82299870D01*
X99002403Y-82379058D01*
X98830342Y-82494024D01*
X98684024Y-82640342D01*
X98569058Y-82812403D01*
X98489870Y-83003579D01*
X98489868Y-83003587D01*
X98449500Y-83206530D01*
X96959292Y-83206530D01*
X96971039Y-83194783D01*
X97080532Y-83030915D01*
X97155951Y-82848836D01*
X97194400Y-82655542D01*
X97194400Y-82458460D01*
X97194400Y-82458457D01*
X97155952Y-82265171D01*
X97155951Y-82265170D01*
X97155951Y-82265166D01*
X97137234Y-82219979D01*
X97080535Y-82083093D01*
X97080528Y-82083080D01*
X96971039Y-81919219D01*
X96971036Y-81919215D01*
X96831685Y-81779864D01*
X96831681Y-81779861D01*
X96667820Y-81670372D01*
X96667807Y-81670365D01*
X96485739Y-81594951D01*
X96485729Y-81594948D01*
X96292443Y-81556501D01*
X96292441Y-81556501D01*
X95095359Y-81556501D01*
X95095357Y-81556501D01*
X94902070Y-81594948D01*
X94902060Y-81594951D01*
X94719992Y-81670365D01*
X94719979Y-81670372D01*
X94556118Y-81779861D01*
X94556114Y-81779864D01*
X94416763Y-81919215D01*
X94416760Y-81919219D01*
X94307271Y-82083080D01*
X94307264Y-82083093D01*
X94231850Y-82265161D01*
X94231847Y-82265171D01*
X94193400Y-82458457D01*
X94193400Y-82458460D01*
X94193400Y-82655542D01*
X94193400Y-82655544D01*
X94193399Y-82655544D01*
X93500500Y-82655544D01*
X93500500Y-80115544D01*
X94193399Y-80115544D01*
X94231847Y-80308830D01*
X94231850Y-80308840D01*
X94307264Y-80490908D01*
X94307271Y-80490921D01*
X94416760Y-80654782D01*
X94416763Y-80654786D01*
X94556114Y-80794137D01*
X94556118Y-80794140D01*
X94719979Y-80903629D01*
X94719992Y-80903636D01*
X94902060Y-80979050D01*
X94902065Y-80979052D01*
X94902069Y-80979052D01*
X94902070Y-80979053D01*
X95095356Y-81017501D01*
X95095359Y-81017501D01*
X96292443Y-81017501D01*
X96422482Y-80991633D01*
X96485735Y-80979052D01*
X96667814Y-80903633D01*
X96831682Y-80794140D01*
X96959292Y-80666530D01*
X98449500Y-80666530D01*
X98449500Y-80873469D01*
X98489868Y-81076412D01*
X98489870Y-81076420D01*
X98569058Y-81267596D01*
X98684024Y-81439657D01*
X98830342Y-81585975D01*
X98830345Y-81585977D01*
X99002402Y-81700941D01*
X99193580Y-81780130D01*
X99396530Y-81820499D01*
X99396534Y-81820500D01*
X99396535Y-81820500D01*
X99603466Y-81820500D01*
X99603467Y-81820499D01*
X99806420Y-81780130D01*
X99997598Y-81700941D01*
X100169655Y-81585977D01*
X100315977Y-81439655D01*
X100430941Y-81267598D01*
X100510130Y-81076420D01*
X100550500Y-80873465D01*
X100550500Y-80666535D01*
X100510130Y-80463580D01*
X100430941Y-80272402D01*
X100315977Y-80100345D01*
X100315975Y-80100342D01*
X100169657Y-79954024D01*
X100083626Y-79896541D01*
X99997598Y-79839059D01*
X99806420Y-79759870D01*
X99806412Y-79759868D01*
X99603469Y-79719500D01*
X99603465Y-79719500D01*
X99396535Y-79719500D01*
X99396530Y-79719500D01*
X99193587Y-79759868D01*
X99193579Y-79759870D01*
X99002403Y-79839058D01*
X98830342Y-79954024D01*
X98684024Y-80100342D01*
X98569058Y-80272403D01*
X98489870Y-80463579D01*
X98489868Y-80463587D01*
X98449500Y-80666530D01*
X96959292Y-80666530D01*
X96971039Y-80654783D01*
X97080532Y-80490915D01*
X97155951Y-80308836D01*
X97194400Y-80115542D01*
X97194400Y-79918460D01*
X97194400Y-79918457D01*
X97155952Y-79725171D01*
X97155951Y-79725170D01*
X97155951Y-79725166D01*
X97098652Y-79586833D01*
X97080535Y-79543093D01*
X97080528Y-79543080D01*
X96971039Y-79379219D01*
X96971036Y-79379215D01*
X96831685Y-79239864D01*
X96831681Y-79239861D01*
X96667820Y-79130372D01*
X96667807Y-79130365D01*
X96485739Y-79054951D01*
X96485729Y-79054948D01*
X96292443Y-79016501D01*
X96292441Y-79016501D01*
X95095359Y-79016501D01*
X95095357Y-79016501D01*
X94902070Y-79054948D01*
X94902060Y-79054951D01*
X94719992Y-79130365D01*
X94719979Y-79130372D01*
X94556118Y-79239861D01*
X94556114Y-79239864D01*
X94416763Y-79379215D01*
X94416760Y-79379219D01*
X94307271Y-79543080D01*
X94307264Y-79543093D01*
X94231850Y-79725161D01*
X94231847Y-79725171D01*
X94193400Y-79918457D01*
X94193400Y-79918460D01*
X94193400Y-80115542D01*
X94193400Y-80115544D01*
X94193399Y-80115544D01*
X93500500Y-80115544D01*
X93500500Y-77575544D01*
X94193399Y-77575544D01*
X94231847Y-77768830D01*
X94231850Y-77768840D01*
X94307264Y-77950908D01*
X94307271Y-77950921D01*
X94416760Y-78114782D01*
X94416763Y-78114786D01*
X94556114Y-78254137D01*
X94556118Y-78254140D01*
X94719979Y-78363629D01*
X94719992Y-78363636D01*
X94902060Y-78439050D01*
X94902065Y-78439052D01*
X94902069Y-78439052D01*
X94902070Y-78439053D01*
X95095356Y-78477501D01*
X95095359Y-78477501D01*
X96292443Y-78477501D01*
X96425146Y-78451104D01*
X96485735Y-78439052D01*
X96667814Y-78363633D01*
X96831682Y-78254140D01*
X96971039Y-78114783D01*
X97080532Y-77950915D01*
X97155951Y-77768836D01*
X97194400Y-77575542D01*
X97194400Y-77378460D01*
X97194400Y-77378457D01*
X97155952Y-77185171D01*
X97155951Y-77185170D01*
X97155951Y-77185166D01*
X97149017Y-77168426D01*
X97080535Y-77003093D01*
X97080528Y-77003080D01*
X96971039Y-76839219D01*
X96971036Y-76839215D01*
X96831685Y-76699864D01*
X96831681Y-76699861D01*
X96667820Y-76590372D01*
X96667807Y-76590365D01*
X96485739Y-76514951D01*
X96485729Y-76514948D01*
X96292443Y-76476501D01*
X96292441Y-76476501D01*
X95095359Y-76476501D01*
X95095357Y-76476501D01*
X94902070Y-76514948D01*
X94902060Y-76514951D01*
X94719992Y-76590365D01*
X94719979Y-76590372D01*
X94556118Y-76699861D01*
X94556114Y-76699864D01*
X94416763Y-76839215D01*
X94416760Y-76839219D01*
X94307271Y-77003080D01*
X94307264Y-77003093D01*
X94231850Y-77185161D01*
X94231847Y-77185171D01*
X94193400Y-77378457D01*
X94193400Y-77378460D01*
X94193400Y-77575542D01*
X94193400Y-77575544D01*
X94193399Y-77575544D01*
X93500500Y-77575544D01*
X93500500Y-75035544D01*
X94193399Y-75035544D01*
X94231847Y-75228830D01*
X94231850Y-75228840D01*
X94307264Y-75410908D01*
X94307271Y-75410921D01*
X94416760Y-75574782D01*
X94416763Y-75574786D01*
X94556114Y-75714137D01*
X94556118Y-75714140D01*
X94719979Y-75823629D01*
X94719992Y-75823636D01*
X94902060Y-75899050D01*
X94902065Y-75899052D01*
X94902069Y-75899052D01*
X94902070Y-75899053D01*
X95095356Y-75937501D01*
X95095359Y-75937501D01*
X96292443Y-75937501D01*
X96422482Y-75911633D01*
X96485735Y-75899052D01*
X96667814Y-75823633D01*
X96667820Y-75823629D01*
X96724831Y-75785536D01*
X96770961Y-75754712D01*
X96831682Y-75714140D01*
X96971039Y-75574783D01*
X97080532Y-75410915D01*
X97155951Y-75228836D01*
X97194400Y-75035542D01*
X97194400Y-74838460D01*
X97189344Y-74813041D01*
X97189344Y-74813038D01*
X97185190Y-74792155D01*
X98150000Y-74792155D01*
X98150000Y-75440000D01*
X99066988Y-75440000D01*
X99034075Y-75497007D01*
X99000000Y-75624174D01*
X99000000Y-75755826D01*
X99034075Y-75882993D01*
X99066988Y-75940000D01*
X98150000Y-75940000D01*
X98150000Y-76587844D01*
X98156401Y-76647372D01*
X98156403Y-76647379D01*
X98206645Y-76782086D01*
X98206649Y-76782093D01*
X98292809Y-76897187D01*
X98292812Y-76897190D01*
X98407906Y-76983350D01*
X98407913Y-76983354D01*
X98542620Y-77033596D01*
X98542627Y-77033598D01*
X98602155Y-77039999D01*
X98602172Y-77040000D01*
X99004435Y-77040000D01*
X99071474Y-77059685D01*
X99117229Y-77112489D01*
X99127173Y-77181647D01*
X99098148Y-77245203D01*
X99051888Y-77278561D01*
X99002403Y-77299058D01*
X98830342Y-77414024D01*
X98684024Y-77560342D01*
X98569058Y-77732403D01*
X98489870Y-77923579D01*
X98489868Y-77923587D01*
X98449500Y-78126530D01*
X98449500Y-78333469D01*
X98472901Y-78451111D01*
X98489870Y-78536420D01*
X98569059Y-78727598D01*
X98589415Y-78758063D01*
X98684024Y-78899657D01*
X98830342Y-79045975D01*
X98830345Y-79045977D01*
X99002402Y-79160941D01*
X99193580Y-79240130D01*
X99396530Y-79280499D01*
X99396534Y-79280500D01*
X99396535Y-79280500D01*
X99603466Y-79280500D01*
X99603467Y-79280499D01*
X99806420Y-79240130D01*
X99997598Y-79160941D01*
X100169655Y-79045977D01*
X100315977Y-78899655D01*
X100430941Y-78727598D01*
X100510130Y-78536420D01*
X100550500Y-78333465D01*
X100550500Y-78126535D01*
X100510130Y-77923580D01*
X100430941Y-77732402D01*
X100315977Y-77560345D01*
X100315975Y-77560342D01*
X100169657Y-77414024D01*
X100083626Y-77356541D01*
X99997598Y-77299059D01*
X99948112Y-77278561D01*
X99893709Y-77234720D01*
X99871644Y-77168426D01*
X99888923Y-77100726D01*
X99940061Y-77053116D01*
X99995565Y-77040000D01*
X100397828Y-77040000D01*
X100397844Y-77039999D01*
X100457372Y-77033598D01*
X100457379Y-77033596D01*
X100592086Y-76983354D01*
X100592093Y-76983350D01*
X100707187Y-76897190D01*
X100707190Y-76897187D01*
X100793350Y-76782093D01*
X100793354Y-76782086D01*
X100843596Y-76647379D01*
X100843598Y-76647372D01*
X100849999Y-76587844D01*
X100850000Y-76587827D01*
X100850000Y-75940000D01*
X99933012Y-75940000D01*
X99965925Y-75882993D01*
X100000000Y-75755826D01*
X100000000Y-75624174D01*
X99965925Y-75497007D01*
X99933012Y-75440000D01*
X100850000Y-75440000D01*
X100850000Y-74792172D01*
X100849999Y-74792155D01*
X100843598Y-74732627D01*
X100843596Y-74732620D01*
X100793354Y-74597913D01*
X100793350Y-74597906D01*
X100707190Y-74482812D01*
X100707187Y-74482809D01*
X100592093Y-74396649D01*
X100592086Y-74396645D01*
X100457379Y-74346403D01*
X100457372Y-74346401D01*
X100397844Y-74340000D01*
X99750000Y-74340000D01*
X99750000Y-75256988D01*
X99692993Y-75224075D01*
X99565826Y-75190000D01*
X99434174Y-75190000D01*
X99307007Y-75224075D01*
X99250000Y-75256988D01*
X99250000Y-74340000D01*
X98602155Y-74340000D01*
X98542627Y-74346401D01*
X98542620Y-74346403D01*
X98407913Y-74396645D01*
X98407906Y-74396649D01*
X98292812Y-74482809D01*
X98292809Y-74482812D01*
X98206649Y-74597906D01*
X98206645Y-74597913D01*
X98156403Y-74732620D01*
X98156401Y-74732627D01*
X98150000Y-74792155D01*
X97185190Y-74792155D01*
X97155952Y-74645171D01*
X97155951Y-74645170D01*
X97155951Y-74645166D01*
X97155949Y-74645161D01*
X97080535Y-74463093D01*
X97080528Y-74463080D01*
X96971039Y-74299219D01*
X96971036Y-74299215D01*
X96831685Y-74159864D01*
X96831681Y-74159861D01*
X96667820Y-74050372D01*
X96667807Y-74050365D01*
X96485739Y-73974951D01*
X96485729Y-73974948D01*
X96292443Y-73936501D01*
X96292441Y-73936501D01*
X95095359Y-73936501D01*
X95095357Y-73936501D01*
X94902070Y-73974948D01*
X94902060Y-73974951D01*
X94719992Y-74050365D01*
X94719979Y-74050372D01*
X94556118Y-74159861D01*
X94556114Y-74159864D01*
X94416763Y-74299215D01*
X94416760Y-74299219D01*
X94307271Y-74463080D01*
X94307264Y-74463093D01*
X94231850Y-74645161D01*
X94231847Y-74645171D01*
X94193400Y-74838457D01*
X94193400Y-74838460D01*
X94193400Y-75035542D01*
X94193400Y-75035544D01*
X94193399Y-75035544D01*
X93500500Y-75035544D01*
X93500500Y-72495544D01*
X94193399Y-72495544D01*
X94231847Y-72688830D01*
X94231850Y-72688840D01*
X94307264Y-72870908D01*
X94307271Y-72870921D01*
X94416760Y-73034782D01*
X94416763Y-73034786D01*
X94556114Y-73174137D01*
X94556118Y-73174140D01*
X94719979Y-73283629D01*
X94719992Y-73283636D01*
X94902060Y-73359050D01*
X94902065Y-73359052D01*
X94902069Y-73359052D01*
X94902070Y-73359053D01*
X95095356Y-73397501D01*
X95095359Y-73397501D01*
X96292443Y-73397501D01*
X96422482Y-73371633D01*
X96485735Y-73359052D01*
X96667814Y-73283633D01*
X96831682Y-73174140D01*
X96971039Y-73034783D01*
X97080532Y-72870915D01*
X97155951Y-72688836D01*
X97194400Y-72495542D01*
X97194400Y-72298460D01*
X97194400Y-72298457D01*
X97155952Y-72105171D01*
X97155951Y-72105170D01*
X97155951Y-72105166D01*
X97155949Y-72105161D01*
X97080535Y-71923093D01*
X97080528Y-71923080D01*
X96971039Y-71759219D01*
X96971036Y-71759215D01*
X96831685Y-71619864D01*
X96831681Y-71619861D01*
X96667820Y-71510372D01*
X96667807Y-71510365D01*
X96485739Y-71434951D01*
X96485729Y-71434948D01*
X96292443Y-71396501D01*
X96292441Y-71396501D01*
X95095359Y-71396501D01*
X95095357Y-71396501D01*
X94902070Y-71434948D01*
X94902060Y-71434951D01*
X94719992Y-71510365D01*
X94719979Y-71510372D01*
X94556118Y-71619861D01*
X94556114Y-71619864D01*
X94416763Y-71759215D01*
X94416760Y-71759219D01*
X94307271Y-71923080D01*
X94307264Y-71923093D01*
X94231850Y-72105161D01*
X94231847Y-72105171D01*
X94193400Y-72298457D01*
X94193400Y-72298460D01*
X94193400Y-72495542D01*
X94193400Y-72495544D01*
X94193399Y-72495544D01*
X93500500Y-72495544D01*
X93500500Y-69955544D01*
X94193399Y-69955544D01*
X94231847Y-70148830D01*
X94231850Y-70148840D01*
X94307264Y-70330908D01*
X94307271Y-70330921D01*
X94416760Y-70494782D01*
X94416763Y-70494786D01*
X94556114Y-70634137D01*
X94556118Y-70634140D01*
X94719979Y-70743629D01*
X94719992Y-70743636D01*
X94900457Y-70818386D01*
X94902065Y-70819052D01*
X94902069Y-70819052D01*
X94902070Y-70819053D01*
X95095356Y-70857501D01*
X95095359Y-70857501D01*
X96292443Y-70857501D01*
X96422482Y-70831633D01*
X96485735Y-70819052D01*
X96667814Y-70743633D01*
X96831682Y-70634140D01*
X96971039Y-70494783D01*
X97080532Y-70330915D01*
X97095500Y-70294780D01*
X97121701Y-70231523D01*
X97155951Y-70148836D01*
X97194400Y-69955542D01*
X97194400Y-69758460D01*
X97194400Y-69758457D01*
X97155952Y-69565171D01*
X97155951Y-69565170D01*
X97155951Y-69565166D01*
X97155949Y-69565161D01*
X97080535Y-69383093D01*
X97080528Y-69383080D01*
X96971039Y-69219219D01*
X96971036Y-69219215D01*
X96831685Y-69079864D01*
X96831681Y-69079861D01*
X96667820Y-68970372D01*
X96667807Y-68970365D01*
X96485739Y-68894951D01*
X96485729Y-68894948D01*
X96292443Y-68856501D01*
X96292441Y-68856501D01*
X95095359Y-68856501D01*
X95095357Y-68856501D01*
X94902070Y-68894948D01*
X94902060Y-68894951D01*
X94719992Y-68970365D01*
X94719979Y-68970372D01*
X94556118Y-69079861D01*
X94556114Y-69079864D01*
X94416763Y-69219215D01*
X94416760Y-69219219D01*
X94307271Y-69383080D01*
X94307264Y-69383093D01*
X94231850Y-69565161D01*
X94231847Y-69565171D01*
X94193400Y-69758457D01*
X94193400Y-69758460D01*
X94193400Y-69955542D01*
X94193400Y-69955544D01*
X94193399Y-69955544D01*
X93500500Y-69955544D01*
X93500500Y-67415544D01*
X94193399Y-67415544D01*
X94231847Y-67608830D01*
X94231850Y-67608840D01*
X94307264Y-67790908D01*
X94307271Y-67790921D01*
X94416760Y-67954782D01*
X94416763Y-67954786D01*
X94556114Y-68094137D01*
X94556118Y-68094140D01*
X94719979Y-68203629D01*
X94719992Y-68203636D01*
X94902060Y-68279050D01*
X94902065Y-68279052D01*
X94902069Y-68279052D01*
X94902070Y-68279053D01*
X95095356Y-68317501D01*
X95095359Y-68317501D01*
X96292443Y-68317501D01*
X96422482Y-68291633D01*
X96485735Y-68279052D01*
X96667814Y-68203633D01*
X96831682Y-68094140D01*
X96971039Y-67954783D01*
X97080532Y-67790915D01*
X97155951Y-67608836D01*
X97190707Y-67434108D01*
X98499500Y-67434108D01*
X98499500Y-67565892D01*
X98508505Y-67599500D01*
X98533608Y-67693187D01*
X98566554Y-67750250D01*
X98599500Y-67807314D01*
X98692686Y-67900500D01*
X98786705Y-67954782D01*
X98793449Y-67958676D01*
X98806814Y-67966392D01*
X98934108Y-68000500D01*
X98934110Y-68000500D01*
X99024167Y-68000500D01*
X99091206Y-68020185D01*
X99111848Y-68036819D01*
X110574181Y-79499152D01*
X110607666Y-79560475D01*
X110610500Y-79586833D01*
X110610500Y-90493663D01*
X110630979Y-90570090D01*
X110641407Y-90588152D01*
X110641607Y-90588497D01*
X110641608Y-90588501D01*
X110641609Y-90588501D01*
X110670539Y-90638610D01*
X110670541Y-90638613D01*
X114310553Y-94278625D01*
X114344038Y-94339948D01*
X114339054Y-94409640D01*
X114297182Y-94465573D01*
X114291763Y-94469408D01*
X114276118Y-94479861D01*
X114276114Y-94479864D01*
X114136763Y-94619215D01*
X114136760Y-94619219D01*
X114027271Y-94783080D01*
X114027264Y-94783093D01*
X113951850Y-94965161D01*
X113951847Y-94965171D01*
X113913400Y-95158457D01*
X113913400Y-95158460D01*
X113913400Y-95355542D01*
X113913400Y-95355544D01*
X113913399Y-95355544D01*
X113951847Y-95548830D01*
X113951850Y-95548840D01*
X114027264Y-95730908D01*
X114027271Y-95730921D01*
X114136760Y-95894782D01*
X114136763Y-95894786D01*
X114276114Y-96034137D01*
X114276118Y-96034140D01*
X114439979Y-96143629D01*
X114439992Y-96143636D01*
X114622060Y-96219050D01*
X114622065Y-96219052D01*
X114754574Y-96245410D01*
X114802961Y-96255035D01*
X114864872Y-96287420D01*
X114899446Y-96348135D01*
X114895707Y-96417905D01*
X114854840Y-96474577D01*
X114798169Y-96499125D01*
X114609481Y-96529011D01*
X114414868Y-96592245D01*
X114232550Y-96685141D01*
X114067005Y-96805418D01*
X114067004Y-96805418D01*
X113922317Y-96950105D01*
X113922317Y-96950106D01*
X113802040Y-97115651D01*
X113709144Y-97297971D01*
X113645909Y-97492587D01*
X113637291Y-97547001D01*
X115280888Y-97547001D01*
X115247975Y-97604008D01*
X115213900Y-97731175D01*
X115213900Y-97862827D01*
X115247975Y-97989994D01*
X115280888Y-98047001D01*
X113637291Y-98047001D01*
X113645909Y-98101414D01*
X113709144Y-98296030D01*
X113802040Y-98478350D01*
X113922317Y-98643895D01*
X113922317Y-98643896D01*
X114067004Y-98788583D01*
X114232550Y-98908860D01*
X114414868Y-99001756D01*
X114609482Y-99064991D01*
X114798168Y-99094876D01*
X114861303Y-99124805D01*
X114898234Y-99184117D01*
X114897236Y-99253979D01*
X114858626Y-99312212D01*
X114802962Y-99338966D01*
X114622070Y-99374948D01*
X114622060Y-99374951D01*
X114439992Y-99450365D01*
X114439979Y-99450372D01*
X114276118Y-99559861D01*
X114276114Y-99559864D01*
X114136763Y-99699215D01*
X114136760Y-99699219D01*
X114027271Y-99863080D01*
X114027264Y-99863093D01*
X113951850Y-100045161D01*
X113951847Y-100045171D01*
X113913400Y-100238457D01*
X113913400Y-100238460D01*
X113913400Y-100435542D01*
X113913400Y-100435544D01*
X113913399Y-100435544D01*
X113951847Y-100628830D01*
X113951850Y-100628840D01*
X114027264Y-100810908D01*
X114027271Y-100810921D01*
X114136760Y-100974782D01*
X114136763Y-100974786D01*
X114276114Y-101114137D01*
X114276118Y-101114140D01*
X114439979Y-101223629D01*
X114439992Y-101223636D01*
X114622060Y-101299050D01*
X114622065Y-101299052D01*
X114622069Y-101299052D01*
X114622070Y-101299053D01*
X114815356Y-101337501D01*
X114815359Y-101337501D01*
X116012443Y-101337501D01*
X116142482Y-101311633D01*
X116205735Y-101299052D01*
X116387814Y-101223633D01*
X116551682Y-101114140D01*
X116691039Y-100974783D01*
X116800532Y-100810915D01*
X116875951Y-100628836D01*
X116914400Y-100435542D01*
X116914400Y-100238460D01*
X116914400Y-100238457D01*
X116875952Y-100045171D01*
X116875951Y-100045170D01*
X116875951Y-100045166D01*
X116875949Y-100045161D01*
X116800535Y-99863093D01*
X116800528Y-99863080D01*
X116691039Y-99699219D01*
X116691036Y-99699215D01*
X116551685Y-99559864D01*
X116551681Y-99559861D01*
X116387820Y-99450372D01*
X116387807Y-99450365D01*
X116205739Y-99374951D01*
X116205729Y-99374948D01*
X116024837Y-99338966D01*
X115962926Y-99306581D01*
X115928352Y-99245865D01*
X115932092Y-99176096D01*
X115972959Y-99119424D01*
X116029631Y-99094876D01*
X116218317Y-99064991D01*
X116412931Y-99001756D01*
X116595249Y-98908860D01*
X116760794Y-98788583D01*
X116760795Y-98788583D01*
X116905482Y-98643896D01*
X116905482Y-98643895D01*
X117025759Y-98478350D01*
X117118655Y-98296030D01*
X117181890Y-98101414D01*
X117190509Y-98047001D01*
X116146912Y-98047001D01*
X116179825Y-97989994D01*
X116213900Y-97862827D01*
X116213900Y-97731175D01*
X116179825Y-97604008D01*
X116146912Y-97547001D01*
X117190509Y-97547001D01*
X117181890Y-97492587D01*
X117118655Y-97297971D01*
X117025759Y-97115651D01*
X116905482Y-96950106D01*
X116905482Y-96950105D01*
X116760795Y-96805418D01*
X116595249Y-96685141D01*
X116412931Y-96592245D01*
X116218317Y-96529010D01*
X116029631Y-96499125D01*
X115966496Y-96469195D01*
X115929565Y-96409884D01*
X115930563Y-96340021D01*
X115969173Y-96281789D01*
X116024838Y-96255035D01*
X116205735Y-96219052D01*
X116387814Y-96143633D01*
X116551682Y-96034140D01*
X116691039Y-95894783D01*
X116800532Y-95730915D01*
X116875951Y-95548836D01*
X116914400Y-95355542D01*
X116914400Y-95158460D01*
X116914400Y-95158457D01*
X116875952Y-94965171D01*
X116875951Y-94965170D01*
X116875951Y-94965166D01*
X116875949Y-94965161D01*
X116800535Y-94783093D01*
X116800528Y-94783080D01*
X116691039Y-94619219D01*
X116691036Y-94619215D01*
X116551685Y-94479864D01*
X116551681Y-94479861D01*
X116387820Y-94370372D01*
X116387807Y-94370365D01*
X116205739Y-94294951D01*
X116205729Y-94294948D01*
X116012443Y-94256501D01*
X116012441Y-94256501D01*
X115189733Y-94256501D01*
X115122694Y-94236816D01*
X115102052Y-94220182D01*
X114811052Y-93929182D01*
X114777567Y-93867859D01*
X114782551Y-93798167D01*
X114824423Y-93742234D01*
X114889887Y-93717817D01*
X114898733Y-93717501D01*
X116012443Y-93717501D01*
X116142482Y-93691633D01*
X116205735Y-93679052D01*
X116387814Y-93603633D01*
X116551682Y-93494140D01*
X116691039Y-93354783D01*
X116800532Y-93190915D01*
X116875951Y-93008836D01*
X116914400Y-92815542D01*
X116914400Y-92618460D01*
X116914400Y-92618457D01*
X116875952Y-92425171D01*
X116875951Y-92425170D01*
X116875951Y-92425166D01*
X116852211Y-92367852D01*
X116800535Y-92243093D01*
X116800528Y-92243080D01*
X116691039Y-92079219D01*
X116691036Y-92079215D01*
X116551685Y-91939864D01*
X116551681Y-91939861D01*
X116387820Y-91830372D01*
X116387807Y-91830365D01*
X116205739Y-91754951D01*
X116205729Y-91754948D01*
X116012443Y-91716501D01*
X116012441Y-91716501D01*
X114815359Y-91716501D01*
X114815357Y-91716501D01*
X114622070Y-91754948D01*
X114622060Y-91754951D01*
X114439992Y-91830365D01*
X114439979Y-91830372D01*
X114276118Y-91939861D01*
X114276114Y-91939864D01*
X114136763Y-92079215D01*
X114136760Y-92079219D01*
X114027271Y-92243080D01*
X114027268Y-92243087D01*
X114000104Y-92308665D01*
X113956262Y-92363068D01*
X113889967Y-92385132D01*
X113822268Y-92367852D01*
X113797862Y-92348892D01*
X111724514Y-90275544D01*
X113913399Y-90275544D01*
X113951847Y-90468830D01*
X113951850Y-90468840D01*
X114027264Y-90650908D01*
X114027271Y-90650921D01*
X114136760Y-90814782D01*
X114136763Y-90814786D01*
X114276114Y-90954137D01*
X114276118Y-90954140D01*
X114439979Y-91063629D01*
X114439992Y-91063636D01*
X114622060Y-91139050D01*
X114622065Y-91139052D01*
X114622069Y-91139052D01*
X114622070Y-91139053D01*
X114815356Y-91177501D01*
X114815359Y-91177501D01*
X116012443Y-91177501D01*
X116142482Y-91151633D01*
X116205735Y-91139052D01*
X116387814Y-91063633D01*
X116551682Y-90954140D01*
X116691039Y-90814783D01*
X116800532Y-90650915D01*
X116875951Y-90468836D01*
X116906454Y-90315489D01*
X116914400Y-90275544D01*
X116914400Y-90078457D01*
X116875952Y-89885171D01*
X116875951Y-89885170D01*
X116875951Y-89885166D01*
X116875949Y-89885161D01*
X116800535Y-89703093D01*
X116800528Y-89703080D01*
X116691039Y-89539219D01*
X116691036Y-89539215D01*
X116551685Y-89399864D01*
X116551681Y-89399861D01*
X116387820Y-89290372D01*
X116387807Y-89290365D01*
X116205739Y-89214951D01*
X116205729Y-89214948D01*
X116012443Y-89176501D01*
X116012441Y-89176501D01*
X114815359Y-89176501D01*
X114815357Y-89176501D01*
X114622070Y-89214948D01*
X114622060Y-89214951D01*
X114439992Y-89290365D01*
X114439979Y-89290372D01*
X114276118Y-89399861D01*
X114276114Y-89399864D01*
X114136763Y-89539215D01*
X114136760Y-89539219D01*
X114027271Y-89703080D01*
X114027264Y-89703093D01*
X113951850Y-89885161D01*
X113951847Y-89885171D01*
X113913400Y-90078457D01*
X113913400Y-90078460D01*
X113913400Y-90275542D01*
X113913400Y-90275544D01*
X113913399Y-90275544D01*
X111724514Y-90275544D01*
X111648819Y-90199849D01*
X111634115Y-90172921D01*
X111617523Y-90147103D01*
X111616631Y-90140902D01*
X111615334Y-90138526D01*
X111612500Y-90112168D01*
X111612500Y-84259934D01*
X111632185Y-84192895D01*
X111684989Y-84147140D01*
X111754147Y-84137196D01*
X111817703Y-84166221D01*
X111824181Y-84172253D01*
X114310553Y-86658625D01*
X114344038Y-86719948D01*
X114339054Y-86789640D01*
X114297182Y-86845573D01*
X114291763Y-86849408D01*
X114276118Y-86859861D01*
X114276114Y-86859864D01*
X114136763Y-86999215D01*
X114136760Y-86999219D01*
X114027271Y-87163080D01*
X114027264Y-87163093D01*
X113951850Y-87345161D01*
X113951847Y-87345171D01*
X113913400Y-87538457D01*
X113913400Y-87538460D01*
X113913400Y-87735542D01*
X113913400Y-87735544D01*
X113913399Y-87735544D01*
X113951847Y-87928830D01*
X113951850Y-87928840D01*
X114027264Y-88110908D01*
X114027271Y-88110921D01*
X114136760Y-88274782D01*
X114136763Y-88274786D01*
X114276114Y-88414137D01*
X114276118Y-88414140D01*
X114439979Y-88523629D01*
X114439992Y-88523636D01*
X114622060Y-88599050D01*
X114622065Y-88599052D01*
X114622069Y-88599052D01*
X114622070Y-88599053D01*
X114815356Y-88637501D01*
X114815359Y-88637501D01*
X116012443Y-88637501D01*
X116142482Y-88611633D01*
X116205735Y-88599052D01*
X116387814Y-88523633D01*
X116551682Y-88414140D01*
X116691039Y-88274783D01*
X116800532Y-88110915D01*
X116875951Y-87928836D01*
X116914400Y-87735542D01*
X116914400Y-87538460D01*
X116914400Y-87538457D01*
X116875952Y-87345171D01*
X116875951Y-87345170D01*
X116875951Y-87345166D01*
X116875949Y-87345161D01*
X116800535Y-87163093D01*
X116800528Y-87163080D01*
X116691039Y-86999219D01*
X116691036Y-86999215D01*
X116551685Y-86859864D01*
X116551681Y-86859861D01*
X116387820Y-86750372D01*
X116387807Y-86750365D01*
X116205739Y-86674951D01*
X116205729Y-86674948D01*
X116012443Y-86636501D01*
X116012441Y-86636501D01*
X115189733Y-86636501D01*
X115122694Y-86616816D01*
X115102052Y-86600182D01*
X114811052Y-86309182D01*
X114777567Y-86247859D01*
X114782551Y-86178167D01*
X114824423Y-86122234D01*
X114889887Y-86097817D01*
X114898733Y-86097501D01*
X116012443Y-86097501D01*
X116142482Y-86071633D01*
X116205735Y-86059052D01*
X116387814Y-85983633D01*
X116551682Y-85874140D01*
X116691039Y-85734783D01*
X116800532Y-85570915D01*
X116875951Y-85388836D01*
X116908548Y-85224962D01*
X116914400Y-85195544D01*
X116914400Y-84998457D01*
X116875952Y-84805171D01*
X116875951Y-84805170D01*
X116875951Y-84805166D01*
X116875949Y-84805161D01*
X116800535Y-84623093D01*
X116800528Y-84623080D01*
X116691039Y-84459219D01*
X116691036Y-84459215D01*
X116551685Y-84319864D01*
X116551681Y-84319861D01*
X116387820Y-84210372D01*
X116387807Y-84210365D01*
X116205739Y-84134951D01*
X116205729Y-84134948D01*
X116012443Y-84096501D01*
X116012441Y-84096501D01*
X114815359Y-84096501D01*
X114815357Y-84096501D01*
X114622070Y-84134948D01*
X114622060Y-84134951D01*
X114439992Y-84210365D01*
X114439979Y-84210372D01*
X114276118Y-84319861D01*
X114276114Y-84319864D01*
X114136763Y-84459215D01*
X114136760Y-84459219D01*
X114027271Y-84623080D01*
X114027264Y-84623093D01*
X113951850Y-84805161D01*
X113951847Y-84805171D01*
X113913400Y-84998457D01*
X113913400Y-85112168D01*
X113893715Y-85179207D01*
X113840911Y-85224962D01*
X113771753Y-85234906D01*
X113708197Y-85205881D01*
X113701719Y-85199849D01*
X112049819Y-83547949D01*
X112016334Y-83486626D01*
X112013500Y-83460268D01*
X112013500Y-82655544D01*
X113913399Y-82655544D01*
X113951847Y-82848830D01*
X113951850Y-82848840D01*
X114027264Y-83030908D01*
X114027271Y-83030921D01*
X114136760Y-83194782D01*
X114136763Y-83194786D01*
X114276114Y-83334137D01*
X114276118Y-83334140D01*
X114439979Y-83443629D01*
X114439992Y-83443636D01*
X114622060Y-83519050D01*
X114622065Y-83519052D01*
X114622069Y-83519052D01*
X114622070Y-83519053D01*
X114815356Y-83557501D01*
X114815359Y-83557501D01*
X116012443Y-83557501D01*
X116142482Y-83531633D01*
X116205735Y-83519052D01*
X116387814Y-83443633D01*
X116551682Y-83334140D01*
X116691039Y-83194783D01*
X116800532Y-83030915D01*
X116875951Y-82848836D01*
X116914400Y-82655542D01*
X116914400Y-82458460D01*
X116914400Y-82458457D01*
X116875952Y-82265171D01*
X116875951Y-82265170D01*
X116875951Y-82265166D01*
X116857234Y-82219979D01*
X116800535Y-82083093D01*
X116800528Y-82083080D01*
X116691039Y-81919219D01*
X116691036Y-81919215D01*
X116551685Y-81779864D01*
X116551681Y-81779861D01*
X116387820Y-81670372D01*
X116387807Y-81670365D01*
X116205739Y-81594951D01*
X116205729Y-81594948D01*
X116012443Y-81556501D01*
X116012441Y-81556501D01*
X114815359Y-81556501D01*
X114815357Y-81556501D01*
X114622070Y-81594948D01*
X114622060Y-81594951D01*
X114439992Y-81670365D01*
X114439979Y-81670372D01*
X114276118Y-81779861D01*
X114276114Y-81779864D01*
X114136763Y-81919215D01*
X114136760Y-81919219D01*
X114027271Y-82083080D01*
X114027264Y-82083093D01*
X113951850Y-82265161D01*
X113951847Y-82265171D01*
X113913400Y-82458457D01*
X113913400Y-82458460D01*
X113913400Y-82655542D01*
X113913400Y-82655544D01*
X113913399Y-82655544D01*
X112013500Y-82655544D01*
X112013500Y-80115544D01*
X113913399Y-80115544D01*
X113951847Y-80308830D01*
X113951850Y-80308840D01*
X114027264Y-80490908D01*
X114027271Y-80490921D01*
X114136760Y-80654782D01*
X114136763Y-80654786D01*
X114276114Y-80794137D01*
X114276118Y-80794140D01*
X114439979Y-80903629D01*
X114439992Y-80903636D01*
X114622060Y-80979050D01*
X114622065Y-80979052D01*
X114622069Y-80979052D01*
X114622070Y-80979053D01*
X114815356Y-81017501D01*
X114815359Y-81017501D01*
X116012443Y-81017501D01*
X116142482Y-80991633D01*
X116205735Y-80979052D01*
X116387814Y-80903633D01*
X116551682Y-80794140D01*
X116691039Y-80654783D01*
X116800532Y-80490915D01*
X116875951Y-80308836D01*
X116914400Y-80115542D01*
X116914400Y-79918460D01*
X116914400Y-79918457D01*
X116875952Y-79725171D01*
X116875951Y-79725170D01*
X116875951Y-79725166D01*
X116818652Y-79586833D01*
X116800535Y-79543093D01*
X116800528Y-79543080D01*
X116691039Y-79379219D01*
X116691036Y-79379215D01*
X116551685Y-79239864D01*
X116551681Y-79239861D01*
X116387820Y-79130372D01*
X116387807Y-79130365D01*
X116205739Y-79054951D01*
X116205729Y-79054948D01*
X116012443Y-79016501D01*
X116012441Y-79016501D01*
X114815359Y-79016501D01*
X114815357Y-79016501D01*
X114622070Y-79054948D01*
X114622060Y-79054951D01*
X114439992Y-79130365D01*
X114439979Y-79130372D01*
X114276118Y-79239861D01*
X114276114Y-79239864D01*
X114136763Y-79379215D01*
X114136760Y-79379219D01*
X114027271Y-79543080D01*
X114027264Y-79543093D01*
X113951850Y-79725161D01*
X113951847Y-79725171D01*
X113913400Y-79918457D01*
X113913400Y-79918460D01*
X113913400Y-80115542D01*
X113913400Y-80115544D01*
X113913399Y-80115544D01*
X112013500Y-80115544D01*
X112013500Y-79039240D01*
X112013500Y-79039238D01*
X111997761Y-78980500D01*
X111993022Y-78962812D01*
X111953460Y-78894289D01*
X111894975Y-78835804D01*
X111888022Y-78825240D01*
X111881360Y-78803434D01*
X111870434Y-78783425D01*
X111867820Y-78759117D01*
X111867607Y-78758419D01*
X111867707Y-78758063D01*
X111867600Y-78757067D01*
X111867600Y-78527539D01*
X111847120Y-78451109D01*
X111847117Y-78451104D01*
X111807564Y-78382595D01*
X111807558Y-78382587D01*
X111000515Y-77575544D01*
X113913399Y-77575544D01*
X113951847Y-77768830D01*
X113951850Y-77768840D01*
X114027264Y-77950908D01*
X114027271Y-77950921D01*
X114136760Y-78114782D01*
X114136763Y-78114786D01*
X114276114Y-78254137D01*
X114276118Y-78254140D01*
X114439979Y-78363629D01*
X114439992Y-78363636D01*
X114622060Y-78439050D01*
X114622065Y-78439052D01*
X114622069Y-78439052D01*
X114622070Y-78439053D01*
X114815356Y-78477501D01*
X114815359Y-78477501D01*
X116012443Y-78477501D01*
X116145146Y-78451104D01*
X116205735Y-78439052D01*
X116387814Y-78363633D01*
X116551682Y-78254140D01*
X116691039Y-78114783D01*
X116800532Y-77950915D01*
X116875951Y-77768836D01*
X116914400Y-77575542D01*
X116914400Y-77378460D01*
X116914400Y-77378457D01*
X116875952Y-77185171D01*
X116875951Y-77185170D01*
X116875951Y-77185166D01*
X116869017Y-77168426D01*
X116800535Y-77003093D01*
X116800528Y-77003080D01*
X116691039Y-76839219D01*
X116691036Y-76839215D01*
X116551685Y-76699864D01*
X116551681Y-76699861D01*
X116387820Y-76590372D01*
X116387807Y-76590365D01*
X116205739Y-76514951D01*
X116205729Y-76514948D01*
X116012443Y-76476501D01*
X116012441Y-76476501D01*
X114815359Y-76476501D01*
X114815357Y-76476501D01*
X114622070Y-76514948D01*
X114622060Y-76514951D01*
X114439992Y-76590365D01*
X114439979Y-76590372D01*
X114276118Y-76699861D01*
X114276114Y-76699864D01*
X114136763Y-76839215D01*
X114136760Y-76839219D01*
X114027271Y-77003080D01*
X114027264Y-77003093D01*
X113951850Y-77185161D01*
X113951847Y-77185171D01*
X113913400Y-77378457D01*
X113913400Y-77378460D01*
X113913400Y-77575542D01*
X113913400Y-77575544D01*
X113913399Y-77575544D01*
X111000515Y-77575544D01*
X108460515Y-75035544D01*
X113913399Y-75035544D01*
X113951847Y-75228830D01*
X113951850Y-75228840D01*
X114027264Y-75410908D01*
X114027271Y-75410921D01*
X114136760Y-75574782D01*
X114136763Y-75574786D01*
X114276114Y-75714137D01*
X114276118Y-75714140D01*
X114439979Y-75823629D01*
X114439992Y-75823636D01*
X114622060Y-75899050D01*
X114622065Y-75899052D01*
X114622069Y-75899052D01*
X114622070Y-75899053D01*
X114815356Y-75937501D01*
X114815359Y-75937501D01*
X116012443Y-75937501D01*
X116142482Y-75911633D01*
X116205735Y-75899052D01*
X116387814Y-75823633D01*
X116551682Y-75714140D01*
X116691039Y-75574783D01*
X116800532Y-75410915D01*
X116875951Y-75228836D01*
X116914400Y-75035542D01*
X116914400Y-74838460D01*
X116914400Y-74838457D01*
X116875952Y-74645171D01*
X116875951Y-74645170D01*
X116875951Y-74645166D01*
X116875949Y-74645161D01*
X116800535Y-74463093D01*
X116800528Y-74463080D01*
X116691039Y-74299219D01*
X116691036Y-74299215D01*
X116551685Y-74159864D01*
X116551681Y-74159861D01*
X116387820Y-74050372D01*
X116387807Y-74050365D01*
X116205739Y-73974951D01*
X116205729Y-73974948D01*
X116012443Y-73936501D01*
X116012441Y-73936501D01*
X114815359Y-73936501D01*
X114815357Y-73936501D01*
X114622070Y-73974948D01*
X114622060Y-73974951D01*
X114439992Y-74050365D01*
X114439979Y-74050372D01*
X114276118Y-74159861D01*
X114276114Y-74159864D01*
X114136763Y-74299215D01*
X114136760Y-74299219D01*
X114027271Y-74463080D01*
X114027264Y-74463093D01*
X113951850Y-74645161D01*
X113951847Y-74645171D01*
X113913400Y-74838457D01*
X113913400Y-74838460D01*
X113913400Y-75035542D01*
X113913400Y-75035544D01*
X113913399Y-75035544D01*
X108460515Y-75035544D01*
X104822619Y-71397648D01*
X107699500Y-71397648D01*
X107699500Y-71602351D01*
X107731522Y-71804534D01*
X107794781Y-71999223D01*
X107887715Y-72181613D01*
X108008028Y-72347213D01*
X108152786Y-72491971D01*
X108307749Y-72604556D01*
X108318390Y-72612287D01*
X108434607Y-72671503D01*
X108500776Y-72705218D01*
X108500778Y-72705218D01*
X108500781Y-72705220D01*
X108605137Y-72739127D01*
X108695465Y-72768477D01*
X108796557Y-72784488D01*
X108897648Y-72800500D01*
X108897649Y-72800500D01*
X109102351Y-72800500D01*
X109102352Y-72800500D01*
X109304534Y-72768477D01*
X109499219Y-72705220D01*
X109681610Y-72612287D01*
X109774590Y-72544732D01*
X109842295Y-72495544D01*
X113913399Y-72495544D01*
X113951847Y-72688830D01*
X113951850Y-72688840D01*
X114027264Y-72870908D01*
X114027271Y-72870921D01*
X114136760Y-73034782D01*
X114136763Y-73034786D01*
X114276114Y-73174137D01*
X114276118Y-73174140D01*
X114439979Y-73283629D01*
X114439992Y-73283636D01*
X114622060Y-73359050D01*
X114622065Y-73359052D01*
X114622069Y-73359052D01*
X114622070Y-73359053D01*
X114815356Y-73397501D01*
X114815359Y-73397501D01*
X116012443Y-73397501D01*
X116142482Y-73371633D01*
X116205735Y-73359052D01*
X116387814Y-73283633D01*
X116551682Y-73174140D01*
X116691039Y-73034783D01*
X116800532Y-72870915D01*
X116875951Y-72688836D01*
X116914400Y-72495542D01*
X116914400Y-72298460D01*
X116914400Y-72298457D01*
X116875952Y-72105171D01*
X116875951Y-72105170D01*
X116875951Y-72105166D01*
X116875949Y-72105161D01*
X116800535Y-71923093D01*
X116800528Y-71923080D01*
X116691039Y-71759219D01*
X116691036Y-71759215D01*
X116551685Y-71619864D01*
X116551681Y-71619861D01*
X116387820Y-71510372D01*
X116387807Y-71510365D01*
X116205739Y-71434951D01*
X116205729Y-71434948D01*
X116012443Y-71396501D01*
X116012441Y-71396501D01*
X114815359Y-71396501D01*
X114815357Y-71396501D01*
X114622070Y-71434948D01*
X114622060Y-71434951D01*
X114439992Y-71510365D01*
X114439979Y-71510372D01*
X114276118Y-71619861D01*
X114276114Y-71619864D01*
X114136763Y-71759215D01*
X114136760Y-71759219D01*
X114027271Y-71923080D01*
X114027264Y-71923093D01*
X113951850Y-72105161D01*
X113951847Y-72105171D01*
X113913400Y-72298457D01*
X113913400Y-72298460D01*
X113913400Y-72495542D01*
X113913400Y-72495544D01*
X113913399Y-72495544D01*
X109842295Y-72495544D01*
X109847213Y-72491971D01*
X109847215Y-72491968D01*
X109847219Y-72491966D01*
X109991966Y-72347219D01*
X109998567Y-72338132D01*
X110084772Y-72219483D01*
X110103261Y-72194032D01*
X110112287Y-72181610D01*
X110205220Y-71999219D01*
X110268477Y-71804534D01*
X110300500Y-71602352D01*
X110300500Y-71397648D01*
X110268477Y-71195466D01*
X110205220Y-71000781D01*
X110205218Y-71000778D01*
X110205218Y-71000776D01*
X110171503Y-70934607D01*
X110112287Y-70818390D01*
X110104556Y-70807749D01*
X109991971Y-70652786D01*
X109847213Y-70508028D01*
X109681613Y-70387715D01*
X109681612Y-70387714D01*
X109681610Y-70387713D01*
X109570150Y-70330921D01*
X109499223Y-70294781D01*
X109304534Y-70231522D01*
X109129995Y-70203878D01*
X109102352Y-70199500D01*
X108897648Y-70199500D01*
X108873329Y-70203351D01*
X108695465Y-70231522D01*
X108500776Y-70294781D01*
X108318386Y-70387715D01*
X108152786Y-70508028D01*
X108008028Y-70652786D01*
X107887715Y-70818386D01*
X107794781Y-71000776D01*
X107731522Y-71195465D01*
X107699500Y-71397648D01*
X104822619Y-71397648D01*
X103836819Y-70411848D01*
X103803334Y-70350525D01*
X103800500Y-70324167D01*
X103800500Y-69955544D01*
X113913399Y-69955544D01*
X113951847Y-70148830D01*
X113951850Y-70148840D01*
X114027264Y-70330908D01*
X114027271Y-70330921D01*
X114136760Y-70494782D01*
X114136763Y-70494786D01*
X114276114Y-70634137D01*
X114276118Y-70634140D01*
X114439979Y-70743629D01*
X114439992Y-70743636D01*
X114620457Y-70818386D01*
X114622065Y-70819052D01*
X114622069Y-70819052D01*
X114622070Y-70819053D01*
X114815356Y-70857501D01*
X114815359Y-70857501D01*
X116012443Y-70857501D01*
X116142482Y-70831633D01*
X116205735Y-70819052D01*
X116387814Y-70743633D01*
X116551682Y-70634140D01*
X116691039Y-70494783D01*
X116800532Y-70330915D01*
X116815500Y-70294780D01*
X116841701Y-70231523D01*
X116875951Y-70148836D01*
X116914400Y-69955542D01*
X116914400Y-69758460D01*
X116914400Y-69758457D01*
X116875952Y-69565171D01*
X116875951Y-69565170D01*
X116875951Y-69565166D01*
X116875949Y-69565161D01*
X116800535Y-69383093D01*
X116800528Y-69383080D01*
X116691039Y-69219219D01*
X116691036Y-69219215D01*
X116551685Y-69079864D01*
X116551681Y-69079861D01*
X116387820Y-68970372D01*
X116387807Y-68970365D01*
X116205739Y-68894951D01*
X116205729Y-68894948D01*
X116012443Y-68856501D01*
X116012441Y-68856501D01*
X114815359Y-68856501D01*
X114815357Y-68856501D01*
X114622070Y-68894948D01*
X114622060Y-68894951D01*
X114439992Y-68970365D01*
X114439979Y-68970372D01*
X114276118Y-69079861D01*
X114276114Y-69079864D01*
X114136763Y-69219215D01*
X114136760Y-69219219D01*
X114027271Y-69383080D01*
X114027264Y-69383093D01*
X113951850Y-69565161D01*
X113951847Y-69565171D01*
X113913400Y-69758457D01*
X113913400Y-69758460D01*
X113913400Y-69955542D01*
X113913400Y-69955544D01*
X113913399Y-69955544D01*
X103800500Y-69955544D01*
X103800500Y-68458676D01*
X103820185Y-68391637D01*
X103836819Y-68370995D01*
X103900500Y-68307314D01*
X103966392Y-68193186D01*
X104000500Y-68065892D01*
X104000500Y-67934108D01*
X103966392Y-67806814D01*
X103900500Y-67692686D01*
X103807314Y-67599500D01*
X103749100Y-67565890D01*
X103693187Y-67533608D01*
X103629539Y-67516554D01*
X103565892Y-67499500D01*
X103434108Y-67499500D01*
X103306812Y-67533608D01*
X103192686Y-67599500D01*
X103192683Y-67599502D01*
X103099502Y-67692683D01*
X103099500Y-67692686D01*
X103033608Y-67806812D01*
X102999500Y-67934108D01*
X102999500Y-68065891D01*
X103033608Y-68193187D01*
X103039641Y-68203636D01*
X103099500Y-68307314D01*
X103099502Y-68307316D01*
X103163181Y-68370995D01*
X103196666Y-68432318D01*
X103199500Y-68458676D01*
X103199500Y-70408067D01*
X103179815Y-70475106D01*
X103127011Y-70520861D01*
X103057853Y-70530805D01*
X102994297Y-70501780D01*
X102987819Y-70495748D01*
X101836819Y-69344748D01*
X101803334Y-69283425D01*
X101800500Y-69257067D01*
X101800500Y-67958676D01*
X101820185Y-67891637D01*
X101836819Y-67870995D01*
X101900500Y-67807314D01*
X101966392Y-67693186D01*
X102000500Y-67565892D01*
X102000500Y-67434108D01*
X101995526Y-67415544D01*
X113913399Y-67415544D01*
X113951847Y-67608830D01*
X113951850Y-67608840D01*
X114027264Y-67790908D01*
X114027271Y-67790921D01*
X114136760Y-67954782D01*
X114136763Y-67954786D01*
X114276114Y-68094137D01*
X114276118Y-68094140D01*
X114439979Y-68203629D01*
X114439992Y-68203636D01*
X114622060Y-68279050D01*
X114622065Y-68279052D01*
X114622069Y-68279052D01*
X114622070Y-68279053D01*
X114815356Y-68317501D01*
X114815359Y-68317501D01*
X116012443Y-68317501D01*
X116142482Y-68291633D01*
X116205735Y-68279052D01*
X116387814Y-68203633D01*
X116551682Y-68094140D01*
X116691039Y-67954783D01*
X116800532Y-67790915D01*
X116875951Y-67608836D01*
X116914400Y-67415542D01*
X116914400Y-67218460D01*
X116914400Y-67218457D01*
X116875952Y-67025171D01*
X116875951Y-67025170D01*
X116875951Y-67025166D01*
X116865320Y-66999500D01*
X116800535Y-66843093D01*
X116800528Y-66843080D01*
X116691039Y-66679219D01*
X116691036Y-66679215D01*
X116551685Y-66539864D01*
X116551681Y-66539861D01*
X116387820Y-66430372D01*
X116387807Y-66430365D01*
X116205739Y-66354951D01*
X116205729Y-66354948D01*
X116012443Y-66316501D01*
X116012441Y-66316501D01*
X114815359Y-66316501D01*
X114815357Y-66316501D01*
X114622070Y-66354948D01*
X114622060Y-66354951D01*
X114439992Y-66430365D01*
X114439979Y-66430372D01*
X114276118Y-66539861D01*
X114276114Y-66539864D01*
X114136763Y-66679215D01*
X114136760Y-66679219D01*
X114027271Y-66843080D01*
X114027264Y-66843093D01*
X113951850Y-67025161D01*
X113951847Y-67025171D01*
X113913400Y-67218457D01*
X113913400Y-67218460D01*
X113913400Y-67415542D01*
X113913400Y-67415544D01*
X113913399Y-67415544D01*
X101995526Y-67415544D01*
X101966392Y-67306814D01*
X101966390Y-67306810D01*
X101947661Y-67274370D01*
X101947660Y-67274369D01*
X101940554Y-67262062D01*
X101900500Y-67192686D01*
X101807314Y-67099500D01*
X101750250Y-67066554D01*
X101693187Y-67033608D01*
X101629539Y-67016554D01*
X101565892Y-66999500D01*
X101434108Y-66999500D01*
X101306812Y-67033608D01*
X101192686Y-67099500D01*
X101192683Y-67099502D01*
X101099502Y-67192683D01*
X101099500Y-67192686D01*
X101033608Y-67306812D01*
X101004475Y-67415542D01*
X100999500Y-67434108D01*
X100999500Y-67565892D01*
X101008505Y-67599500D01*
X101033608Y-67693187D01*
X101066554Y-67750250D01*
X101099500Y-67807314D01*
X101099502Y-67807316D01*
X101163181Y-67870995D01*
X101196666Y-67932318D01*
X101199500Y-67958676D01*
X101199500Y-68975167D01*
X101179815Y-69042206D01*
X101127011Y-69087961D01*
X101057853Y-69097905D01*
X100994297Y-69068880D01*
X100987819Y-69062848D01*
X99536819Y-67611848D01*
X99503334Y-67550525D01*
X99500500Y-67524167D01*
X99500500Y-67434110D01*
X99500500Y-67434108D01*
X99466392Y-67306814D01*
X99400500Y-67192686D01*
X99307314Y-67099500D01*
X99250250Y-67066554D01*
X99193187Y-67033608D01*
X99129539Y-67016554D01*
X99065892Y-66999500D01*
X98934108Y-66999500D01*
X98806812Y-67033608D01*
X98692686Y-67099500D01*
X98692683Y-67099502D01*
X98599502Y-67192683D01*
X98599500Y-67192686D01*
X98533608Y-67306812D01*
X98504475Y-67415542D01*
X98499500Y-67434108D01*
X97190707Y-67434108D01*
X97194400Y-67415542D01*
X97194400Y-67218460D01*
X97194400Y-67218457D01*
X97155952Y-67025171D01*
X97155951Y-67025170D01*
X97155951Y-67025166D01*
X97145320Y-66999500D01*
X97080535Y-66843093D01*
X97080528Y-66843080D01*
X96971039Y-66679219D01*
X96971036Y-66679215D01*
X96831685Y-66539864D01*
X96831681Y-66539861D01*
X96667820Y-66430372D01*
X96667807Y-66430365D01*
X96485739Y-66354951D01*
X96485729Y-66354948D01*
X96292443Y-66316501D01*
X96292441Y-66316501D01*
X95095359Y-66316501D01*
X95095357Y-66316501D01*
X94902070Y-66354948D01*
X94902060Y-66354951D01*
X94719992Y-66430365D01*
X94719979Y-66430372D01*
X94556118Y-66539861D01*
X94556114Y-66539864D01*
X94416763Y-66679215D01*
X94416760Y-66679219D01*
X94307271Y-66843080D01*
X94307264Y-66843093D01*
X94231850Y-67025161D01*
X94231847Y-67025171D01*
X94193400Y-67218457D01*
X94193400Y-67218460D01*
X94193400Y-67415542D01*
X94193400Y-67415544D01*
X94193399Y-67415544D01*
X93500500Y-67415544D01*
X93500500Y-59573920D01*
X98249499Y-59573920D01*
X98278340Y-59718907D01*
X98278343Y-59718917D01*
X98334912Y-59855488D01*
X98334919Y-59855501D01*
X98417048Y-59978415D01*
X98417051Y-59978419D01*
X98521580Y-60082948D01*
X98521584Y-60082951D01*
X98644498Y-60165080D01*
X98644511Y-60165087D01*
X98781082Y-60221656D01*
X98781087Y-60221658D01*
X98781091Y-60221658D01*
X98781092Y-60221659D01*
X98926079Y-60250500D01*
X98926082Y-60250500D01*
X99073920Y-60250500D01*
X99171462Y-60231096D01*
X99218913Y-60221658D01*
X99355495Y-60165084D01*
X99478416Y-60082951D01*
X99582951Y-59978416D01*
X99665084Y-59855495D01*
X99721658Y-59718913D01*
X99742868Y-59612287D01*
X99750500Y-59573920D01*
X103249499Y-59573920D01*
X103278340Y-59718907D01*
X103278343Y-59718917D01*
X103334912Y-59855488D01*
X103334919Y-59855501D01*
X103417048Y-59978415D01*
X103417051Y-59978419D01*
X103521580Y-60082948D01*
X103521584Y-60082951D01*
X103644498Y-60165080D01*
X103644511Y-60165087D01*
X103781082Y-60221656D01*
X103781087Y-60221658D01*
X103781091Y-60221658D01*
X103781092Y-60221659D01*
X103926079Y-60250500D01*
X103926082Y-60250500D01*
X104073920Y-60250500D01*
X104171462Y-60231096D01*
X104218913Y-60221658D01*
X104355495Y-60165084D01*
X104478416Y-60082951D01*
X104582951Y-59978416D01*
X104665084Y-59855495D01*
X104721658Y-59718913D01*
X104742868Y-59612287D01*
X104750500Y-59573920D01*
X104750500Y-59426079D01*
X104721659Y-59281092D01*
X104721658Y-59281091D01*
X104721658Y-59281087D01*
X104680455Y-59181613D01*
X104665087Y-59144511D01*
X104665080Y-59144498D01*
X104582951Y-59021584D01*
X104582948Y-59021580D01*
X104478419Y-58917051D01*
X104478415Y-58917048D01*
X104355501Y-58834919D01*
X104355488Y-58834912D01*
X104218917Y-58778343D01*
X104218907Y-58778340D01*
X104073920Y-58749500D01*
X104073918Y-58749500D01*
X103926082Y-58749500D01*
X103926080Y-58749500D01*
X103781092Y-58778340D01*
X103781082Y-58778343D01*
X103644511Y-58834912D01*
X103644498Y-58834919D01*
X103521584Y-58917048D01*
X103521580Y-58917051D01*
X103417051Y-59021580D01*
X103417048Y-59021584D01*
X103334919Y-59144498D01*
X103334912Y-59144511D01*
X103278343Y-59281082D01*
X103278340Y-59281092D01*
X103249500Y-59426079D01*
X103249500Y-59426082D01*
X103249500Y-59573918D01*
X103249500Y-59573920D01*
X103249499Y-59573920D01*
X99750500Y-59573920D01*
X99750500Y-59426079D01*
X99721659Y-59281092D01*
X99721658Y-59281091D01*
X99721658Y-59281087D01*
X99680455Y-59181613D01*
X99665087Y-59144511D01*
X99665080Y-59144498D01*
X99582951Y-59021584D01*
X99582948Y-59021580D01*
X99478419Y-58917051D01*
X99478415Y-58917048D01*
X99355501Y-58834919D01*
X99355488Y-58834912D01*
X99218917Y-58778343D01*
X99218907Y-58778340D01*
X99073920Y-58749500D01*
X99073918Y-58749500D01*
X98926082Y-58749500D01*
X98926080Y-58749500D01*
X98781092Y-58778340D01*
X98781082Y-58778343D01*
X98644511Y-58834912D01*
X98644498Y-58834919D01*
X98521584Y-58917048D01*
X98521580Y-58917051D01*
X98417051Y-59021580D01*
X98417048Y-59021584D01*
X98334919Y-59144498D01*
X98334912Y-59144511D01*
X98278343Y-59281082D01*
X98278340Y-59281092D01*
X98249500Y-59426079D01*
X98249500Y-59426082D01*
X98249500Y-59573918D01*
X98249500Y-59573920D01*
X98249499Y-59573920D01*
X93500500Y-59573920D01*
X93500500Y-57630247D01*
X110174500Y-57630247D01*
X110174500Y-59369752D01*
X110186131Y-59428229D01*
X110186132Y-59428230D01*
X110230447Y-59494552D01*
X110296769Y-59538867D01*
X110296770Y-59538868D01*
X110355247Y-59550499D01*
X110355250Y-59550500D01*
X110355252Y-59550500D01*
X110800500Y-59550500D01*
X110867539Y-59570185D01*
X110913294Y-59622989D01*
X110924500Y-59674500D01*
X110924500Y-62764562D01*
X110938152Y-62815513D01*
X110944979Y-62840990D01*
X110944982Y-62840995D01*
X110984535Y-62909504D01*
X110984541Y-62909512D01*
X111438181Y-63363152D01*
X111471666Y-63424475D01*
X111474500Y-63450833D01*
X111474500Y-63540891D01*
X111508608Y-63668187D01*
X111541554Y-63725250D01*
X111574500Y-63782314D01*
X111667686Y-63875500D01*
X111781814Y-63941392D01*
X111909108Y-63975500D01*
X111909110Y-63975500D01*
X112040890Y-63975500D01*
X112040892Y-63975500D01*
X112168186Y-63941392D01*
X112282314Y-63875500D01*
X112375500Y-63782314D01*
X112441392Y-63668186D01*
X112475500Y-63540892D01*
X112475500Y-63409108D01*
X112441392Y-63281814D01*
X112375500Y-63167686D01*
X112282314Y-63074500D01*
X112225250Y-63041554D01*
X112168187Y-63008608D01*
X112104539Y-62991554D01*
X112040892Y-62974500D01*
X111950833Y-62974500D01*
X111883794Y-62954815D01*
X111863152Y-62938181D01*
X111561819Y-62636848D01*
X111528334Y-62575525D01*
X111525500Y-62549167D01*
X111525500Y-59674500D01*
X111545185Y-59607461D01*
X111597989Y-59561706D01*
X111649500Y-59550500D01*
X112094750Y-59550500D01*
X112094751Y-59550499D01*
X112109568Y-59547552D01*
X112153229Y-59538868D01*
X112153229Y-59538867D01*
X112153231Y-59538867D01*
X112219552Y-59494552D01*
X112263867Y-59428231D01*
X112263867Y-59428229D01*
X112263868Y-59428229D01*
X112275499Y-59369752D01*
X112275500Y-59369750D01*
X112275500Y-58396530D01*
X112714500Y-58396530D01*
X112714500Y-58603469D01*
X112754868Y-58806412D01*
X112754870Y-58806420D01*
X112834058Y-58997596D01*
X112949024Y-59169657D01*
X113095342Y-59315975D01*
X113095345Y-59315977D01*
X113267402Y-59430941D01*
X113387953Y-59480875D01*
X113442356Y-59524714D01*
X113464421Y-59591008D01*
X113464500Y-59595435D01*
X113464500Y-63304561D01*
X113474907Y-63343401D01*
X113474907Y-63400963D01*
X113475561Y-63401049D01*
X113474907Y-63406010D01*
X113474908Y-63407582D01*
X113474501Y-63409100D01*
X113474500Y-63409109D01*
X113474500Y-63540891D01*
X113508608Y-63668187D01*
X113541554Y-63725250D01*
X113574500Y-63782314D01*
X113667686Y-63875500D01*
X113781814Y-63941392D01*
X113909108Y-63975500D01*
X113909110Y-63975500D01*
X114040890Y-63975500D01*
X114040892Y-63975500D01*
X114168186Y-63941392D01*
X114282314Y-63875500D01*
X114375500Y-63782314D01*
X114441392Y-63668186D01*
X114475500Y-63540892D01*
X114475500Y-63409108D01*
X114441392Y-63281814D01*
X114375500Y-63167686D01*
X114282314Y-63074500D01*
X114216421Y-63036456D01*
X114168185Y-63008607D01*
X114157400Y-63005717D01*
X114097741Y-62969349D01*
X114067216Y-62906500D01*
X114065500Y-62885944D01*
X114065500Y-59595435D01*
X114085185Y-59528396D01*
X114137989Y-59482641D01*
X114142012Y-59480889D01*
X114262598Y-59430941D01*
X114434655Y-59315977D01*
X114580977Y-59169655D01*
X114695941Y-58997598D01*
X114775130Y-58806420D01*
X114815500Y-58603465D01*
X114815500Y-58397648D01*
X117199500Y-58397648D01*
X117199500Y-58602352D01*
X117199677Y-58603469D01*
X117231522Y-58804534D01*
X117294781Y-58999223D01*
X117358691Y-59124653D01*
X117368803Y-59144498D01*
X117387715Y-59181613D01*
X117508028Y-59347213D01*
X117652786Y-59491971D01*
X117789102Y-59591008D01*
X117818390Y-59612287D01*
X117934607Y-59671503D01*
X118000776Y-59705218D01*
X118000778Y-59705218D01*
X118000781Y-59705220D01*
X118105137Y-59739127D01*
X118195465Y-59768477D01*
X118296557Y-59784488D01*
X118397648Y-59800500D01*
X118397649Y-59800500D01*
X118602351Y-59800500D01*
X118602352Y-59800500D01*
X118804534Y-59768477D01*
X118999219Y-59705220D01*
X119181610Y-59612287D01*
X119274590Y-59544732D01*
X119347213Y-59491971D01*
X119347215Y-59491968D01*
X119347219Y-59491966D01*
X119491966Y-59347219D01*
X119491968Y-59347215D01*
X119491971Y-59347213D01*
X119544732Y-59274590D01*
X119612287Y-59181610D01*
X119705220Y-58999219D01*
X119768477Y-58804534D01*
X119800500Y-58602352D01*
X119800500Y-58397648D01*
X119768477Y-58195466D01*
X119767866Y-58193587D01*
X119705747Y-58002403D01*
X119705220Y-58000781D01*
X119705218Y-58000778D01*
X119705218Y-58000776D01*
X119618378Y-57830345D01*
X119612287Y-57818390D01*
X119604556Y-57807749D01*
X119491971Y-57652786D01*
X119347213Y-57508028D01*
X119181613Y-57387715D01*
X119181612Y-57387714D01*
X119181610Y-57387713D01*
X119124653Y-57358691D01*
X118999223Y-57294781D01*
X118804534Y-57231522D01*
X118629995Y-57203878D01*
X118602352Y-57199500D01*
X118397648Y-57199500D01*
X118373329Y-57203351D01*
X118195465Y-57231522D01*
X118000776Y-57294781D01*
X117818386Y-57387715D01*
X117652786Y-57508028D01*
X117508028Y-57652786D01*
X117387715Y-57818386D01*
X117294781Y-58000776D01*
X117231522Y-58195465D01*
X117199677Y-58396530D01*
X117199500Y-58397648D01*
X114815500Y-58397648D01*
X114815500Y-58396535D01*
X114775130Y-58193580D01*
X114695941Y-58002402D01*
X114580977Y-57830345D01*
X114580975Y-57830342D01*
X114434657Y-57684024D01*
X114266655Y-57571770D01*
X114262598Y-57569059D01*
X114071420Y-57489870D01*
X114071412Y-57489868D01*
X113868469Y-57449500D01*
X113868465Y-57449500D01*
X113661535Y-57449500D01*
X113661530Y-57449500D01*
X113458587Y-57489868D01*
X113458579Y-57489870D01*
X113267403Y-57569058D01*
X113095342Y-57684024D01*
X112949024Y-57830342D01*
X112834058Y-58002403D01*
X112754870Y-58193579D01*
X112754868Y-58193587D01*
X112714500Y-58396530D01*
X112275500Y-58396530D01*
X112275500Y-57630249D01*
X112275499Y-57630247D01*
X112263868Y-57571770D01*
X112263867Y-57571769D01*
X112219552Y-57505447D01*
X112153230Y-57461132D01*
X112153229Y-57461131D01*
X112094752Y-57449500D01*
X112094748Y-57449500D01*
X110355252Y-57449500D01*
X110355247Y-57449500D01*
X110296770Y-57461131D01*
X110296769Y-57461132D01*
X110230447Y-57505447D01*
X110186132Y-57571769D01*
X110186131Y-57571770D01*
X110174500Y-57630247D01*
X93500500Y-57630247D01*
X93500500Y-55624500D01*
X93520185Y-55557461D01*
X93572989Y-55511706D01*
X93624500Y-55500500D01*
X120625500Y-55500500D01*
X120692539Y-55520185D01*
G37*
G04 #@! TD.AperFunction*
M02*
